<svg width="48" height="48" viewBox="0 0 48 48" fill="none" xmlns="http://www.w3.org/2000/svg">
<g id="playlist_add_FILL0_wght300_GRAD0_opsz48 (1) 1">
<path id="Vector" d="M33.9902 39.4999C33.6659 39.4999 33.3974 39.3912 33.1846 39.1737C32.9718 38.9563 32.8654 38.6868 32.8654 38.3653V31.1346H25.6346C25.3131 31.1346 25.0436 31.0249 24.8262 30.8056C24.6087 30.5862 24.5 30.3144 24.5 29.9902C24.5 29.6659 24.6087 29.3974 24.8262 29.1846C25.0436 28.9718 25.3131 28.8654 25.6346 28.8654H32.8654V21.6346C32.8654 21.3131 32.975 21.0437 33.1944 20.8262C33.4137 20.6087 33.6855 20.5 34.0098 20.5C34.334 20.5 34.6025 20.6087 34.8153 20.8262C35.0281 21.0437 35.1346 21.3131 35.1346 21.6346V28.8654H42.3653C42.6868 28.8654 42.9562 28.975 43.1737 29.1944C43.3912 29.4137 43.4999 29.6855 43.4999 30.0098C43.4999 30.334 43.3912 30.6025 43.1737 30.8153C42.9562 31.0281 42.6868 31.1346 42.3653 31.1346H35.1346V38.3653C35.1346 38.6868 35.0249 38.9563 34.8056 39.1737C34.5862 39.3912 34.3144 39.4999 33.9902 39.4999ZM7.6346 31.1346C7.3131 31.1346 7.04363 31.0249 6.8262 30.8056C6.60873 30.5862 6.5 30.3144 6.5 29.9902C6.5 29.6659 6.60873 29.3974 6.8262 29.1846C7.04363 28.9718 7.3131 28.8654 7.6346 28.8654H20.0962C20.4176 28.8654 20.6871 28.975 20.9046 29.1944C21.122 29.4137 21.2308 29.6855 21.2308 30.0098C21.2308 30.334 21.122 30.6025 20.9046 30.8153C20.6871 31.0281 20.4176 31.1346 20.0962 31.1346H7.6346ZM7.6346 22.9423C7.3131 22.9423 7.04363 22.8326 6.8262 22.6133C6.60873 22.394 6.5 22.1223 6.5 21.7982C6.5 21.4866 6.60873 21.2211 6.8262 21.0019C7.04363 20.7827 7.3131 20.673 7.6346 20.673H28.4615C28.783 20.673 29.0524 20.7858 29.2699 21.0114C29.4874 21.2369 29.5961 21.5087 29.5961 21.8267C29.5961 22.1448 29.4874 22.4102 29.2699 22.623C29.0524 22.8358 28.783 22.9423 28.4615 22.9423H7.6346ZM7.6346 14.7691C7.3131 14.7691 7.04363 14.6595 6.8262 14.4402C6.60873 14.2208 6.5 13.949 6.5 13.6248C6.5 13.3006 6.60873 13.032 6.8262 12.8192C7.04363 12.6064 7.3131 12.5 7.6346 12.5H28.4615C28.783 12.5 29.0524 12.6097 29.2699 12.829C29.4874 13.0483 29.5961 13.3201 29.5961 13.6444C29.5961 13.9686 29.4874 14.2371 29.2699 14.45C29.0524 14.6628 28.783 14.7691 28.4615 14.7691H7.6346Z" fill="#555555"/>
</g>
</svg>
