<svg width="48" height="48" viewBox="0 0 48 48" fill="none" xmlns="http://www.w3.org/2000/svg">
<g id="sports_esports_FILL0_wght300_GRAD0_opsz48 (1) 1">
<path id="Vector" d="M7.79233 36.9999C6.74363 36.9999 5.92505 36.6422 5.33658 35.9268C4.74815 35.2114 4.5347 34.2768 4.69623 33.123L7.05773 16.7192C7.28593 15.1449 8.01156 13.7981 9.23463 12.6789C10.4577 11.5596 11.8628 11 13.45 11H34.6C36.1743 11 37.573 11.5596 38.7961 12.6789C40.0191 13.7981 40.7512 15.1449 40.9922 16.7192L43.3037 33.123C43.4653 34.2768 43.2518 35.2114 42.6634 35.9268C42.0749 36.6422 41.2628 36.9999 40.2269 36.9999C39.6013 36.9999 39.0731 36.9037 38.6423 36.7114C38.2115 36.5191 37.8385 36.2653 37.5231 35.9499L32.2077 30.6345H15.7923L10.4769 35.9499C10.1615 36.2653 9.78845 36.5191 9.35768 36.7114C8.92692 36.9037 8.40513 36.9999 7.79233 36.9999ZM8.65388 34.5115L14.8 28.3653H33.2L39.3461 34.5115C39.4871 34.6397 39.7679 34.7704 40.1884 34.9038C40.5012 34.9038 40.7391 34.7666 40.9019 34.4923C41.0647 34.2179 41.1192 33.9243 41.0653 33.6115L38.723 17.0654C38.5564 15.9628 38.0711 15.0545 37.2673 14.3404C36.4634 13.6263 35.5743 13.2692 34.6 13.2692H13.4C12.4256 13.2692 11.5365 13.6263 10.7327 14.3404C9.92885 15.0545 9.45002 15.9628 9.29618 17.0654L6.93463 33.6115C6.8808 33.9243 6.93528 34.2179 7.09808 34.4923C7.26092 34.7666 7.50515 34.9038 7.83078 34.9038C8.03848 34.9038 8.31285 34.773 8.65388 34.5115ZM34.7307 25.8077C35.2128 25.8077 35.6346 25.6269 35.9961 25.2653C36.3577 24.9038 36.5384 24.482 36.5384 24C36.5384 23.5179 36.3577 23.0961 35.9961 22.7346C35.6346 22.373 35.2128 22.1923 34.7307 22.1923C34.2487 22.1923 33.8269 22.373 33.4653 22.7346C33.1038 23.0961 32.923 23.5179 32.923 24C32.923 24.482 33.1038 24.9038 33.4653 25.2653C33.8269 25.6269 34.2487 25.8077 34.7307 25.8077ZM30.5577 19.4423C31.0269 19.4423 31.4455 19.2615 31.8134 18.9C32.1814 18.5384 32.3653 18.1166 32.3653 17.6346C32.3653 17.1525 32.1814 16.7307 31.8134 16.3692C31.4455 16.0077 31.0269 15.8269 30.5577 15.8269C30.0756 15.8269 29.6538 16.0077 29.2923 16.3692C28.9308 16.7307 28.75 17.1525 28.75 17.6346C28.75 18.1166 28.9308 18.5384 29.2923 18.9C29.6538 19.2615 30.0756 19.4423 30.5577 19.4423ZM11.7692 21.8269H13.6115C14.1321 21.8269 14.5673 22.0083 14.9173 22.3711C15.2673 22.7339 15.4423 23.2076 15.4423 23.7923C15.4423 24.2615 15.6096 24.6634 15.9442 24.998C16.2789 25.3326 16.6872 25.5 17.1692 25.5H17.4615V23.6577C17.4615 23.1371 17.6481 22.7019 18.0211 22.3519C18.3942 22.0019 18.873 21.8269 19.4577 21.8269C19.9397 21.8269 20.3429 21.6596 20.6673 21.325C20.9916 20.9903 21.1538 20.582 21.1538 20.1V19.8077H19.2923C18.7718 19.8077 18.3365 19.6211 17.9865 19.248C17.6365 18.875 17.4615 18.3961 17.4615 17.8115C17.4615 17.3295 17.2993 16.9263 16.975 16.6019C16.6506 16.2775 16.2474 16.1154 15.7654 16.1154H15.4423V17.9769C15.4423 18.4974 15.2609 18.9327 14.8981 19.2827C14.5353 19.6327 14.0616 19.8077 13.4769 19.8077C13.0077 19.8077 12.6058 19.9698 12.2712 20.2942C11.9365 20.6186 11.7692 21.0218 11.7692 21.5038V21.8269Z" fill="#555555"/>
</g>
</svg>
