<svg width="32" height="32" viewBox="0 0 32 32" fill="none" xmlns="http://www.w3.org/2000/svg">
<g id="add_moderator_FILL0_wght500_GRAD0_opsz48 1">
<path id="Vector" d="M15.9997 29.5406C12.8758 28.8145 10.2839 27.0483 8.22382 24.2418C6.1638 21.4353 5.13379 18.2213 5.13379 14.6V8.08912C5.13379 7.60274 5.26923 7.16313 5.54012 6.77028C5.81101 6.37746 6.16736 6.09605 6.60916 5.92605L15.2041 2.71665C15.4751 2.61714 15.7403 2.56738 15.9997 2.56738C16.2591 2.56738 16.5244 2.61714 16.7954 2.71665L25.3903 5.92605C25.8321 6.09605 26.1898 6.37746 26.4633 6.77028C26.7369 7.16313 26.8737 7.60274 26.8737 8.08912V15.7529C26.5147 15.5548 26.1369 15.3838 25.7404 15.2398C25.3438 15.0958 24.9619 14.9995 24.5947 14.9507V8.08225L15.9997 4.91302L7.40479 8.07978V14.5965C7.40479 16.2983 7.67834 17.8564 8.22546 19.2707C8.77254 20.6849 9.46699 21.9229 10.3088 22.9848C11.1506 24.0466 12.0746 24.9251 13.0809 25.6203C14.0872 26.3154 15.0495 26.8106 15.9678 27.1058C16.1065 27.4362 16.3278 27.7933 16.6316 28.1772C16.9355 28.561 17.2108 28.8524 17.4577 29.0515C17.2258 29.1785 16.9828 29.2738 16.7287 29.3373C16.4746 29.4008 16.2316 29.4686 15.9997 29.5406V29.5406ZM23.0831 29.3333C21.3608 29.3333 19.8886 28.7167 18.6664 27.4833C17.4442 26.25 16.8331 24.7889 16.8331 23.1C16.8331 21.357 17.4441 19.8712 18.6661 18.6428C19.8881 17.4142 21.3659 16.8 23.0997 16.8C24.8108 16.8 26.2831 17.4142 27.5164 18.6428C28.7497 19.8712 29.3664 21.357 29.3664 23.1C29.3664 24.7889 28.7497 26.25 27.5164 27.4833C26.2831 28.7167 24.8053 29.3333 23.0831 29.3333ZM22.5121 23.7543V26.0016C22.5121 26.1886 22.578 26.3409 22.7098 26.4585C22.8416 26.576 22.9954 26.6348 23.1712 26.6348C23.3469 26.6348 23.4936 26.5693 23.6111 26.4385C23.7286 26.3076 23.7874 26.1549 23.7874 25.9804V23.7543H26.0347C26.2217 23.7543 26.374 23.6884 26.4915 23.5566C26.6091 23.4248 26.6678 23.271 26.6678 23.0952C26.6678 22.9195 26.6091 22.7728 26.4915 22.6553C26.374 22.5378 26.2217 22.479 26.0347 22.479H23.7874V20.2317C23.7874 20.0447 23.7286 19.8924 23.6111 19.7749C23.4936 19.6573 23.3469 19.5986 23.1712 19.5986C22.9954 19.5986 22.8416 19.6573 22.7098 19.7749C22.578 19.8924 22.5121 20.0447 22.5121 20.2317V22.479H20.2648C20.0777 22.479 19.9255 22.5378 19.8079 22.6553C19.6904 22.7728 19.6316 22.9195 19.6316 23.0952C19.6316 23.271 19.6971 23.4248 19.8279 23.5566C19.9588 23.6884 20.1115 23.7543 20.286 23.7543H22.5121Z" fill="#555555"/>
</g>
</svg>
