<svg width="23" height="23" viewBox="0 0 23 23" fill="none" xmlns="http://www.w3.org/2000/svg">
<g id="backButton">
<circle id="Ellipse 1" cx="11.5" cy="11.5" r="10.5" stroke="#555555" stroke-width="2"/>
<path id="Arrow 1" d="M15.5254 12.25C15.9396 12.25 16.2754 11.9142 16.2754 11.5C16.2754 11.0858 15.9396 10.75 15.5254 10.75L15.5254 12.25ZM6.94506 10.9697C6.65217 11.2626 6.65217 11.7374 6.94506 12.0303L11.718 16.8033C12.0109 17.0962 12.4858 17.0962 12.7787 16.8033C13.0716 16.5104 13.0716 16.0355 12.7787 15.7426L8.53605 11.5L12.7787 7.25736C13.0716 6.96447 13.0716 6.48959 12.7787 6.1967C12.4858 5.90381 12.0109 5.90381 11.718 6.1967L6.94506 10.9697ZM15.5254 10.75L7.47539 10.75L7.47539 12.25L15.5254 12.25L15.5254 10.75Z" fill="#555555"/>
</g>
</svg>
