<svg width="32" height="32" viewBox="0 0 32 32" fill="none" xmlns="http://www.w3.org/2000/svg">
<g id="person_off_FILL0_wght500_GRAD0_opsz48 1">
<path id="Vector" d="M26.5908 29.4565L24.0785 26.9696H6.2691C5.94301 26.9696 5.67223 26.8618 5.45677 26.6464C5.24132 26.4309 5.1336 26.1601 5.1336 25.8341V23.621C5.1336 22.7431 5.35488 21.9876 5.79743 21.3546C6.23999 20.7216 6.81147 20.2408 7.51187 19.9123C8.84116 19.3176 10.1205 18.8536 11.3498 18.5203C12.5792 18.187 13.8168 17.9954 15.0626 17.9457L2.50967 5.4087C2.30436 5.20096 2.20592 4.9564 2.21437 4.675C2.22281 4.3936 2.33152 4.15024 2.5405 3.94493C2.74943 3.73962 2.99895 3.63696 3.28903 3.63696C3.57912 3.63696 3.82682 3.73962 4.03213 3.94493L28.0879 27.9928C28.2932 28.2029 28.3959 28.4481 28.3959 28.7283C28.3959 29.0085 28.2917 29.2512 28.0833 29.4565C27.8749 29.6671 27.626 29.7725 27.3366 29.7725C27.0473 29.7725 26.7987 29.6671 26.5908 29.4565ZM7.4046 24.6986H21.7995L17.3256 20.2167C17.1213 20.1944 16.9058 20.182 16.6792 20.1794C16.4527 20.1767 16.2261 20.1754 15.9995 20.1754C14.7382 20.1754 13.5115 20.3005 12.3195 20.5507C11.1274 20.801 9.84586 21.2622 8.4747 21.9343C8.1613 22.0883 7.9046 22.3251 7.7046 22.6448C7.5046 22.9644 7.4046 23.3005 7.4046 23.6529V24.6986ZM24.4539 19.9123C25.164 20.2288 25.7382 20.6936 26.1763 21.3069C26.6145 21.9202 26.8416 22.657 26.8575 23.5174V23.7841L22.035 18.9616C22.4297 19.0896 22.829 19.2367 23.2329 19.4028C23.6368 19.5689 24.0438 19.7387 24.4539 19.9123ZM18.4205 15.3471L16.5894 13.5159C17.2667 13.387 17.8257 13.0585 18.2666 12.5304C18.7074 12.0024 18.9278 11.3802 18.9278 10.6638C18.9278 9.8425 18.6459 9.14914 18.0822 8.5837C17.5185 8.01823 16.8242 7.7355 15.9995 7.7355C15.2831 7.7355 14.6609 7.95457 14.1329 8.39273C13.6048 8.83091 13.2763 9.39129 13.1474 10.0739L11.3162 8.23476C11.7478 7.35505 12.3876 6.67341 13.2356 6.18983C14.0837 5.70625 15.0048 5.46446 15.999 5.46446C17.4525 5.46446 18.6838 5.96639 19.693 6.97026C20.7022 7.97413 21.2068 9.20515 21.2068 10.6633C21.2068 11.655 20.9642 12.574 20.4789 13.4204C19.9936 14.2667 19.3075 14.9089 18.4205 15.3471Z" fill="#555555"/>
</g>
</svg>
