<svg width="32" height="32" viewBox="0 0 32 32" fill="none" xmlns="http://www.w3.org/2000/svg">
<g id="block_FILL0_wght500_GRAD0_opsz48 1">
<path id="Vector" d="M15.9993 29.5326C14.1275 29.5326 12.3689 29.1773 10.7235 28.4667C9.07814 27.7561 7.64482 26.7901 6.42357 25.5688C5.20231 24.3476 4.23768 22.9139 3.52971 21.2678C2.82175 19.6216 2.46777 17.8604 2.46777 15.9841C2.46777 14.1184 2.82256 12.3628 3.53214 10.7175C4.24174 9.07218 5.20665 7.63982 6.42687 6.42044C7.64712 5.20107 9.08001 4.23605 10.7255 3.52538C12.3711 2.81473 14.1294 2.45941 16.0006 2.45941C17.8717 2.45941 19.6297 2.81459 21.2746 3.52495C22.9194 4.2353 24.3517 5.19991 25.5715 6.41878C26.7912 7.63767 27.7578 9.07018 28.471 10.7163C29.1843 12.3624 29.541 14.1184 29.541 15.9841C29.541 17.8604 29.1859 19.6221 28.4758 21.269C27.7657 22.916 26.8 24.3491 25.5789 25.5685C24.3578 26.7878 22.9238 27.7533 21.277 28.465C19.6303 29.1768 17.871 29.5326 15.9993 29.5326ZM16.0004 27.2616C19.143 27.2616 21.8056 26.169 23.9881 23.9838C26.1707 21.7986 27.262 19.132 27.262 15.9841C27.262 14.6727 27.0393 13.4063 26.5938 12.1849C26.1484 10.9636 25.5168 9.85244 24.6989 8.85148L8.85981 24.6826C9.83474 25.533 10.938 26.1755 12.1697 26.6099C13.4014 27.0444 14.6783 27.2616 16.0004 27.2616ZM7.33514 23.1246L23.133 7.31885C22.1257 6.4818 21.0142 5.84247 19.7984 5.40085C18.5826 4.95922 17.3166 4.73841 16.0004 4.73841C12.8578 4.73841 10.1952 5.82802 8.01261 8.00725C5.83005 10.1864 4.73877 12.8454 4.73877 15.9841C4.73877 17.308 4.97335 18.5829 5.44251 19.8085C5.91166 21.0343 6.54254 22.1396 7.33514 23.1246Z" fill="#555555"/>
</g>
</svg>
