<svg width="24" height="24" viewBox="0 0 24 24" fill="none" xmlns="http://www.w3.org/2000/svg">
<g id="cancel_FILL0_wght300_GRAD0_opsz48 1">
<path id="Vector" d="M12 12.8L15.3115 16.1115C15.4231 16.223 15.5548 16.2804 15.7067 16.2836C15.8586 16.2868 15.9936 16.2295 16.1115 16.1115C16.2295 15.9936 16.2884 15.8602 16.2884 15.7115C16.2884 15.5628 16.2295 15.4295 16.1115 15.3115L12.8 12L16.1115 8.68843C16.223 8.57689 16.2804 8.44517 16.2836 8.29325C16.2868 8.14134 16.2295 8.0064 16.1115 7.88845C15.9936 7.7705 15.8602 7.71153 15.7115 7.71153C15.5628 7.71153 15.4295 7.7705 15.3115 7.88845L12 11.2L8.68843 7.88845C8.57689 7.77692 8.44517 7.71954 8.29325 7.71633C8.14133 7.71313 8.0064 7.7705 7.88845 7.88845C7.7705 8.0064 7.71153 8.13973 7.71153 8.28845C7.71153 8.43715 7.7705 8.57048 7.88845 8.68843L11.2 12L7.88845 15.3115C7.77692 15.4231 7.71954 15.5548 7.71633 15.7067C7.71313 15.8586 7.7705 15.9936 7.88845 16.1115C8.0064 16.2295 8.13973 16.2884 8.28845 16.2884C8.43715 16.2884 8.57048 16.2295 8.68843 16.1115L12 12.8ZM12.0016 21.5C10.698 21.5 9.46966 21.2506 8.31673 20.752C7.16379 20.2533 6.15555 19.5724 5.292 18.7092C4.42843 17.846 3.74721 16.8382 3.24833 15.6858C2.74944 14.5334 2.5 13.3053 2.5 12.0017C2.5 10.6877 2.74933 9.45268 3.248 8.29655C3.74667 7.1404 4.42758 6.13472 5.29075 5.2795C6.15393 4.42427 7.16173 3.74721 8.31415 3.24833C9.46658 2.74944 10.6946 2.5 11.9983 2.5C13.3122 2.5 14.5473 2.74933 15.7034 3.248C16.8596 3.74667 17.8652 4.42342 18.7205 5.27825C19.5757 6.1331 20.2527 7.13834 20.7516 8.29398C21.2505 9.44959 21.5 10.6844 21.5 11.9983C21.5 13.302 21.2506 14.5303 20.752 15.6832C20.2533 16.8362 19.5765 17.8444 18.7217 18.708C17.8669 19.5715 16.8616 20.2527 15.706 20.7516C14.5504 21.2505 13.3156 21.5 12.0016 21.5ZM12 20.3654C14.3282 20.3654 16.3045 19.5506 17.9288 17.9211C19.5532 16.2916 20.3654 14.3179 20.3654 12C20.3654 9.67178 19.5532 7.69549 17.9288 6.07113C16.3045 4.44678 14.3282 3.6346 12 3.6346C9.68203 3.6346 7.70831 4.44678 6.07883 6.07113C4.44934 7.69549 3.6346 9.67178 3.6346 12C3.6346 14.3179 4.44934 16.2916 6.07883 17.9211C7.70831 19.5506 9.68203 20.3654 12 20.3654Z" fill="#555555"/>
</g>
</svg>
