<svg width="32" height="32" viewBox="0 0 32 32" fill="none" xmlns="http://www.w3.org/2000/svg">
<path d="M15.9999 17.0666L20.4153 21.482C20.564 21.6307 20.7396 21.7072 20.9422 21.7115C21.1447 21.7158 21.3247 21.6393 21.4819 21.482C21.6392 21.3248 21.7178 21.147 21.7178 20.9487C21.7178 20.7504 21.6392 20.5727 21.4819 20.4154L17.0665 16L21.4819 11.5846C21.6306 11.4359 21.7071 11.2602 21.7114 11.0577C21.7157 10.8551 21.6392 10.6752 21.4819 10.518C21.3247 10.3607 21.1469 10.2821 20.9486 10.2821C20.7503 10.2821 20.5726 10.3607 20.4153 10.518L15.9999 14.9334L11.5845 10.518C11.4358 10.3692 11.2601 10.2927 11.0576 10.2885C10.855 10.2842 10.6751 10.3607 10.5179 10.518C10.3606 10.6752 10.282 10.853 10.282 11.0513C10.282 11.2496 10.3606 11.4273 10.5179 11.5846L14.9333 16L10.5179 20.4154C10.3691 20.5641 10.2926 20.7397 10.2884 20.9423C10.2841 21.1449 10.3606 21.3248 10.5179 21.482C10.6751 21.6393 10.8529 21.7179 11.0512 21.7179C11.2495 21.7179 11.4272 21.6393 11.5845 21.482L15.9999 17.0666ZM16.0021 28.6666C14.2639 28.6666 12.6261 28.3342 11.0889 27.6693C9.55164 27.0044 8.20732 26.0965 7.05592 24.9456C5.9045 23.7947 4.9962 22.451 4.33102 20.9144C3.66584 19.3778 3.33325 17.7404 3.33325 16.0022C3.33325 14.2503 3.6657 12.6036 4.33059 11.0621C4.99547 9.52056 5.90336 8.17965 7.05425 7.03936C8.20516 5.89905 9.5489 4.9963 11.0855 4.33113C12.622 3.66595 14.2594 3.33336 15.9977 3.33336C17.7496 3.33336 19.3963 3.6658 20.9378 4.33069C22.4793 4.99558 23.8202 5.89791 24.9605 7.03769C26.1008 8.17749 27.0036 9.51782 27.6688 11.0587C28.3339 12.5995 28.6665 14.2458 28.6665 15.9978C28.6665 17.736 28.3341 19.3737 27.6692 20.911C27.0043 22.4482 26.102 23.7926 24.9622 24.944C23.8224 26.0954 22.4821 27.0037 20.9412 27.6689C19.4004 28.334 17.754 28.6666 16.0021 28.6666ZM15.9999 27.1538C19.1042 27.1538 21.7392 26.0675 23.905 23.8949C26.0708 21.7222 27.1537 19.0906 27.1537 16C27.1537 12.8957 26.0708 10.2607 23.905 8.09486C21.7392 5.92906 19.1042 4.84616 15.9999 4.84616C12.9093 4.84616 10.2777 5.92906 8.10502 8.09486C5.93237 10.2607 4.84605 12.8957 4.84605 16C4.84605 19.0906 5.93237 21.7222 8.10502 23.8949C10.2777 26.0675 12.9093 27.1538 15.9999 27.1538Z" fill="#555555"/>
</svg>
