<svg width="24" height="13" viewBox="0 0 24 13" fill="none" xmlns="http://www.w3.org/2000/svg">
<g id="Union">
<path d="M1 11.7734C11.907 12.8708 20.2113 9.71588 23 8.00124L22.6901 2.85732C19.6948 3.20025 13.2085 3.50888 11.2254 2C11.5352 8.1727 3.16901 11.2591 1 11.7734Z" fill="#E9E9EB"/>
<path d="M23 8.00124L23.2619 8.42717L23.5171 8.27024L23.4991 7.97117L23 8.00124ZM1 11.7734L0.884623 11.2869L0.949947 12.2709L1 11.7734ZM11.2254 2L11.5281 1.60209L10.6721 0.950732L10.726 2.02507L11.2254 2ZM22.6901 2.85732L23.1892 2.82726L23.1575 2.30055L22.6333 2.36056L22.6901 2.85732ZM22.7381 7.57531C20.0432 9.23228 11.8486 12.3624 1.05005 11.276L0.949947 12.2709C11.9655 13.3792 20.3794 10.1995 23.2619 8.42717L22.7381 7.57531ZM1.11538 12.26C2.24704 11.9916 4.94135 11.0697 7.32669 9.4198C9.70295 7.77614 11.8927 5.32069 11.7247 1.97493L10.726 2.02507C10.8679 4.85201 9.02945 7.02609 6.75782 8.59738C4.49527 10.1624 1.92197 11.0409 0.884623 11.2869L1.11538 12.26ZM10.9226 2.39791C11.5129 2.84707 12.384 3.12806 13.3386 3.30991C14.3077 3.49453 15.4265 3.58812 16.5629 3.62286C18.8364 3.69235 21.2316 3.52757 22.747 3.35407L22.6333 2.36056C21.1534 2.52999 18.8077 2.691 16.5934 2.62332C15.4859 2.58947 14.4242 2.49874 13.5257 2.32757C12.6127 2.15363 11.9293 1.90737 11.5281 1.60209L10.9226 2.39791ZM22.191 2.88738L22.5009 8.0313L23.4991 7.97117L23.1892 2.82726L22.191 2.88738Z" fill="#E9E9EB"/>
</g>
</svg>
