<svg width="25" height="13" viewBox="0 0 25 13" fill="none" xmlns="http://www.w3.org/2000/svg">
<g id="Union">
<path d="M23.9998 11.7934C12.7046 12.893 4.10478 9.73164 1.2168 8.0135L1.53768 2.85907C4.63959 3.2027 11.3568 3.51197 13.4105 2C13.0896 8.18531 21.7536 11.278 23.9998 11.7934Z" fill="#7649BB"/>
<path d="M1.2168 8.0135L0.717763 7.98243L0.698795 8.28712L0.961153 8.4432L1.2168 8.0135ZM23.9998 11.7934L24.0482 12.2911L24.1116 11.3061L23.9998 11.7934ZM13.4105 2L13.9098 2.0259L13.9646 0.971208L13.1141 1.59735L13.4105 2ZM1.53768 2.85907L1.59274 2.36211L1.07125 2.30434L1.03865 2.828L1.53768 2.85907ZM0.961153 8.4432C3.94196 10.2166 12.6485 13.4008 24.0482 12.2911L23.9513 11.2958C12.7606 12.3852 4.2676 9.24671 1.47244 7.58379L0.961153 8.4432ZM24.1116 11.3061C23.0342 11.0588 20.3662 10.1773 18.0206 8.60739C15.6625 7.02911 13.7633 4.85061 13.9098 2.0259L12.9112 1.9741C12.7368 5.3347 15.0092 7.79519 17.4644 9.43843C19.9321 11.0901 22.7192 12.0125 23.888 12.2807L24.1116 11.3061ZM13.1141 1.59735C12.6946 1.90615 11.9821 2.15402 11.0345 2.3287C10.1018 2.50064 9.00032 2.59165 7.8524 2.6256C5.55728 2.69348 3.12648 2.53202 1.59274 2.36211L1.48263 3.35603C3.0508 3.52975 5.52957 3.69474 7.88196 3.62516C9.0578 3.59039 10.2146 3.4967 11.2158 3.31213C12.2023 3.13029 13.0995 2.84983 13.7069 2.40265L13.1141 1.59735ZM1.03865 2.828L0.717763 7.98243L1.71583 8.04456L2.03672 2.89014L1.03865 2.828Z" fill="#7649BB"/>
</g>
</svg>
