<svg width="32" height="32" viewBox="0 0 32 32" fill="none" xmlns="http://www.w3.org/2000/svg">
<path d="M7.85897 22.3333L5.17011 25.0222C5.02595 25.1663 4.85045 25.2017 4.64361 25.1284C4.43678 25.055 4.33337 24.9156 4.33337 24.7102V6.25643C4.33337 5.7342 4.52333 5.28314 4.90324 4.90323C5.28315 4.52331 5.73422 4.33336 6.25644 4.33336H23.0769C23.5991 4.33336 24.0502 4.52331 24.4301 4.90323C24.81 5.28314 25 5.7342 25 6.25643V13.3949C24.8333 13.3675 24.6667 13.3504 24.5 13.3436C24.3333 13.3367 24.1667 13.3333 24 13.3333C23.9188 13.3333 23.8333 13.3352 23.7436 13.3389C23.6539 13.3426 23.5684 13.3433 23.4872 13.341V6.25643C23.4872 6.13676 23.4487 6.03846 23.3718 5.96153C23.2949 5.88459 23.1966 5.84613 23.0769 5.84613H6.25644C6.13677 5.84613 6.03847 5.88459 5.96154 5.96153C5.88461 6.03846 5.84614 6.13676 5.84614 6.25643V20.8205H16.0077C16.01 20.9017 16.0093 20.9872 16.0056 21.0769C16.0019 21.1667 16 21.2521 16 21.3333C16 21.5 16.0034 21.6667 16.0103 21.8333C16.0171 22 16.0342 22.1666 16.0615 22.3333H7.85897ZM10.1667 11.1795H19.1667C19.381 11.1795 19.5606 11.1063 19.7056 10.9601C19.8506 10.8139 19.9231 10.6327 19.9231 10.4166C19.9231 10.2004 19.8506 10.0214 19.7056 9.87949C19.5606 9.73763 19.381 9.66669 19.1667 9.66669H10.1667C9.95236 9.66669 9.77272 9.7398 9.62774 9.88603C9.48276 10.0322 9.41027 10.2134 9.41027 10.4296C9.41027 10.6457 9.48276 10.8248 9.62774 10.9667C9.77272 11.1085 9.95236 11.1795 10.1667 11.1795ZM10.1667 16.7564H15.1667C15.381 16.7564 15.5606 16.6833 15.7056 16.5371C15.8506 16.3908 15.9231 16.2096 15.9231 15.9935C15.9231 15.7773 15.8506 15.5983 15.7056 15.4564C15.5606 15.3145 15.381 15.2436 15.1667 15.2436H10.1667C9.95236 15.2436 9.77272 15.3167 9.62774 15.4629C9.48276 15.6092 9.41027 15.7904 9.41027 16.0065C9.41027 16.2227 9.48276 16.4017 9.62774 16.5436C9.77272 16.6854 9.95236 16.7564 10.1667 16.7564ZM23.2436 22.0897H20C19.7857 22.0897 19.6061 22.0166 19.4611 21.8704C19.3161 21.7241 19.2436 21.5429 19.2436 21.3268C19.2436 21.1106 19.3161 20.9316 19.4611 20.7898C19.6061 20.6479 19.7857 20.5769 20 20.5769H23.2436V17.3333C23.2436 17.119 23.3167 16.9394 23.4629 16.7944C23.6092 16.6494 23.7904 16.5769 24.0065 16.5769C24.2227 16.5769 24.4017 16.6494 24.5436 16.7944C24.6855 16.9394 24.7564 17.119 24.7564 17.3333V20.5769H28C28.2143 20.5769 28.394 20.65 28.5389 20.7963C28.6839 20.9425 28.7564 21.1237 28.7564 21.3399C28.7564 21.556 28.6839 21.735 28.5389 21.8769C28.394 22.0188 28.2143 22.0897 28 22.0897H24.7564V25.3333C24.7564 25.5476 24.6833 25.7273 24.5371 25.8723C24.3908 26.0172 24.2096 26.0897 23.9935 26.0897C23.7773 26.0897 23.5983 26.0172 23.4564 25.8723C23.3146 25.7273 23.2436 25.5476 23.2436 25.3333V22.0897Z" fill="#555555"/>
</svg>
