<svg width="24" height="24" viewBox="0 0 24 24" fill="none" xmlns="http://www.w3.org/2000/svg">
<path d="M9.38164 16.1253L18.4105 4.46764C18.6547 4.15588 18.9436 4 19.2772 4C19.6109 4 19.8981 4.15647 20.1388 4.46941C20.3796 4.78233 20.5 5.15867 20.5 5.59843C20.5 6.03817 20.3796 6.41837 20.1388 6.73904L10.2587 19.5324C10.0117 19.8441 9.71777 20 9.37694 20C9.03612 20 8.74532 19.8441 8.50455 19.5324L3.86115 13.5198C3.62038 13.1977 3.5 12.8165 3.5 12.3764C3.5 11.9362 3.62084 11.5602 3.86252 11.2484C4.10418 10.9367 4.39483 10.7808 4.73445 10.7808C5.07405 10.7808 5.36768 10.9367 5.61533 11.2484L9.38164 16.1253Z" fill="#7649BB"/>
</svg>
