<svg width="207" height="12" viewBox="0 0 207 12" fill="none" xmlns="http://www.w3.org/2000/svg">
<path id="Line 9" d="M1 5C0.447715 5 0 5.44772 0 6C0 6.55228 0.447715 7 1 7V5ZM195.667 6C195.667 8.94552 198.054 11.3333 201 11.3333C203.946 11.3333 206.333 8.94552 206.333 6C206.333 3.05448 203.946 0.666667 201 0.666667C198.054 0.666667 195.667 3.05448 195.667 6ZM3.94118 7C4.49346 7 4.94118 6.55228 4.94118 6C4.94118 5.44772 4.49346 5 3.94118 5V7ZM9.82353 5C9.27124 5 8.82353 5.44772 8.82353 6C8.82353 6.55228 9.27124 7 9.82353 7V5ZM15.7059 7C16.2582 7 16.7059 6.55228 16.7059 6C16.7059 5.44772 16.2582 5 15.7059 5V7ZM21.5882 5C21.0359 5 20.5882 5.44772 20.5882 6C20.5882 6.55228 21.0359 7 21.5882 7V5ZM27.4706 7C28.0229 7 28.4706 6.55228 28.4706 6C28.4706 5.44772 28.0229 5 27.4706 5V7ZM33.3529 5C32.8007 5 32.3529 5.44772 32.3529 6C32.3529 6.55228 32.8007 7 33.3529 7V5ZM39.2353 7C39.7876 7 40.2353 6.55228 40.2353 6C40.2353 5.44772 39.7876 5 39.2353 5V7ZM45.1176 5C44.5654 5 44.1176 5.44772 44.1176 6C44.1176 6.55228 44.5654 7 45.1176 7V5ZM51 7C51.5523 7 52 6.55228 52 6C52 5.44772 51.5523 5 51 5V7ZM56.8824 5C56.3301 5 55.8824 5.44772 55.8824 6C55.8824 6.55228 56.3301 7 56.8824 7V5ZM62.7647 7C63.317 7 63.7647 6.55228 63.7647 6C63.7647 5.44772 63.317 5 62.7647 5V7ZM68.6471 5C68.0948 5 67.6471 5.44772 67.6471 6C67.6471 6.55228 68.0948 7 68.6471 7V5ZM74.5294 7C75.0817 7 75.5294 6.55228 75.5294 6C75.5294 5.44772 75.0817 5 74.5294 5V7ZM80.4118 5C79.8595 5 79.4118 5.44772 79.4118 6C79.4118 6.55228 79.8595 7 80.4118 7V5ZM86.2941 7C86.8464 7 87.2941 6.55228 87.2941 6C87.2941 5.44772 86.8464 5 86.2941 5V7ZM92.1765 5C91.6242 5 91.1765 5.44772 91.1765 6C91.1765 6.55228 91.6242 7 92.1765 7V5ZM98.0588 7C98.6111 7 99.0588 6.55228 99.0588 6C99.0588 5.44772 98.6111 5 98.0588 5V7ZM103.941 5C103.389 5 102.941 5.44772 102.941 6C102.941 6.55228 103.389 7 103.941 7V5ZM109.824 7C110.376 7 110.824 6.55228 110.824 6C110.824 5.44772 110.376 5 109.824 5V7ZM115.706 5C115.154 5 114.706 5.44772 114.706 6C114.706 6.55228 115.154 7 115.706 7V5ZM121.588 7C122.141 7 122.588 6.55228 122.588 6C122.588 5.44772 122.141 5 121.588 5V7ZM127.471 5C126.918 5 126.471 5.44772 126.471 6C126.471 6.55228 126.918 7 127.471 7V5ZM133.353 7C133.905 7 134.353 6.55228 134.353 6C134.353 5.44772 133.905 5 133.353 5V7ZM139.235 5C138.683 5 138.235 5.44772 138.235 6C138.235 6.55228 138.683 7 139.235 7V5ZM145.118 7C145.67 7 146.118 6.55228 146.118 6C146.118 5.44772 145.67 5 145.118 5V7ZM151 5C150.448 5 150 5.44772 150 6C150 6.55228 150.448 7 151 7V5ZM156.882 7C157.435 7 157.882 6.55228 157.882 6C157.882 5.44772 157.435 5 156.882 5V7ZM162.765 5C162.212 5 161.765 5.44772 161.765 6C161.765 6.55228 162.212 7 162.765 7V5ZM168.647 7C169.199 7 169.647 6.55228 169.647 6C169.647 5.44772 169.199 5 168.647 5V7ZM174.529 5C173.977 5 173.529 5.44772 173.529 6C173.529 6.55228 173.977 7 174.529 7V5ZM180.412 7C180.964 7 181.412 6.55228 181.412 6C181.412 5.44772 180.964 5 180.412 5V7ZM186.294 5C185.742 5 185.294 5.44772 185.294 6C185.294 6.55228 185.742 7 186.294 7V5ZM192.177 7C192.729 7 193.177 6.55228 193.177 6C193.177 5.44772 192.729 5 192.177 5V7ZM198.059 5C197.507 5 197.059 5.44772 197.059 6C197.059 6.55228 197.507 7 198.059 7V5ZM1 7H3.94118V5H1V7ZM9.82353 7H15.7059V5H9.82353V7ZM21.5882 7H27.4706V5H21.5882V7ZM33.3529 7H39.2353V5H33.3529V7ZM45.1176 7H51V5H45.1176V7ZM56.8824 7H62.7647V5H56.8824V7ZM68.6471 7H74.5294V5H68.6471V7ZM80.4118 7H86.2941V5H80.4118V7ZM92.1765 7H98.0588V5H92.1765V7ZM103.941 7H109.824V5H103.941V7ZM115.706 7H121.588V5H115.706V7ZM127.471 7H133.353V5H127.471V7ZM139.235 7H145.118V5H139.235V7ZM151 7H156.882V5H151V7ZM162.765 7H168.647V5H162.765V7ZM174.529 7H180.412V5H174.529V7ZM186.294 7H192.177V5H186.294V7ZM198.059 7H201V5H198.059V7Z" fill="#7649BB"/>
</svg>
