<svg width="19" height="13" viewBox="0 0 19 13" fill="none" xmlns="http://www.w3.org/2000/svg">
<path d="M3.125 16.6667C2.94792 16.6667 2.79948 16.6064 2.67969 16.4859C2.5599 16.3654 2.5 16.2161 2.5 16.038C2.5 15.8599 2.5599 15.7118 2.67969 15.5938C2.79948 15.4757 2.94792 15.4167 3.125 15.4167H11.875C12.0521 15.4167 12.2005 15.4769 12.3203 15.5974C12.4401 15.7179 12.5 15.8672 12.5 16.0453C12.5 16.2234 12.4401 16.3715 12.3203 16.4896C12.2005 16.6076 12.0521 16.6667 11.875 16.6667H3.125ZM13.3311 10.625C12.2354 10.625 11.3021 10.2389 10.5312 9.46655C9.76042 8.69425 9.375 7.76022 9.375 6.66447C9.375 5.56872 9.76115 4.63543 10.5335 3.86459C11.3058 3.09376 12.2398 2.70834 13.3355 2.70834C14.4313 2.70834 15.3646 3.0945 16.1354 3.8668C16.9062 4.63911 17.2917 5.57314 17.2917 6.66889C17.2917 7.76464 16.9055 8.69793 16.1332 9.46876C15.3609 10.2396 14.4269 10.625 13.3311 10.625ZM3.125 9.58334C2.94792 9.58334 2.79948 9.5231 2.67969 9.40261C2.5599 9.28211 2.5 9.13281 2.5 8.9547C2.5 8.77657 2.5599 8.62848 2.67969 8.51043C2.79948 8.39237 2.94792 8.33334 3.125 8.33334H7.95833C8.03222 8.56005 8.11667 8.77645 8.21167 8.98253C8.30667 9.18863 8.40972 9.3889 8.52083 9.58334H3.125ZM3.125 13.125C2.94792 13.125 2.79948 13.0648 2.67969 12.9443C2.5599 12.8238 2.5 12.6745 2.5 12.4964C2.5 12.3182 2.5599 12.1701 2.67969 12.0521C2.79948 11.934 2.94792 11.875 3.125 11.875H11.2292C11.4208 11.9634 11.625 12.0376 11.8417 12.0976C12.0583 12.1575 12.2778 12.2014 12.5 12.2292V12.5C12.5 12.6771 12.4401 12.8255 12.3203 12.9453C12.2005 13.0651 12.0521 13.125 11.875 13.125H3.125ZM13.3333 9.16668C13.4444 9.16668 13.5417 9.12501 13.625 9.04168C13.7083 8.95834 13.75 8.86112 13.75 8.75001V6.25001C13.75 6.1389 13.7083 6.04168 13.625 5.95834C13.5417 5.87501 13.4444 5.83334 13.3333 5.83334C13.2222 5.83334 13.125 5.87501 13.0417 5.95834C12.9583 6.04168 12.9167 6.1389 12.9167 6.25001V8.75001C12.9167 8.86112 12.9583 8.95834 13.0417 9.04168C13.125 9.12501 13.2222 9.16668 13.3333 9.16668ZM13.3333 5.00001C13.4444 5.00001 13.5417 4.95834 13.625 4.87501C13.7083 4.79168 13.75 4.69445 13.75 4.58334C13.75 4.47223 13.7083 4.37501 13.625 4.29168C13.5417 4.20834 13.4444 4.16668 13.3333 4.16668C13.2222 4.16668 13.125 4.20834 13.0417 4.29168C12.9583 4.37501 12.9167 4.47223 12.9167 4.58334C12.9167 4.69445 12.9583 4.79168 13.0417 4.87501C13.125 4.95834 13.2222 5.00001 13.3333 5.00001Z" fill="#555555"/>
</svg>
