<svg width="19" height="20" viewBox="0 0 19 20" fill="none" xmlns="http://www.w3.org/2000/svg">
<path d="M3.125 16.6667C2.94792 16.6667 2.79948 16.6065 2.67969 16.486C2.5599 16.3655 2.5 16.2162 2.5 16.0381C2.5 15.8599 2.5599 15.7118 2.67969 15.5938C2.79948 15.4757 2.94792 15.4167 3.125 15.4167H11.875C12.0521 15.4167 12.2005 15.4769 12.3203 15.5974C12.4401 15.7179 12.5 15.8672 12.5 16.0454C12.5 16.2235 12.4401 16.3716 12.3203 16.4896C12.2005 16.6077 12.0521 16.6667 11.875 16.6667H3.125ZM13.3311 10.625C12.2354 10.625 11.3021 10.2389 10.5312 9.46658C9.76042 8.69428 9.375 7.76025 9.375 6.6645C9.375 5.56875 9.76115 4.63546 10.5335 3.86462C11.3058 3.09379 12.2398 2.70837 13.3355 2.70837C14.4313 2.70837 15.3646 3.09453 16.1354 3.86683C16.9062 4.63914 17.2917 5.57317 17.2917 6.66892C17.2917 7.76467 16.9055 8.69796 16.1332 9.46879C15.3609 10.2396 14.4269 10.625 13.3311 10.625ZM3.125 9.58337C2.94792 9.58337 2.79948 9.52313 2.67969 9.40264C2.5599 9.28214 2.5 9.13284 2.5 8.95473C2.5 8.7766 2.5599 8.62851 2.67969 8.51046C2.79948 8.3924 2.94792 8.33337 3.125 8.33337H7.95833C8.03222 8.56008 8.11667 8.77648 8.21167 8.98256C8.30667 9.18866 8.40972 9.38893 8.52083 9.58337H3.125ZM3.125 13.125C2.94792 13.125 2.79948 13.0648 2.67969 12.9443C2.5599 12.8238 2.5 12.6745 2.5 12.4964C2.5 12.3183 2.5599 12.1702 2.67969 12.0521C2.79948 11.9341 2.94792 11.875 3.125 11.875H11.2292C11.4208 11.9634 11.625 12.0376 11.8417 12.0976C12.0583 12.1576 12.2778 12.2014 12.5 12.2292V12.5C12.5 12.6771 12.4401 12.8256 12.3203 12.9454C12.2005 13.0651 12.0521 13.125 11.875 13.125H3.125ZM13.3333 9.16671C13.4444 9.16671 13.5417 9.12504 13.625 9.04171C13.7083 8.95837 13.75 8.86115 13.75 8.75004V6.25004C13.75 6.13893 13.7083 6.04171 13.625 5.95837C13.5417 5.87504 13.4444 5.83337 13.3333 5.83337C13.2222 5.83337 13.125 5.87504 13.0417 5.95837C12.9583 6.04171 12.9167 6.13893 12.9167 6.25004V8.75004C12.9167 8.86115 12.9583 8.95837 13.0417 9.04171C13.125 9.12504 13.2222 9.16671 13.3333 9.16671ZM13.3333 5.00004C13.4444 5.00004 13.5417 4.95837 13.625 4.87504C13.7083 4.79171 13.75 4.69449 13.75 4.58337C13.75 4.47226 13.7083 4.37504 13.625 4.29171C13.5417 4.20837 13.4444 4.16671 13.3333 4.16671C13.2222 4.16671 13.125 4.20837 13.0417 4.29171C12.9583 4.37504 12.9167 4.47226 12.9167 4.58337C12.9167 4.69449 12.9583 4.79171 13.0417 4.87504C13.125 4.95837 13.2222 5.00004 13.3333 5.00004Z" fill="#555555"/>
</svg>
