<svg width="19" height="20" viewBox="0 0 19 20" fill="none" xmlns="http://www.w3.org/2000/svg">
<path d="M3.125 16.6666C2.94792 16.6666 2.79948 16.6064 2.67969 16.4859C2.5599 16.3654 2.5 16.2161 2.5 16.038C2.5 15.8599 2.5599 15.7118 2.67969 15.5937C2.79948 15.4757 2.94792 15.4166 3.125 15.4166H11.875C12.0521 15.4166 12.2005 15.4769 12.3203 15.5974C12.4401 15.7179 12.5 15.8672 12.5 16.0453C12.5 16.2234 12.4401 16.3715 12.3203 16.4896C12.2005 16.6076 12.0521 16.6666 11.875 16.6666H3.125ZM13.3311 10.625C12.2354 10.625 11.3021 10.2388 10.5312 9.46652C9.76042 8.69422 9.375 7.76019 9.375 6.66444C9.375 5.56869 9.76115 4.6354 10.5335 3.86456C11.3058 3.09373 12.2398 2.70831 13.3355 2.70831C14.4313 2.70831 15.3646 3.09447 16.1354 3.86677C16.9062 4.63908 17.2917 5.5731 17.2917 6.66885C17.2917 7.7646 16.9055 8.6979 16.1332 9.46873C15.3609 10.2396 14.4269 10.625 13.3311 10.625ZM3.125 9.58331C2.94792 9.58331 2.79948 9.52307 2.67969 9.40258C2.5599 9.28208 2.5 9.13278 2.5 8.95467C2.5 8.77654 2.5599 8.62845 2.67969 8.5104C2.79948 8.39234 2.94792 8.33331 3.125 8.33331H7.95833C8.03222 8.56002 8.11667 8.77642 8.21167 8.9825C8.30667 9.1886 8.40972 9.38887 8.52083 9.58331H3.125ZM3.125 13.125C2.94792 13.125 2.79948 13.0647 2.67969 12.9443C2.5599 12.8238 2.5 12.6744 2.5 12.4963C2.5 12.3182 2.5599 12.1701 2.67969 12.0521C2.79948 11.934 2.94792 11.875 3.125 11.875H11.2292C11.4208 11.9634 11.625 12.0375 11.8417 12.0975C12.0583 12.1575 12.2778 12.2014 12.5 12.2291V12.5C12.5 12.6771 12.4401 12.8255 12.3203 12.9453C12.2005 13.0651 12.0521 13.125 11.875 13.125H3.125ZM13.3333 9.16665C13.4444 9.16665 13.5417 9.12498 13.625 9.04165C13.7083 8.95831 13.75 8.86109 13.75 8.74998V6.24998C13.75 6.13887 13.7083 6.04165 13.625 5.95831C13.5417 5.87498 13.4444 5.83331 13.3333 5.83331C13.2222 5.83331 13.125 5.87498 13.0417 5.95831C12.9583 6.04165 12.9167 6.13887 12.9167 6.24998V8.74998C12.9167 8.86109 12.9583 8.95831 13.0417 9.04165C13.125 9.12498 13.2222 9.16665 13.3333 9.16665ZM13.3333 4.99998C13.4444 4.99998 13.5417 4.95831 13.625 4.87498C13.7083 4.79165 13.75 4.69442 13.75 4.58331C13.75 4.4722 13.7083 4.37498 13.625 4.29165C13.5417 4.20831 13.4444 4.16665 13.3333 4.16665C13.2222 4.16665 13.125 4.20831 13.0417 4.29165C12.9583 4.37498 12.9167 4.4722 12.9167 4.58331C12.9167 4.69442 12.9583 4.79165 13.0417 4.87498C13.125 4.95831 13.2222 4.99998 13.3333 4.99998Z" fill="#555555"/>
</svg>
