<svg width="20" height="20" viewBox="0 0 20 20" fill="none" xmlns="http://www.w3.org/2000/svg">
<path d="M3.78489 16.255H4.64176L13.8311 7.0557L12.9742 6.19883L3.78489 15.3981V16.255ZM16.5566 6.16485L13.87 3.47827L14.7214 2.62189C14.97 2.37336 15.2771 2.25174 15.6429 2.25702C16.0087 2.26229 16.3196 2.38963 16.5756 2.63904L17.4217 3.48006C17.6777 3.73278 17.8016 4.0394 17.7933 4.39991C17.785 4.76041 17.658 5.06344 17.4125 5.30899L16.5566 6.16485ZM3.1916 17.5598C2.98935 17.5598 2.81937 17.491 2.68166 17.3533C2.54395 17.2157 2.4751 17.0458 2.4751 16.8436V15.1593C2.4751 15.0652 2.49148 14.9776 2.52424 14.8965C2.55701 14.8154 2.61143 14.7369 2.68751 14.6608L12.995 4.35327L15.6866 7.03487L5.3791 17.3474C5.303 17.4235 5.22208 17.4779 5.13633 17.5106C5.05059 17.5434 4.96409 17.5598 4.87683 17.5598H3.1916ZM13.4076 6.62727L12.9742 6.19883L13.8311 7.0557L13.4076 6.62727Z" fill="#555555"/>
</svg>
