<svg width="32" height="30" viewBox="0 0 32 30" fill="none" xmlns="http://www.w3.org/2000/svg">
<path d="M16.7641 27.3333C16.5493 27.3333 16.3696 27.2603 16.2248 27.1144C16.0801 26.9685 16.0077 26.7873 16.0077 26.5708C16.0077 26.3544 16.0801 26.1752 16.2248 26.0333C16.3696 25.8914 16.5493 25.8205 16.7641 25.8205H25.4102C25.5128 25.8205 25.6068 25.7778 25.6923 25.6923C25.7778 25.6068 25.8205 25.5128 25.8205 25.4102V6.58979C25.8205 6.48721 25.7778 6.39318 25.6923 6.30769C25.6068 6.22222 25.5128 6.17949 25.4102 6.17949H16.7641C16.5493 6.17949 16.3696 6.10652 16.2248 5.96059C16.0801 5.81468 16.0077 5.63349 16.0077 5.41702C16.0077 5.20055 16.0801 5.02139 16.2248 4.87952C16.3696 4.73763 16.5493 4.66669 16.7641 4.66669H25.4102C25.9331 4.66669 26.3843 4.85649 26.7639 5.23609C27.1435 5.61569 27.3333 6.06692 27.3333 6.58979V25.4102C27.3333 25.9331 27.1435 26.3843 26.7639 26.7639C26.3843 27.1435 25.9331 27.3333 25.4102 27.3333H16.7641ZM16.9616 16.7564H5.42309C5.20835 16.7564 5.02861 16.6834 4.88385 16.5375C4.73908 16.3916 4.66669 16.2104 4.66669 15.9939C4.66669 15.7775 4.73908 15.5983 4.88385 15.4564C5.02861 15.3145 5.20835 15.2436 5.42309 15.2436H16.9206L14.2078 12.5308C14.059 12.3821 13.9859 12.2064 13.9885 12.0039C13.9911 11.8013 14.071 11.6214 14.2283 11.4641C14.3855 11.3069 14.566 11.2304 14.7696 11.2347C14.9732 11.2389 15.1552 11.3154 15.3154 11.4641L19.1974 15.3462C19.3889 15.5462 19.4846 15.7733 19.4846 16.0275C19.4846 16.2817 19.3889 16.5042 19.1974 16.6949L15.3359 20.5564C15.2002 20.7051 15.0308 20.7778 14.8277 20.7746C14.6247 20.7714 14.4384 20.6918 14.2691 20.5359C14.1205 20.3786 14.0462 20.1974 14.0462 19.9923C14.0462 19.7871 14.1248 19.606 14.2821 19.4487L16.9616 16.7564Z" fill="#555555"/>
</svg>
