<svg width="28" height="28" viewBox="0 0 28 28" fill="none" xmlns="http://www.w3.org/2000/svg">
<g id="forum_FILL0_wght500_GRAD0_opsz48 1">
<path id="Vector" d="M8.22351 21.272C7.90942 21.272 7.61183 21.1252 7.33074 20.8315C7.04964 20.5378 6.90908 20.2368 6.90908 19.9285V16.9446H21.6389V6.88842H24.6811C24.9895 6.88842 25.2808 7.03526 25.555 7.32892C25.8292 7.62259 25.9663 7.93334 25.9663 8.26115V23.5654C25.9663 24.0084 25.7621 24.3136 25.3535 24.4813C24.945 24.6489 24.5837 24.5757 24.2696 24.2616L21.28 21.272H8.22351ZM6.78355 15.1946L3.72992 18.2482C3.41585 18.5623 3.05454 18.6366 2.64599 18.4714C2.23747 18.3061 2.0332 18.0019 2.0332 17.559V3.35607C2.0332 3.04771 2.17031 2.74669 2.44451 2.45302C2.71874 2.15935 3.01237 2.01251 3.3254 2.01251H18.5745C18.9023 2.01251 19.2033 2.15449 19.4776 2.43843C19.7518 2.72238 19.8889 3.02826 19.8889 3.35607V13.851C19.8889 14.164 19.7518 14.4662 19.4776 14.7576C19.2033 15.0489 18.9023 15.1946 18.5745 15.1946H6.78355ZM17.9017 13.2074V4.00664H4.0273V13.2074H17.9017Z" fill="#555555"/>
</g>
</svg>
