<svg width="28" height="28" viewBox="0 0 28 28" fill="none" xmlns="http://www.w3.org/2000/svg">
<path d="M8.22375 21.272C7.90967 21.272 7.61208 21.1251 7.33099 20.8315C7.04988 20.5378 6.90933 20.2368 6.90933 19.9284V16.9445H21.6391V6.88836H24.6814C24.9897 6.88836 25.281 7.03519 25.5553 7.32886C25.8295 7.62253 25.9666 7.93328 25.9666 8.26109V23.5654C25.9666 24.0083 25.7623 24.3136 25.3538 24.4812C24.9452 24.6488 24.5839 24.5756 24.2699 24.2615L21.2803 21.272H8.22375ZM6.78379 15.1945L3.73016 18.2481C3.41609 18.5622 3.05479 18.6366 2.64624 18.4713C2.23771 18.306 2.03345 18.0019 2.03345 17.5589V3.35601C2.03345 3.04764 2.17055 2.74663 2.44476 2.45296C2.71898 2.15929 3.01261 2.01245 3.32565 2.01245H18.5747C18.9026 2.01245 19.2036 2.15443 19.4778 2.43837C19.752 2.72232 19.8891 3.0282 19.8891 3.35601V13.8509C19.8891 14.164 19.752 14.4662 19.4778 14.7575C19.2036 15.0489 18.9026 15.1945 18.5747 15.1945H6.78379ZM17.902 13.2074V4.00658H4.02754V13.2074H17.902Z" fill="#555555"/>
</svg>
