<svg width="28" height="28" viewBox="0 0 28 28" fill="none" xmlns="http://www.w3.org/2000/svg">
<path d="M8.22375 21.272C7.90967 21.272 7.61208 21.1252 7.33099 20.8315C7.04988 20.5378 6.90933 20.2368 6.90933 19.9285V16.9446H21.6391V6.88842H24.6814C24.9897 6.88842 25.281 7.03526 25.5553 7.32892C25.8295 7.62259 25.9666 7.93334 25.9666 8.26115V23.5654C25.9666 24.0084 25.7623 24.3136 25.3538 24.4813C24.9452 24.6489 24.5839 24.5757 24.2699 24.2616L21.2803 21.272H8.22375ZM6.78379 15.1946L3.73016 18.2482C3.41609 18.5623 3.05479 18.6366 2.64624 18.4714C2.23771 18.3061 2.03345 18.0019 2.03345 17.559V3.35607C2.03345 3.04771 2.17055 2.74669 2.44476 2.45302C2.71898 2.15935 3.01261 2.01251 3.32565 2.01251H18.5747C18.9026 2.01251 19.2036 2.15449 19.4778 2.43843C19.752 2.72238 19.8891 3.02826 19.8891 3.35607V13.851C19.8891 14.164 19.752 14.4662 19.4778 14.7576C19.2036 15.0489 18.9026 15.1946 18.5747 15.1946H6.78379ZM17.902 13.2074V4.00664H4.02754V13.2074H17.902Z" fill="#555555"/>
</svg>
