<svg width="12" height="12" viewBox="0 0 12 12" fill="none" xmlns="http://www.w3.org/2000/svg">
<g id="stadia_controller_FILL0_wght500_GRAD0_opsz48 1">
<path id="Vector" d="M2.3623 11.2688C1.84039 11.2688 1.39606 11.083 1.02933 10.7115C0.662596 10.3401 0.471505 9.89028 0.456055 9.36222C0.456055 9.28542 0.460221 9.20802 0.468555 9.13003C0.476888 9.05204 0.490384 8.97455 0.509042 8.89756L1.55904 4.69457C1.67969 4.23062 1.9254 3.85408 2.29615 3.56496C2.66691 3.27582 3.08896 3.13126 3.5623 3.13126H8.4373C8.91065 3.13126 9.3327 3.27582 9.70345 3.56496C10.0742 3.85408 10.3209 4.23062 10.4436 4.69457L11.4936 8.89457C11.5102 8.97355 11.5248 9.05364 11.5373 9.13484C11.5498 9.21604 11.5561 9.29605 11.5561 9.37487C11.5561 9.90307 11.3683 10.3508 10.9929 10.718C10.6175 11.0852 10.1656 11.2688 9.63725 11.2688C9.27334 11.2688 8.9359 11.1736 8.62494 10.9833C8.31398 10.793 8.08051 10.5335 7.92453 10.2049L7.57453 9.47989C7.53885 9.40852 7.48555 9.35548 7.41465 9.32079C7.34376 9.2861 7.26798 9.26876 7.1873 9.26876H4.8123C4.73163 9.26876 4.65585 9.2861 4.58495 9.32079C4.51405 9.35548 4.46076 9.40852 4.42508 9.47989L4.07508 10.2049C3.9191 10.5335 3.68555 10.793 3.37443 10.9833C3.06331 11.1736 2.72594 11.2688 2.3623 11.2688ZM2.39559 10.4171C2.59254 10.4171 2.77361 10.3646 2.93879 10.2594C3.10398 10.1543 3.23103 10.0129 3.31992 9.83506L3.66992 9.12256C3.77818 8.9004 3.9335 8.72728 4.1359 8.60322C4.3383 8.47916 4.56376 8.41713 4.8123 8.41713H7.1873C7.43576 8.41713 7.66066 8.48131 7.86199 8.60966C8.06333 8.73801 8.22439 8.90897 8.34518 9.12256L8.69518 9.83506C8.78208 10.0129 8.90813 10.1543 9.07332 10.2594C9.2385 10.3646 9.41923 10.4171 9.61549 10.4171C9.90504 10.4171 10.1548 10.318 10.3646 10.1198C10.5745 9.92165 10.6836 9.67754 10.6919 9.38751C10.6919 9.34421 10.6794 9.24719 10.6544 9.09647L9.60443 4.90897C9.53975 4.64194 9.4003 4.42084 9.18608 4.24566C8.97186 4.07047 8.72227 3.98288 8.4373 3.98288H3.5623C3.28198 3.98288 3.03346 4.06833 2.81675 4.23922C2.60005 4.4101 2.45952 4.63335 2.39518 4.90897L1.34518 9.09647C1.34084 9.11984 1.32834 9.21269 1.30768 9.37501C1.30768 9.67035 1.41421 9.91787 1.62727 10.1176C1.84033 10.3173 2.09643 10.4171 2.39559 10.4171ZM6.75199 6.57501C6.85887 6.57501 6.94772 6.53886 7.01855 6.46657C7.08939 6.39427 7.1248 6.30469 7.1248 6.19782C7.1248 6.09094 7.08866 6.00209 7.01637 5.93126C6.94407 5.86042 6.85448 5.82501 6.74762 5.82501C6.64074 5.82501 6.55189 5.86115 6.48105 5.93344C6.41022 6.00574 6.3748 6.09533 6.3748 6.20219C6.3748 6.30907 6.41095 6.39792 6.48324 6.46876C6.55554 6.53959 6.64513 6.57501 6.75199 6.57501ZM7.75199 5.57501C7.85887 5.57501 7.94772 5.53886 8.01855 5.46657C8.08939 5.39427 8.1248 5.30469 8.1248 5.19782C8.1248 5.09094 8.08866 5.00209 8.01637 4.93126C7.94407 4.86042 7.85448 4.82501 7.74762 4.82501C7.64074 4.82501 7.55189 4.86115 7.48105 4.93344C7.41022 5.00574 7.3748 5.09533 7.3748 5.20219C7.3748 5.30907 7.41095 5.39792 7.48324 5.46876C7.55554 5.53959 7.64513 5.57501 7.75199 5.57501ZM7.75199 7.57501C7.85887 7.57501 7.94772 7.53886 8.01855 7.46657C8.08939 7.39427 8.1248 7.30469 8.1248 7.19782C8.1248 7.09094 8.08866 7.00209 8.01637 6.93126C7.94407 6.86042 7.85448 6.82501 7.74762 6.82501C7.64074 6.82501 7.55189 6.86115 7.48105 6.93344C7.41022 7.00574 7.3748 7.09533 7.3748 7.20219C7.3748 7.30907 7.41095 7.39792 7.48324 7.46876C7.55554 7.53959 7.64513 7.57501 7.75199 7.57501ZM8.75199 6.57501C8.85887 6.57501 8.94772 6.53886 9.01855 6.46657C9.08939 6.39427 9.1248 6.30469 9.1248 6.19782C9.1248 6.09094 9.08866 6.00209 9.01637 5.93126C8.94407 5.86042 8.85448 5.82501 8.74762 5.82501C8.64074 5.82501 8.55189 5.86115 8.48106 5.93344C8.41022 6.00574 8.3748 6.09533 8.3748 6.20219C8.3748 6.30907 8.41095 6.39792 8.48324 6.46876C8.55554 6.53959 8.64513 6.57501 8.75199 6.57501ZM4.25125 7.38751C4.34195 7.38751 4.41647 7.35799 4.4748 7.29897C4.53314 7.23993 4.5623 7.16528 4.5623 7.07501V6.51251H5.1248C5.21508 6.51251 5.28973 6.48286 5.34877 6.42356C5.40779 6.36425 5.4373 6.28925 5.4373 6.19856C5.4373 6.10786 5.40779 6.03334 5.34877 5.97501C5.28973 5.91667 5.21508 5.88751 5.1248 5.88751H4.5623V5.32501C4.5623 5.23473 4.53265 5.16008 4.47335 5.10104C4.41405 5.04202 4.33905 5.01251 4.24835 5.01251C4.15765 5.01251 4.08314 5.04202 4.0248 5.10104C3.96647 5.16008 3.9373 5.23473 3.9373 5.32501V5.88751H3.3748C3.28453 5.88751 3.20988 5.91716 3.15084 5.97646C3.09182 6.03576 3.0623 6.11076 3.0623 6.20146C3.0623 6.29216 3.09182 6.36667 3.15084 6.42501C3.20988 6.48334 3.28453 6.51251 3.3748 6.51251H3.9373V7.07501C3.9373 7.16528 3.96695 7.23993 4.02625 7.29897C4.08556 7.35799 4.16056 7.38751 4.25125 7.38751Z" fill="#555555"/>
</g>
</svg>
