<svg width="28" height="28" viewBox="0 0 28 28" fill="none" xmlns="http://www.w3.org/2000/svg">
<g id="group_add_FILL0_wght500_GRAD0_opsz48 1">
<path id="Vector" d="M22.125 16.1125V12.3208H18.3333V10.5708H22.125V6.77917H23.875V10.5708H27.6667V12.3208H23.875V16.1125H22.125ZM11.3333 13.75C10.05 13.75 9 13.3417 8.18333 12.525C7.36667 11.7083 6.95833 10.6583 6.95833 9.375C6.95833 8.09167 7.36667 7.04167 8.18333 6.225C9 5.40833 10.05 5 11.3333 5C12.6167 5 13.6667 5.40833 14.4833 6.225C15.3 7.04167 15.7083 8.09167 15.7083 9.375C15.7083 10.6583 15.3 11.7083 14.4833 12.525C13.6667 13.3417 12.6167 13.75 11.3333 13.75ZM2 23.1125V20.3708C2 19.6903 2.17014 19.0729 2.51042 18.5188C2.85069 17.9646 3.34167 17.5514 3.98333 17.2792C5.44167 16.6375 6.73801 16.1854 7.87236 15.9229C9.00673 15.6604 10.1588 15.5292 11.3286 15.5292C12.4984 15.5292 13.6472 15.6604 14.775 15.9229C15.9028 16.1854 17.1958 16.6375 18.6542 17.2792C19.2958 17.5708 19.7917 17.9889 20.1417 18.5333C20.4917 19.0778 20.6667 19.6903 20.6667 20.3708V23.1125H2ZM3.75 21.3625H18.9167V20.3708C18.9167 20.0597 18.8292 19.7632 18.6542 19.4813C18.4792 19.1993 18.2458 18.9903 17.9542 18.8542C16.5736 18.2125 15.4069 17.7896 14.4542 17.5854C13.5014 17.3813 12.4611 17.2792 11.3333 17.2792C10.2056 17.2792 9.16042 17.3813 8.19792 17.5854C7.23542 17.7896 6.06389 18.2125 4.68333 18.8542C4.39167 18.9903 4.16319 19.1993 3.99792 19.4813C3.83264 19.7632 3.75 20.0597 3.75 20.3708V21.3625ZM11.3333 12C12.0917 12 12.7188 11.7521 13.2146 11.2563C13.7104 10.7604 13.9583 10.1333 13.9583 9.375C13.9583 8.61667 13.7104 7.98958 13.2146 7.49375C12.7188 6.99792 12.0917 6.75 11.3333 6.75C10.575 6.75 9.94792 6.99792 9.45208 7.49375C8.95625 7.98958 8.70833 8.61667 8.70833 9.375C8.70833 10.1333 8.95625 10.7604 9.45208 11.2563C9.94792 11.7521 10.575 12 11.3333 12Z" fill="#555555"/>
</g>
</svg>
