<svg width="28" height="28" viewBox="0 0 28 28" fill="none" xmlns="http://www.w3.org/2000/svg">
<path d="M1.94144 23.5984C1.65611 23.5984 1.41918 23.5041 1.23065 23.3156C1.04213 23.1271 0.947876 22.8902 0.947876 22.6048V20.6712C0.947876 19.9548 1.13147 19.3072 1.49866 18.7285C1.86583 18.1497 2.3759 17.7146 3.02886 17.4233C4.4576 16.8011 5.74763 16.3515 6.89896 16.0746C8.0503 15.7978 9.23588 15.6593 10.4557 15.6593C11.6844 15.6593 12.8685 15.7966 14.0079 16.0712C15.1473 16.3457 16.4314 16.7964 17.8601 17.4233C18.5118 17.7087 19.0264 18.1409 19.404 18.72C19.7815 19.2992 19.9703 19.9486 19.9703 20.6684V22.6048C19.9703 22.8902 19.876 23.1271 19.6875 23.3156C19.4989 23.5041 19.262 23.5984 18.9767 23.5984H1.94144ZM21.0995 23.5984C21.3032 23.5456 21.4704 23.4264 21.6011 23.2411C21.7317 23.0557 21.797 22.8242 21.797 22.5465V20.6846C21.797 19.447 21.487 18.4256 20.8671 17.6204C20.2472 16.8152 19.4271 16.144 18.4067 15.6067C19.7111 15.7669 20.9413 15.9954 22.0972 16.2921C23.2531 16.5889 24.1958 16.927 24.9254 17.3066C25.581 17.6761 26.0994 18.1512 26.4804 18.7319C26.8615 19.3127 27.052 19.9698 27.052 20.7033V22.6048C27.052 22.8902 26.9578 23.1271 26.7692 23.3156C26.5807 23.5041 26.3438 23.5984 26.0585 23.5984H21.0995ZM10.4573 13.8802C9.14492 13.8802 8.07341 13.4649 7.2428 12.6343C6.41219 11.8036 5.99689 10.7315 5.99689 9.41799C5.99689 8.10444 6.4123 7.03235 7.24312 6.20172C8.07394 5.37111 9.14487 4.95581 10.4559 4.95581C11.7669 4.95581 12.8389 5.37119 13.6718 6.20196C14.5048 7.03272 14.9212 8.10356 14.9212 9.41449C14.9212 10.7304 14.5054 11.8036 13.6736 12.6343C12.8418 13.4649 11.7697 13.8802 10.4573 13.8802ZM21.2136 9.41443C21.2136 10.7257 20.7973 11.7978 19.9646 12.6308C19.1319 13.4637 18.0591 13.8802 16.7462 13.8802C16.5274 13.8802 16.2895 13.8644 16.0323 13.8329C15.7752 13.8014 15.5327 13.7445 15.3048 13.6621C15.7808 13.1667 16.1403 12.5586 16.3834 11.8379C16.6265 11.1173 16.748 10.311 16.748 9.41901C16.748 8.52705 16.6261 7.73873 16.3823 7.05403C16.1385 6.36933 15.7794 5.74233 15.3048 5.17301C15.5234 5.11064 15.7633 5.05884 16.0246 5.01761C16.2859 4.97641 16.5264 4.95581 16.7462 4.95581C18.0574 4.95581 19.1298 5.37233 19.9633 6.20537C20.7969 7.03843 21.2136 8.10812 21.2136 9.41443ZM2.935 21.6113H17.9761V20.6963C17.9761 20.3882 17.8838 20.0895 17.6991 19.8003C17.5143 19.5111 17.2859 19.3089 17.0136 19.1936C15.6322 18.5853 14.4721 18.1766 13.5333 17.9673C12.5945 17.7581 11.5685 17.6535 10.4556 17.6535C9.35188 17.6535 8.32228 17.7581 7.36676 17.9673C6.41124 18.1766 5.2451 18.5853 3.86833 19.1936C3.60078 19.3082 3.37833 19.5102 3.201 19.7996C3.02367 20.089 2.935 20.3879 2.935 20.6963V21.6113ZM10.4545 11.9698C11.1933 11.9698 11.8041 11.7291 12.2868 11.2478C12.7695 10.7664 13.0108 10.1568 13.0108 9.41884C13.0108 8.68086 12.7702 8.07094 12.2888 7.58906C11.8075 7.10717 11.1979 6.86623 10.4599 6.86623C9.72193 6.86623 9.11201 7.10652 8.63011 7.58711C8.14824 8.0677 7.90731 8.67646 7.90731 9.41338C7.90731 10.1522 8.1476 10.763 8.62819 11.2457C9.10878 11.7284 9.71754 11.9698 10.4545 11.9698Z" fill="#555555"/>
</svg>
