<svg width="28" height="28" viewBox="0 0 28 28" fill="none" xmlns="http://www.w3.org/2000/svg">
<g id="group_FILL0_wght500_GRAD0_opsz48 1">
<path id="Vector" d="M1.9418 23.5984C1.65648 23.5984 1.41955 23.5041 1.23101 23.3156C1.0425 23.1271 0.948242 22.8902 0.948242 22.6048V20.6712C0.948242 19.9548 1.13184 19.3072 1.49903 18.7285C1.8662 18.1497 2.37626 17.7146 3.02923 17.4233C4.45796 16.8011 5.748 16.3515 6.89932 16.0746C8.05067 15.7978 9.23624 15.6593 10.4561 15.6593C11.6848 15.6593 12.8689 15.7966 14.0083 16.0712C15.1477 16.3457 16.4317 16.7964 17.8605 17.4233C18.5122 17.7087 19.0268 18.1409 19.4043 18.72C19.7819 19.2992 19.9706 19.9486 19.9706 20.6684V22.6048C19.9706 22.8902 19.8764 23.1271 19.6878 23.3156C19.4993 23.5041 19.2624 23.5984 18.977 23.5984H1.9418ZM21.0999 23.5984C21.3036 23.5456 21.4708 23.4264 21.6014 23.2411C21.732 23.0557 21.7973 22.8242 21.7973 22.5465V20.6846C21.7973 19.447 21.4874 18.4256 20.8675 17.6204C20.2476 16.8152 19.4274 16.144 18.407 15.6067C19.7115 15.7669 20.9417 15.9954 22.0976 16.2921C23.2535 16.5889 24.1962 16.927 24.9258 17.3066C25.5814 17.6761 26.0997 18.1512 26.4808 18.7319C26.8619 19.3127 27.0524 19.9698 27.0524 20.7033V22.6048C27.0524 22.8902 26.9581 23.1271 26.7696 23.3156C26.5811 23.5041 26.3442 23.5984 26.0588 23.5984H21.0999ZM10.4577 13.8802C9.14528 13.8802 8.07378 13.4649 7.24317 12.6343C6.41256 11.8036 5.99725 10.7315 5.99725 9.41799C5.99725 8.10444 6.41267 7.03235 7.24349 6.20172C8.07431 5.37111 9.14523 4.95581 10.4563 4.95581C11.7673 4.95581 12.8393 5.37119 13.6722 6.20196C14.5051 7.03272 14.9216 8.10356 14.9216 9.41449C14.9216 10.7304 14.5057 11.8036 13.6739 12.6343C12.8421 13.4649 11.7701 13.8802 10.4577 13.8802ZM21.214 9.41443C21.214 10.7257 20.7977 11.7978 19.965 12.6308C19.1323 13.4637 18.0595 13.8802 16.7466 13.8802C16.5278 13.8802 16.2898 13.8644 16.0327 13.8329C15.7756 13.8014 15.5331 13.7445 15.3052 13.6621C15.7812 13.1667 16.1407 12.5586 16.3838 11.8379C16.6268 11.1173 16.7484 10.311 16.7484 9.41901C16.7484 8.52705 16.6265 7.73873 16.3827 7.05403C16.1389 6.36933 15.7797 5.74233 15.3052 5.17301C15.5238 5.11064 15.7637 5.05884 16.025 5.01761C16.2863 4.97641 16.5268 4.95581 16.7466 4.95581C18.0578 4.95581 19.1301 5.37233 19.9637 6.20537C20.7972 7.03843 21.214 8.10812 21.214 9.41443ZM2.93537 21.6113H17.9765V20.6963C17.9765 20.3882 17.8841 20.0895 17.6994 19.8003C17.5147 19.5111 17.2862 19.3089 17.014 19.1936C15.6326 18.5853 14.4725 18.1766 13.5337 17.9673C12.5948 17.7581 11.5689 17.6535 10.4559 17.6535C9.35225 17.6535 8.32265 17.7581 7.36713 17.9673C6.41161 18.1766 5.24546 18.5853 3.8687 19.1936C3.60115 19.3082 3.3787 19.5102 3.20137 19.7996C3.02403 20.089 2.93537 20.3879 2.93537 20.6963V21.6113ZM10.4548 11.9698C11.1937 11.9698 11.8044 11.7291 12.2871 11.2478C12.7698 10.7664 13.0112 10.1568 13.0112 9.41884C13.0112 8.68086 12.7705 8.07094 12.2892 7.58906C11.8079 7.10717 11.1982 6.86623 10.4603 6.86623C9.7223 6.86623 9.11237 7.10652 8.63048 7.58711C8.14861 8.0677 7.90767 8.67646 7.90767 9.41338C7.90767 10.1522 8.14797 10.763 8.62856 11.2457C9.10914 11.7284 9.7179 11.9698 10.4548 11.9698Z" fill="#555555"/>
</g>
</svg>
