<svg width="28" height="28" viewBox="0 0 28 28" fill="none" xmlns="http://www.w3.org/2000/svg">
<path d="M1.9415 23.5984C1.65617 23.5984 1.41924 23.5041 1.23071 23.3156C1.04219 23.1271 0.947937 22.8902 0.947937 22.6048V20.6712C0.947937 19.9548 1.13153 19.3072 1.49872 18.7285C1.86589 18.1497 2.37596 17.7146 3.02892 17.4233C4.45766 16.8011 5.74769 16.3515 6.89902 16.0746C8.05036 15.7978 9.23594 15.6593 10.4557 15.6593C11.6845 15.6593 12.8685 15.7966 14.008 16.0712C15.1474 16.3457 16.4314 16.7964 17.8602 17.4233C18.5119 17.7087 19.0265 18.1409 19.404 18.72C19.7816 19.2992 19.9703 19.9486 19.9703 20.6684V22.6048C19.9703 22.8902 19.8761 23.1271 19.6875 23.3156C19.499 23.5041 19.2621 23.5984 18.9767 23.5984H1.9415ZM21.0996 23.5984C21.3033 23.5456 21.4705 23.4264 21.6011 23.2411C21.7317 23.0557 21.797 22.8242 21.797 22.5465V20.6846C21.797 19.447 21.4871 18.4256 20.8672 17.6204C20.2473 16.8152 19.4271 16.144 18.4067 15.6067C19.7112 15.7669 20.9414 15.9954 22.0973 16.2921C23.2531 16.5889 24.1959 16.927 24.9255 17.3066C25.5811 17.6761 26.0994 18.1512 26.4805 18.7319C26.8616 19.3127 27.0521 19.9698 27.0521 20.7033V22.6048C27.0521 22.8902 26.9578 23.1271 26.7693 23.3156C26.5808 23.5041 26.3439 23.5984 26.0585 23.5984H21.0996ZM10.4574 13.8802C9.14498 13.8802 8.07347 13.4649 7.24286 12.6343C6.41225 11.8036 5.99695 10.7315 5.99695 9.41799C5.99695 8.10444 6.41236 7.03235 7.24318 6.20172C8.07401 5.37111 9.14493 4.95581 10.456 4.95581C11.767 4.95581 12.839 5.37119 13.6719 6.20196C14.5048 7.03272 14.9213 8.10356 14.9213 9.41449C14.9213 10.7304 14.5054 11.8036 13.6736 12.6343C12.8418 13.4649 11.7698 13.8802 10.4574 13.8802ZM21.2137 9.41443C21.2137 10.7257 20.7974 11.7978 19.9647 12.6308C19.132 13.4637 18.0592 13.8802 16.7463 13.8802C16.5275 13.8802 16.2895 13.8644 16.0324 13.8329C15.7753 13.8014 15.5328 13.7445 15.3049 13.6621C15.7809 13.1667 16.1404 12.5586 16.3835 11.8379C16.6265 11.1173 16.748 10.311 16.748 9.41901C16.748 8.52705 16.6262 7.73873 16.3824 7.05403C16.1386 6.36933 15.7794 5.74233 15.3049 5.17301C15.5234 5.11064 15.7634 5.05884 16.0247 5.01761C16.2859 4.97641 16.5265 4.95581 16.7463 4.95581C18.0575 4.95581 19.1298 5.37233 19.9634 6.20537C20.7969 7.03843 21.2137 8.10812 21.2137 9.41443ZM2.93506 21.6113H17.9762V20.6963C17.9762 20.3882 17.8838 20.0895 17.6991 19.8003C17.5144 19.5111 17.2859 19.3089 17.0137 19.1936C15.6323 18.5853 14.4722 18.1766 13.5334 17.9673C12.5945 17.7581 11.5686 17.6535 10.4556 17.6535C9.35194 17.6535 8.32234 17.7581 7.36682 17.9673C6.4113 18.1766 5.24516 18.5853 3.8684 19.1936C3.60084 19.3082 3.3784 19.5102 3.20106 19.7996C3.02373 20.089 2.93506 20.3879 2.93506 20.6963V21.6113ZM10.4545 11.9698C11.1934 11.9698 11.8041 11.7291 12.2868 11.2478C12.7695 10.7664 13.0109 10.1568 13.0109 9.41884C13.0109 8.68086 12.7702 8.07094 12.2889 7.58906C11.8076 7.10717 11.1979 6.86623 10.4599 6.86623C9.72199 6.86623 9.11207 7.10652 8.63017 7.58711C8.1483 8.0677 7.90737 8.67646 7.90737 9.41338C7.90737 10.1522 8.14766 10.763 8.62825 11.2457C9.10884 11.7284 9.7176 11.9698 10.4545 11.9698Z" fill="#555555"/>
</svg>
