<svg width="20" height="20" viewBox="0 0 20 20" fill="none" xmlns="http://www.w3.org/2000/svg">
<g id="data_info_alert_FILL0_wght400_GRAD0_opsz48 1">
<path id="Vector" d="M3.125 16.6667C2.94792 16.6667 2.79948 16.6064 2.67969 16.4859C2.5599 16.3654 2.5 16.2161 2.5 16.038C2.5 15.8599 2.5599 15.7118 2.67969 15.5937C2.79948 15.4757 2.94792 15.4167 3.125 15.4167H11.875C12.0521 15.4167 12.2005 15.4769 12.3203 15.5974C12.4401 15.7179 12.5 15.8672 12.5 16.0453C12.5 16.2234 12.4401 16.3715 12.3203 16.4896C12.2005 16.6076 12.0521 16.6667 11.875 16.6667H3.125ZM13.3311 10.625C12.2354 10.625 11.3021 10.2388 10.5312 9.46654C9.76042 8.69423 9.375 7.7602 9.375 6.66445C9.375 5.5687 9.76115 4.63541 10.5335 3.86458C11.3058 3.09374 12.2398 2.70833 13.3355 2.70833C14.4313 2.70833 15.3646 3.09448 16.1354 3.86679C16.9062 4.63909 17.2917 5.57312 17.2917 6.66887C17.2917 7.76462 16.9055 8.69791 16.1332 9.46874C15.3609 10.2396 14.4269 10.625 13.3311 10.625ZM3.125 9.58333C2.94792 9.58333 2.79948 9.52309 2.67969 9.4026C2.5599 9.2821 2.5 9.13279 2.5 8.95468C2.5 8.77656 2.5599 8.62847 2.67969 8.51041C2.79948 8.39236 2.94792 8.33333 3.125 8.33333H7.95833C8.03222 8.56004 8.11667 8.77643 8.21167 8.98252C8.30667 9.18861 8.40972 9.38888 8.52083 9.58333H3.125ZM3.125 13.125C2.94792 13.125 2.79948 13.0648 2.67969 12.9443C2.5599 12.8238 2.5 12.6745 2.5 12.4963C2.5 12.3182 2.5599 12.1701 2.67969 12.0521C2.79948 11.934 2.94792 11.875 3.125 11.875H11.2292C11.4208 11.9634 11.625 12.0376 11.8417 12.0975C12.0583 12.1575 12.2778 12.2014 12.5 12.2292V12.5C12.5 12.6771 12.4401 12.8255 12.3203 12.9453C12.2005 13.0651 12.0521 13.125 11.875 13.125H3.125ZM13.3333 9.16666C13.4444 9.16666 13.5417 9.12499 13.625 9.04166C13.7083 8.95833 13.75 8.86111 13.75 8.74999V6.24999C13.75 6.13888 13.7083 6.04166 13.625 5.95833C13.5417 5.87499 13.4444 5.83333 13.3333 5.83333C13.2222 5.83333 13.125 5.87499 13.0417 5.95833C12.9583 6.04166 12.9167 6.13888 12.9167 6.24999V8.74999C12.9167 8.86111 12.9583 8.95833 13.0417 9.04166C13.125 9.12499 13.2222 9.16666 13.3333 9.16666ZM13.3333 4.99999C13.4444 4.99999 13.5417 4.95833 13.625 4.87499C13.7083 4.79166 13.75 4.69444 13.75 4.58333C13.75 4.47222 13.7083 4.37499 13.625 4.29166C13.5417 4.20833 13.4444 4.16666 13.3333 4.16666C13.2222 4.16666 13.125 4.20833 13.0417 4.29166C12.9583 4.37499 12.9167 4.47222 12.9167 4.58333C12.9167 4.69444 12.9583 4.79166 13.0417 4.87499C13.125 4.95833 13.2222 4.99999 13.3333 4.99999Z" fill="#555555"/>
</g>
</svg>
