<svg width="228" height="12" viewBox="0 0 228 12" fill="none" xmlns="http://www.w3.org/2000/svg">
<path d="M1 5C0.447715 5 0 5.44772 0 6C0 6.55228 0.447715 7 1 7V5ZM216.667 6C216.667 8.94552 219.054 11.3333 222 11.3333C224.946 11.3333 227.333 8.94552 227.333 6C227.333 3.05448 224.946 0.666667 222 0.666667C219.054 0.666667 216.667 3.05448 216.667 6ZM4.06944 7C4.62173 7 5.06944 6.55228 5.06944 6C5.06944 5.44772 4.62173 5 4.06944 5V7ZM10.2083 5C9.65605 5 9.20833 5.44772 9.20833 6C9.20833 6.55228 9.65605 7 10.2083 7V5ZM16.3472 7C16.8995 7 17.3472 6.55228 17.3472 6C17.3472 5.44772 16.8995 5 16.3472 5V7ZM22.4861 5C21.9338 5 21.4861 5.44772 21.4861 6C21.4861 6.55228 21.9338 7 22.4861 7V5ZM28.625 7C29.1773 7 29.625 6.55228 29.625 6C29.625 5.44772 29.1773 5 28.625 5V7ZM34.7639 5C34.2116 5 33.7639 5.44772 33.7639 6C33.7639 6.55228 34.2116 7 34.7639 7V5ZM40.9028 7C41.4551 7 41.9028 6.55228 41.9028 6C41.9028 5.44772 41.4551 5 40.9028 5V7ZM47.0417 5C46.4894 5 46.0417 5.44772 46.0417 6C46.0417 6.55228 46.4894 7 47.0417 7V5ZM53.1806 7C53.7328 7 54.1806 6.55228 54.1806 6C54.1806 5.44772 53.7328 5 53.1806 5V7ZM59.3194 5C58.7672 5 58.3194 5.44772 58.3194 6C58.3194 6.55228 58.7672 7 59.3194 7V5ZM65.4583 7C66.0106 7 66.4583 6.55228 66.4583 6C66.4583 5.44772 66.0106 5 65.4583 5V7ZM71.5972 5C71.0449 5 70.5972 5.44772 70.5972 6C70.5972 6.55228 71.0449 7 71.5972 7V5ZM77.7361 7C78.2884 7 78.7361 6.55228 78.7361 6C78.7361 5.44772 78.2884 5 77.7361 5V7ZM83.875 5C83.3227 5 82.875 5.44772 82.875 6C82.875 6.55228 83.3227 7 83.875 7V5ZM90.0139 7C90.5662 7 91.0139 6.55228 91.0139 6C91.0139 5.44772 90.5662 5 90.0139 5V7ZM96.1528 5C95.6005 5 95.1528 5.44772 95.1528 6C95.1528 6.55228 95.6005 7 96.1528 7V5ZM102.292 7C102.844 7 103.292 6.55228 103.292 6C103.292 5.44772 102.844 5 102.292 5V7ZM108.431 5C107.878 5 107.431 5.44772 107.431 6C107.431 6.55228 107.878 7 108.431 7V5ZM114.569 7C115.122 7 115.569 6.55228 115.569 6C115.569 5.44772 115.122 5 114.569 5V7ZM120.708 5C120.156 5 119.708 5.44772 119.708 6C119.708 6.55228 120.156 7 120.708 7V5ZM126.847 7C127.399 7 127.847 6.55228 127.847 6C127.847 5.44772 127.399 5 126.847 5V7ZM132.986 5C132.434 5 131.986 5.44772 131.986 6C131.986 6.55228 132.434 7 132.986 7V5ZM139.125 7C139.677 7 140.125 6.55228 140.125 6C140.125 5.44772 139.677 5 139.125 5V7ZM145.264 5C144.712 5 144.264 5.44772 144.264 6C144.264 6.55228 144.712 7 145.264 7V5ZM151.403 7C151.955 7 152.403 6.55228 152.403 6C152.403 5.44772 151.955 5 151.403 5V7ZM157.542 5C156.989 5 156.542 5.44772 156.542 6C156.542 6.55228 156.989 7 157.542 7V5ZM163.681 7C164.233 7 164.681 6.55228 164.681 6C164.681 5.44772 164.233 5 163.681 5V7ZM169.819 5C169.267 5 168.819 5.44772 168.819 6C168.819 6.55228 169.267 7 169.819 7V5ZM175.958 7C176.511 7 176.958 6.55228 176.958 6C176.958 5.44772 176.511 5 175.958 5V7ZM182.097 5C181.545 5 181.097 5.44772 181.097 6C181.097 6.55228 181.545 7 182.097 7V5ZM188.236 7C188.788 7 189.236 6.55228 189.236 6C189.236 5.44772 188.788 5 188.236 5V7ZM194.375 5C193.823 5 193.375 5.44772 193.375 6C193.375 6.55228 193.823 7 194.375 7V5ZM200.514 7C201.066 7 201.514 6.55228 201.514 6C201.514 5.44772 201.066 5 200.514 5V7ZM206.653 5C206.1 5 205.653 5.44772 205.653 6C205.653 6.55228 206.1 7 206.653 7V5ZM212.792 7C213.344 7 213.792 6.55228 213.792 6C213.792 5.44772 213.344 5 212.792 5V7ZM218.93 5C218.378 5 217.93 5.44772 217.93 6C217.93 6.55228 218.378 7 218.93 7V5ZM1 7H4.06944V5H1V7ZM10.2083 7H16.3472V5H10.2083V7ZM22.4861 7H28.625V5H22.4861V7ZM34.7639 7H40.9028V5H34.7639V7ZM47.0417 7H53.1806V5H47.0417V7ZM59.3194 7H65.4583V5H59.3194V7ZM71.5972 7H77.7361V5H71.5972V7ZM83.875 7H90.0139V5H83.875V7ZM96.1528 7H102.292V5H96.1528V7ZM108.431 7H114.569V5H108.431V7ZM120.708 7H126.847V5H120.708V7ZM132.986 7H139.125V5H132.986V7ZM145.264 7H151.403V5H145.264V7ZM157.542 7H163.681V5H157.542V7ZM169.819 7H175.958V5H169.819V7ZM182.097 7H188.236V5H182.097V7ZM194.375 7H200.514V5H194.375V7ZM206.653 7H212.792V5H206.653V7ZM218.93 7H222V5H218.93V7Z" fill="#7649BB"/>
</svg>
