<svg width="32" height="32" viewBox="0 0 32 32" fill="none" xmlns="http://www.w3.org/2000/svg">
<g id="move_item_FILL0_wght500_GRAD0_opsz48 1">
<path id="Vector" d="M26.9486 17.1355H11.974C11.6534 17.1355 11.3841 17.0258 11.1658 16.8065C10.9476 16.5871 10.8384 16.3163 10.8384 15.9942C10.8384 15.672 10.9476 15.4031 11.1658 15.1877C11.3841 14.9722 11.6534 14.8645 11.974 14.8645H26.9486L24.7617 12.6775C24.5404 12.4543 24.4284 12.19 24.4257 11.8844C24.4231 11.5788 24.5334 11.3128 24.7565 11.0862C24.9918 10.865 25.2669 10.7543 25.5819 10.7543C25.8969 10.7543 26.165 10.8676 26.3863 11.0942L30.5298 15.1964C30.7563 15.4249 30.8696 15.6932 30.8696 16.0014C30.8696 16.3096 30.7563 16.577 30.5298 16.8036L26.3863 20.9391C26.1695 21.1657 25.908 21.2748 25.6019 21.2663C25.2958 21.2578 25.0251 21.1396 24.7899 20.9115C24.5711 20.6887 24.462 20.4179 24.4624 20.0992C24.4629 19.7804 24.5737 19.5104 24.795 19.2891L26.9486 17.1355ZM18.6718 11.721V6.07172H6.07178V25.9283H18.6718V20.271C18.6718 19.9505 18.7815 19.6811 19.0008 19.4629C19.2202 19.2446 19.4909 19.1355 19.8131 19.1355C20.1353 19.1355 20.4041 19.2446 20.6196 19.4629C20.8351 19.6811 20.9428 19.9505 20.9428 20.271V25.9283C20.9428 26.5582 20.7204 27.0942 20.2756 27.5363C19.8308 27.9783 19.2962 28.1993 18.6718 28.1993H6.07178C5.4418 28.1993 4.9058 27.9783 4.46378 27.5363C4.02178 27.0942 3.80078 26.5582 3.80078 25.9283V6.07172C3.80078 5.43957 4.02178 4.9017 4.46378 4.45813C4.9058 4.01453 5.4418 3.79272 6.07178 3.79272H18.6718C19.2962 3.79272 19.8308 4.01453 20.2756 4.45813C20.7204 4.9017 20.9428 5.43957 20.9428 6.07172V11.721C20.9428 12.0468 20.8331 12.3189 20.6137 12.5371C20.3944 12.7554 20.1236 12.8645 19.8014 12.8645C19.4792 12.8645 19.2104 12.7554 18.9949 12.5371C18.7795 12.3189 18.6718 12.0468 18.6718 11.721Z" fill="#555555"/>
</g>
</svg>
