<svg width="397" height="12" viewBox="0 0 397 12" fill="none" xmlns="http://www.w3.org/2000/svg">
<path d="M1 5C0.447715 5 0 5.44772 0 6C0 6.55228 0.447715 7 1 7V5ZM385.667 6C385.667 8.94552 388.054 11.3333 391 11.3333C393.946 11.3333 396.333 8.94552 396.333 6C396.333 3.05448 393.946 0.666667 391 0.666667C388.054 0.666667 385.667 3.05448 385.667 6ZM3.95455 7C4.50683 7 4.95455 6.55228 4.95455 6C4.95455 5.44772 4.50683 5 3.95455 5V7ZM9.86364 5C9.31135 5 8.86364 5.44772 8.86364 6C8.86364 6.55228 9.31135 7 9.86364 7V5ZM15.7727 7C16.325 7 16.7727 6.55228 16.7727 6C16.7727 5.44772 16.325 5 15.7727 5V7ZM21.6818 5C21.1295 5 20.6818 5.44772 20.6818 6C20.6818 6.55228 21.1295 7 21.6818 7V5ZM27.5909 7C28.1432 7 28.5909 6.55228 28.5909 6C28.5909 5.44772 28.1432 5 27.5909 5V7ZM33.5 5C32.9477 5 32.5 5.44772 32.5 6C32.5 6.55228 32.9477 7 33.5 7V5ZM39.4091 7C39.9614 7 40.4091 6.55228 40.4091 6C40.4091 5.44772 39.9614 5 39.4091 5V7ZM45.3182 5C44.7659 5 44.3182 5.44772 44.3182 6C44.3182 6.55228 44.7659 7 45.3182 7V5ZM51.2273 7C51.7796 7 52.2273 6.55228 52.2273 6C52.2273 5.44772 51.7796 5 51.2273 5V7ZM57.1364 5C56.5841 5 56.1364 5.44772 56.1364 6C56.1364 6.55228 56.5841 7 57.1364 7V5ZM63.0455 7C63.5977 7 64.0455 6.55228 64.0455 6C64.0455 5.44772 63.5977 5 63.0455 5V7ZM68.9546 5C68.4023 5 67.9546 5.44772 67.9546 6C67.9546 6.55228 68.4023 7 68.9546 7V5ZM74.8636 7C75.4159 7 75.8636 6.55228 75.8636 6C75.8636 5.44772 75.4159 5 74.8636 5V7ZM80.7727 5C80.2204 5 79.7727 5.44772 79.7727 6C79.7727 6.55228 80.2204 7 80.7727 7V5ZM86.6818 7C87.2341 7 87.6818 6.55228 87.6818 6C87.6818 5.44772 87.2341 5 86.6818 5V7ZM92.5909 5C92.0386 5 91.5909 5.44772 91.5909 6C91.5909 6.55228 92.0386 7 92.5909 7V5ZM98.5 7C99.0523 7 99.5 6.55228 99.5 6C99.5 5.44772 99.0523 5 98.5 5V7ZM104.409 5C103.857 5 103.409 5.44772 103.409 6C103.409 6.55228 103.857 7 104.409 7V5ZM110.318 7C110.87 7 111.318 6.55228 111.318 6C111.318 5.44772 110.87 5 110.318 5V7ZM116.227 5C115.675 5 115.227 5.44772 115.227 6C115.227 6.55228 115.675 7 116.227 7V5ZM122.136 7C122.689 7 123.136 6.55228 123.136 6C123.136 5.44772 122.689 5 122.136 5V7ZM128.045 5C127.493 5 127.045 5.44772 127.045 6C127.045 6.55228 127.493 7 128.045 7V5ZM133.955 7C134.507 7 134.955 6.55228 134.955 6C134.955 5.44772 134.507 5 133.955 5V7ZM139.864 5C139.311 5 138.864 5.44772 138.864 6C138.864 6.55228 139.311 7 139.864 7V5ZM145.773 7C146.325 7 146.773 6.55228 146.773 6C146.773 5.44772 146.325 5 145.773 5V7ZM151.682 5C151.13 5 150.682 5.44772 150.682 6C150.682 6.55228 151.13 7 151.682 7V5ZM157.591 7C158.143 7 158.591 6.55228 158.591 6C158.591 5.44772 158.143 5 157.591 5V7ZM163.5 5C162.948 5 162.5 5.44772 162.5 6C162.5 6.55228 162.948 7 163.5 7V5ZM169.409 7C169.961 7 170.409 6.55228 170.409 6C170.409 5.44772 169.961 5 169.409 5V7ZM175.318 5C174.766 5 174.318 5.44772 174.318 6C174.318 6.55228 174.766 7 175.318 7V5ZM181.227 7C181.78 7 182.227 6.55228 182.227 6C182.227 5.44772 181.78 5 181.227 5V7ZM187.136 5C186.584 5 186.136 5.44772 186.136 6C186.136 6.55228 186.584 7 187.136 7V5ZM193.045 7C193.598 7 194.045 6.55228 194.045 6C194.045 5.44772 193.598 5 193.045 5V7ZM198.954 5C198.402 5 197.954 5.44772 197.954 6C197.954 6.55228 198.402 7 198.954 7V5ZM204.864 7C205.416 7 205.864 6.55228 205.864 6C205.864 5.44772 205.416 5 204.864 5V7ZM210.773 5C210.22 5 209.773 5.44772 209.773 6C209.773 6.55228 210.22 7 210.773 7V5ZM216.682 7C217.234 7 217.682 6.55228 217.682 6C217.682 5.44772 217.234 5 216.682 5V7ZM222.591 5C222.039 5 221.591 5.44772 221.591 6C221.591 6.55228 222.039 7 222.591 7V5ZM228.5 7C229.052 7 229.5 6.55228 229.5 6C229.5 5.44772 229.052 5 228.5 5V7ZM234.409 5C233.857 5 233.409 5.44772 233.409 6C233.409 6.55228 233.857 7 234.409 7V5ZM240.318 7C240.87 7 241.318 6.55228 241.318 6C241.318 5.44772 240.87 5 240.318 5V7ZM246.227 5C245.675 5 245.227 5.44772 245.227 6C245.227 6.55228 245.675 7 246.227 7V5ZM252.136 7C252.689 7 253.136 6.55228 253.136 6C253.136 5.44772 252.689 5 252.136 5V7ZM258.045 5C257.493 5 257.045 5.44772 257.045 6C257.045 6.55228 257.493 7 258.045 7V5ZM263.954 7C264.507 7 264.954 6.55228 264.954 6C264.954 5.44772 264.507 5 263.954 5V7ZM269.864 5C269.311 5 268.864 5.44772 268.864 6C268.864 6.55228 269.311 7 269.864 7V5ZM275.773 7C276.325 7 276.773 6.55228 276.773 6C276.773 5.44772 276.325 5 275.773 5V7ZM281.682 5C281.129 5 280.682 5.44772 280.682 6C280.682 6.55228 281.129 7 281.682 7V5ZM287.591 7C288.143 7 288.591 6.55228 288.591 6C288.591 5.44772 288.143 5 287.591 5V7ZM293.5 5C292.948 5 292.5 5.44772 292.5 6C292.5 6.55228 292.948 7 293.5 7V5ZM299.409 7C299.961 7 300.409 6.55228 300.409 6C300.409 5.44772 299.961 5 299.409 5V7ZM305.318 5C304.766 5 304.318 5.44772 304.318 6C304.318 6.55228 304.766 7 305.318 7V5ZM311.227 7C311.779 7 312.227 6.55228 312.227 6C312.227 5.44772 311.779 5 311.227 5V7ZM317.136 5C316.584 5 316.136 5.44772 316.136 6C316.136 6.55228 316.584 7 317.136 7V5ZM323.045 7C323.598 7 324.045 6.55228 324.045 6C324.045 5.44772 323.598 5 323.045 5V7ZM328.954 5C328.402 5 327.954 5.44772 327.954 6C327.954 6.55228 328.402 7 328.954 7V5ZM334.864 7C335.416 7 335.864 6.55228 335.864 6C335.864 5.44772 335.416 5 334.864 5V7ZM340.773 5C340.22 5 339.773 5.44772 339.773 6C339.773 6.55228 340.22 7 340.773 7V5ZM346.682 7C347.234 7 347.682 6.55228 347.682 6C347.682 5.44772 347.234 5 346.682 5V7ZM352.591 5C352.039 5 351.591 5.44772 351.591 6C351.591 6.55228 352.039 7 352.591 7V5ZM358.5 7C359.052 7 359.5 6.55228 359.5 6C359.5 5.44772 359.052 5 358.5 5V7ZM364.409 5C363.857 5 363.409 5.44772 363.409 6C363.409 6.55228 363.857 7 364.409 7V5ZM370.318 7C370.87 7 371.318 6.55228 371.318 6C371.318 5.44772 370.87 5 370.318 5V7ZM376.227 5C375.675 5 375.227 5.44772 375.227 6C375.227 6.55228 375.675 7 376.227 7V5ZM382.136 7C382.689 7 383.136 6.55228 383.136 6C383.136 5.44772 382.689 5 382.136 5V7ZM388.045 5C387.493 5 387.045 5.44772 387.045 6C387.045 6.55228 387.493 7 388.045 7V5ZM1 7H3.95455V5H1V7ZM9.86364 7H15.7727V5H9.86364V7ZM21.6818 7H27.5909V5H21.6818V7ZM33.5 7H39.4091V5H33.5V7ZM45.3182 7H51.2273V5H45.3182V7ZM57.1364 7H63.0455V5H57.1364V7ZM68.9546 7H74.8636V5H68.9546V7ZM80.7727 7H86.6818V5H80.7727V7ZM92.5909 7H98.5V5H92.5909V7ZM104.409 7H110.318V5H104.409V7ZM116.227 7H122.136V5H116.227V7ZM128.045 7H133.955V5H128.045V7ZM139.864 7H145.773V5H139.864V7ZM151.682 7H157.591V5H151.682V7ZM163.5 7H169.409V5H163.5V7ZM175.318 7H181.227V5H175.318V7ZM187.136 7H193.045V5H187.136V7ZM198.954 7H204.864V5H198.954V7ZM210.773 7H216.682V5H210.773V7ZM222.591 7H228.5V5H222.591V7ZM234.409 7H240.318V5H234.409V7ZM246.227 7H252.136V5H246.227V7ZM258.045 7H263.954V5H258.045V7ZM269.864 7H275.773V5H269.864V7ZM281.682 7H287.591V5H281.682V7ZM293.5 7H299.409V5H293.5V7ZM305.318 7H311.227V5H305.318V7ZM317.136 7H323.045V5H317.136V7ZM328.954 7H334.864V5H328.954V7ZM340.773 7H346.682V5H340.773V7ZM352.591 7H358.5V5H352.591V7ZM364.409 7H370.318V5H364.409V7ZM376.227 7H382.136V5H376.227V7ZM388.045 7H391V5H388.045V7Z" fill="#555555"/>
</svg>
