<svg width="107" height="12" viewBox="0 0 107 12" fill="none" xmlns="http://www.w3.org/2000/svg">
<path d="M1 5C0.447715 5 0 5.44772 0 6C0 6.55228 0.447715 7 1 7V5ZM95.6667 6C95.6667 8.94552 98.0545 11.3333 101 11.3333C103.946 11.3333 106.333 8.94552 106.333 6C106.333 3.05448 103.946 0.666667 101 0.666667C98.0545 0.666667 95.6667 3.05448 95.6667 6ZM4.125 7C4.67728 7 5.125 6.55228 5.125 6C5.125 5.44772 4.67728 5 4.125 5V7ZM10.375 5C9.82271 5 9.375 5.44772 9.375 6C9.375 6.55228 9.82271 7 10.375 7V5ZM16.625 7C17.1773 7 17.625 6.55228 17.625 6C17.625 5.44772 17.1773 5 16.625 5V7ZM22.875 5C22.3227 5 21.875 5.44772 21.875 6C21.875 6.55228 22.3227 7 22.875 7V5ZM29.125 7C29.6773 7 30.125 6.55228 30.125 6C30.125 5.44772 29.6773 5 29.125 5V7ZM35.375 5C34.8227 5 34.375 5.44772 34.375 6C34.375 6.55228 34.8227 7 35.375 7V5ZM41.625 7C42.1773 7 42.625 6.55228 42.625 6C42.625 5.44772 42.1773 5 41.625 5V7ZM47.875 5C47.3227 5 46.875 5.44772 46.875 6C46.875 6.55228 47.3227 7 47.875 7V5ZM54.125 7C54.6773 7 55.125 6.55228 55.125 6C55.125 5.44772 54.6773 5 54.125 5V7ZM60.375 5C59.8227 5 59.375 5.44772 59.375 6C59.375 6.55228 59.8227 7 60.375 7V5ZM66.625 7C67.1773 7 67.625 6.55228 67.625 6C67.625 5.44772 67.1773 5 66.625 5V7ZM72.875 5C72.3227 5 71.875 5.44772 71.875 6C71.875 6.55228 72.3227 7 72.875 7V5ZM79.125 7C79.6773 7 80.125 6.55228 80.125 6C80.125 5.44772 79.6773 5 79.125 5V7ZM85.375 5C84.8227 5 84.375 5.44772 84.375 6C84.375 6.55228 84.8227 7 85.375 7V5ZM91.625 7C92.1773 7 92.625 6.55228 92.625 6C92.625 5.44772 92.1773 5 91.625 5V7ZM97.875 5C97.3227 5 96.875 5.44772 96.875 6C96.875 6.55228 97.3227 7 97.875 7V5ZM1 7H4.125V5H1V7ZM10.375 7H16.625V5H10.375V7ZM22.875 7H29.125V5H22.875V7ZM35.375 7H41.625V5H35.375V7ZM47.875 7H54.125V5H47.875V7ZM60.375 7H66.625V5H60.375V7ZM72.875 7H79.125V5H72.875V7ZM85.375 7H91.625V5H85.375V7ZM97.875 7H101V5H97.875V7Z" fill="#7649BB"/>
</svg>
