<svg width="225" height="9" viewBox="0 0 225 9" fill="none" xmlns="http://www.w3.org/2000/svg">
<path d="M0.999963 4.25C0.585749 4.25002 0.24998 4.58582 0.25 5.00004C0.250021 5.41425 0.585824 5.75002 1.00004 5.75L0.999963 4.25ZM217 4.98931C217 7.19845 218.791 8.98923 221 8.98912C223.209 8.98901 225 7.19806 225 4.98892C225 2.77978 223.209 0.989008 221 0.989117C218.791 0.989226 217 2.78018 217 4.98931ZM4.05559 5.74985C4.46981 5.74983 4.80558 5.41403 4.80556 4.99981C4.80554 4.5856 4.46973 4.24983 4.05552 4.24985L4.05559 5.74985ZM10.1666 4.24955C9.75242 4.24957 9.41665 4.58537 9.41667 4.99958C9.41669 5.4138 9.75249 5.74957 10.1667 5.74955L10.1666 4.24955ZM16.2778 5.74924C16.692 5.74922 17.0278 5.41342 17.0278 4.99921C17.0278 4.58499 16.692 4.24922 16.2777 4.24924L16.2778 5.74924ZM22.3889 4.24894C21.9746 4.24896 21.6389 4.58477 21.6389 4.99898C21.6389 5.41319 21.9747 5.74896 22.3889 5.74894L22.3889 4.24894ZM28.5 5.74864C28.9143 5.74862 29.25 5.41282 29.25 4.9986C29.25 4.58439 28.9142 4.24862 28.5 4.24864L28.5 5.74864ZM34.6111 4.24834C34.1969 4.24836 33.8611 4.58416 33.8611 4.99837C33.8611 5.41259 34.1969 5.74836 34.6111 5.74834L34.6111 4.24834ZM40.7223 5.74803C41.1365 5.74801 41.4722 5.41221 41.4722 4.998C41.4722 4.58378 41.1364 4.24801 40.7222 4.24804L40.7223 5.74803ZM46.8333 4.24773C46.4191 4.24775 46.0833 4.58356 46.0833 4.99777C46.0834 5.41198 46.4192 5.74775 46.8334 5.74773L46.8333 4.24773ZM52.9445 5.74743C53.3587 5.74741 53.6945 5.41161 53.6945 4.99739C53.6944 4.58318 53.3586 4.24741 52.9444 4.24743L52.9445 5.74743ZM59.0555 4.24713C58.6413 4.24715 58.3055 4.58295 58.3056 4.99717C58.3056 5.41138 58.6414 5.74715 59.0556 5.74713L59.0555 4.24713ZM65.1667 5.74683C65.5809 5.74681 65.9167 5.411 65.9167 4.99679C65.9167 4.58258 65.5809 4.24681 65.1666 4.24683L65.1667 5.74683ZM71.2778 4.24652C70.8635 4.24654 70.5278 4.58235 70.5278 4.99656C70.5278 5.41077 70.8636 5.74654 71.2778 5.74652L71.2778 4.24652ZM77.3889 5.74622C77.8032 5.7462 78.1389 5.4104 78.1389 4.99618C78.1389 4.58197 77.8031 4.2462 77.3889 4.24622L77.3889 5.74622ZM83.5 4.24592C83.0858 4.24594 82.75 4.58174 82.75 4.99596C82.75 5.41017 83.0858 5.74594 83.5001 5.74592L83.5 4.24592ZM89.6112 5.74562C90.0254 5.7456 90.3612 5.40979 90.3611 4.99558C90.3611 4.58137 90.0253 4.2456 89.6111 4.24562L89.6112 5.74562ZM95.7222 4.24531C95.308 4.24533 94.9722 4.58114 94.9723 4.99535C94.9723 5.40956 95.3081 5.74533 95.7223 5.74531L95.7222 4.24531ZM101.833 5.74501C102.248 5.74499 102.583 5.40919 102.583 4.99497C102.583 4.58076 102.248 4.24499 101.833 4.24501L101.833 5.74501ZM107.944 4.24471C107.53 4.24473 107.194 4.58053 107.194 4.99475C107.194 5.40896 107.53 5.74473 107.945 5.74471L107.944 4.24471ZM114.056 5.74441C114.47 5.74439 114.806 5.40858 114.806 4.99437C114.806 4.58016 114.47 4.24439 114.056 4.24441L114.056 5.74441ZM120.167 4.24411C119.752 4.24413 119.417 4.57993 119.417 4.99414C119.417 5.40836 119.753 5.74413 120.167 5.7441L120.167 4.24411ZM126.278 5.7438C126.692 5.74378 127.028 5.40798 127.028 4.99377C127.028 4.57955 126.692 4.24378 126.278 4.2438L126.278 5.7438ZM132.389 4.2435C131.975 4.24352 131.639 4.57932 131.639 4.99354C131.639 5.40775 131.975 5.74352 132.389 5.7435L132.389 4.2435ZM138.5 5.7432C138.914 5.74318 139.25 5.40737 139.25 4.99316C139.25 4.57895 138.914 4.24318 138.5 4.2432L138.5 5.7432ZM144.611 4.2429C144.197 4.24292 143.861 4.57872 143.861 4.99293C143.861 5.40715 144.197 5.74292 144.611 5.7429L144.611 4.2429ZM150.722 5.74259C151.137 5.74257 151.472 5.40677 151.472 4.99256C151.472 4.57834 151.136 4.24257 150.722 4.24259L150.722 5.74259ZM156.833 4.24229C156.419 4.24231 156.083 4.57811 156.083 4.99233C156.083 5.40654 156.419 5.74231 156.833 5.74229L156.833 4.24229ZM162.945 5.74199C163.359 5.74197 163.695 5.40617 163.694 4.99195C163.694 4.57774 163.359 4.24197 162.944 4.24199L162.945 5.74199ZM169.056 4.24169C168.641 4.24171 168.306 4.57751 168.306 4.99172C168.306 5.40594 168.641 5.74171 169.056 5.74169L169.056 4.24169ZM175.167 5.74138C175.581 5.74136 175.917 5.40556 175.917 4.99135C175.917 4.57713 175.581 4.24136 175.167 4.24138L175.167 5.74138ZM181.278 4.24108C180.864 4.2411 180.528 4.57691 180.528 4.99112C180.528 5.40533 180.864 5.7411 181.278 5.74108L181.278 4.24108ZM187.389 5.74078C187.803 5.74076 188.139 5.40496 188.139 4.99074C188.139 4.57653 187.803 4.24076 187.389 4.24078L187.389 5.74078ZM193.5 4.24048C193.086 4.2405 192.75 4.5763 192.75 4.99051C192.75 5.40473 193.086 5.7405 193.5 5.74048L193.5 4.24048ZM199.611 5.74017C200.025 5.74015 200.361 5.40435 200.361 4.99014C200.361 4.57592 200.025 4.24015 199.611 4.24018L199.611 5.74017ZM205.722 4.23987C205.308 4.23989 204.972 4.5757 204.972 4.98991C204.972 5.40412 205.308 5.73989 205.722 5.73987L205.722 4.23987ZM211.833 5.73957C212.248 5.73955 212.583 5.40375 212.583 4.98953C212.583 4.57532 212.248 4.23955 211.833 4.23957L211.833 5.73957ZM217.944 4.23927C217.53 4.23929 217.195 4.57509 217.195 4.98931C217.195 5.40352 217.53 5.73929 217.945 5.73927L217.944 4.23927ZM1.00004 5.75L4.05559 5.74985L4.05552 4.24985L0.999963 4.25L1.00004 5.75ZM10.1667 5.74955L16.2778 5.74924L16.2777 4.24924L10.1666 4.24955L10.1667 5.74955ZM22.3889 5.74894L28.5 5.74864L28.5 4.24864L22.3889 4.24894L22.3889 5.74894ZM34.6111 5.74834L40.7223 5.74803L40.7222 4.24804L34.6111 4.24834L34.6111 5.74834ZM46.8334 5.74773L52.9445 5.74743L52.9444 4.24743L46.8333 4.24773L46.8334 5.74773ZM59.0556 5.74713L65.1667 5.74683L65.1666 4.24683L59.0555 4.24713L59.0556 5.74713ZM71.2778 5.74652L77.3889 5.74622L77.3889 4.24622L71.2778 4.24652L71.2778 5.74652ZM83.5001 5.74592L89.6112 5.74562L89.6111 4.24562L83.5 4.24592L83.5001 5.74592ZM95.7223 5.74531L101.833 5.74501L101.833 4.24501L95.7222 4.24531L95.7223 5.74531ZM107.945 5.74471L114.056 5.74441L114.056 4.24441L107.944 4.24471L107.945 5.74471ZM120.167 5.7441L126.278 5.7438L126.278 4.2438L120.167 4.24411L120.167 5.7441ZM132.389 5.7435L138.5 5.7432L138.5 4.2432L132.389 4.2435L132.389 5.7435ZM144.611 5.7429L150.722 5.74259L150.722 4.24259L144.611 4.2429L144.611 5.7429ZM156.833 5.74229L162.945 5.74199L162.944 4.24199L156.833 4.24229L156.833 5.74229ZM169.056 5.74169L175.167 5.74138L175.167 4.24138L169.056 4.24169L169.056 5.74169ZM181.278 5.74108L187.389 5.74078L187.389 4.24078L181.278 4.24108L181.278 5.74108ZM193.5 5.74048L199.611 5.74017L199.611 4.24018L193.5 4.24048L193.5 5.74048ZM205.722 5.73987L211.833 5.73957L211.833 4.23957L205.722 4.23987L205.722 5.73987ZM217.945 5.73927L221 5.73912L221 4.23912L217.944 4.23927L217.945 5.73927Z" fill="#555555"/>
</svg>
