<svg width="260" height="3" viewBox="0 0 260 3" fill="none" xmlns="http://www.w3.org/2000/svg">
<path d="M1 0.75C0.585786 0.75 0.25 1.08579 0.25 1.5C0.25 1.91421 0.585786 2.25 1 2.25V0.75ZM3.95455 2.25C4.36876 2.25 4.70455 1.91421 4.70455 1.5C4.70455 1.08579 4.36876 0.75 3.95455 0.75V2.25ZM9.86364 0.75C9.44942 0.75 9.11364 1.08579 9.11364 1.5C9.11364 1.91421 9.44942 2.25 9.86364 2.25V0.75ZM15.7727 2.25C16.1869 2.25 16.5227 1.91421 16.5227 1.5C16.5227 1.08579 16.1869 0.75 15.7727 0.75V2.25ZM21.6818 0.75C21.2676 0.75 20.9318 1.08579 20.9318 1.5C20.9318 1.91421 21.2676 2.25 21.6818 2.25V0.75ZM27.5909 2.25C28.0051 2.25 28.3409 1.91421 28.3409 1.5C28.3409 1.08579 28.0051 0.75 27.5909 0.75V2.25ZM33.5 0.75C33.0858 0.75 32.75 1.08579 32.75 1.5C32.75 1.91421 33.0858 2.25 33.5 2.25V0.75ZM39.4091 2.25C39.8233 2.25 40.1591 1.91421 40.1591 1.5C40.1591 1.08579 39.8233 0.75 39.4091 0.75V2.25ZM45.3182 0.75C44.904 0.75 44.5682 1.08579 44.5682 1.5C44.5682 1.91421 44.904 2.25 45.3182 2.25V0.75ZM51.2273 2.25C51.6415 2.25 51.9773 1.91421 51.9773 1.5C51.9773 1.08579 51.6415 0.75 51.2273 0.75V2.25ZM57.1364 0.75C56.7222 0.75 56.3864 1.08579 56.3864 1.5C56.3864 1.91421 56.7222 2.25 57.1364 2.25V0.75ZM63.0455 2.25C63.4597 2.25 63.7955 1.91421 63.7955 1.5C63.7955 1.08579 63.4597 0.75 63.0455 0.75V2.25ZM68.9546 0.75C68.5403 0.75 68.2046 1.08579 68.2046 1.5C68.2046 1.91421 68.5403 2.25 68.9546 2.25V0.75ZM74.8636 2.25C75.2779 2.25 75.6136 1.91421 75.6136 1.5C75.6136 1.08579 75.2779 0.75 74.8636 0.75V2.25ZM80.7727 0.75C80.3585 0.75 80.0227 1.08579 80.0227 1.5C80.0227 1.91421 80.3585 2.25 80.7727 2.25V0.75ZM86.6818 2.25C87.096 2.25 87.4318 1.91421 87.4318 1.5C87.4318 1.08579 87.096 0.75 86.6818 0.75V2.25ZM92.5909 0.75C92.1767 0.75 91.8409 1.08579 91.8409 1.5C91.8409 1.91421 92.1767 2.25 92.5909 2.25V0.75ZM98.5 2.25C98.9142 2.25 99.25 1.91421 99.25 1.5C99.25 1.08579 98.9142 0.75 98.5 0.75V2.25ZM104.409 0.75C103.995 0.75 103.659 1.08579 103.659 1.5C103.659 1.91421 103.995 2.25 104.409 2.25V0.75ZM110.318 2.25C110.732 2.25 111.068 1.91421 111.068 1.5C111.068 1.08579 110.732 0.75 110.318 0.75V2.25ZM116.227 0.75C115.813 0.75 115.477 1.08579 115.477 1.5C115.477 1.91421 115.813 2.25 116.227 2.25V0.75ZM122.136 2.25C122.551 2.25 122.886 1.91421 122.886 1.5C122.886 1.08579 122.551 0.75 122.136 0.75V2.25ZM128.045 0.75C127.631 0.75 127.295 1.08579 127.295 1.5C127.295 1.91421 127.631 2.25 128.045 2.25V0.75ZM133.955 2.25C134.369 2.25 134.705 1.91421 134.705 1.5C134.705 1.08579 134.369 0.75 133.955 0.75V2.25ZM139.864 0.75C139.449 0.75 139.114 1.08579 139.114 1.5C139.114 1.91421 139.449 2.25 139.864 2.25V0.75ZM145.773 2.25C146.187 2.25 146.523 1.91421 146.523 1.5C146.523 1.08579 146.187 0.75 145.773 0.75V2.25ZM151.682 0.75C151.268 0.75 150.932 1.08579 150.932 1.5C150.932 1.91421 151.268 2.25 151.682 2.25V0.75ZM157.591 2.25C158.005 2.25 158.341 1.91421 158.341 1.5C158.341 1.08579 158.005 0.75 157.591 0.75V2.25ZM163.5 0.75C163.086 0.75 162.75 1.08579 162.75 1.5C162.75 1.91421 163.086 2.25 163.5 2.25V0.75ZM169.409 2.25C169.823 2.25 170.159 1.91421 170.159 1.5C170.159 1.08579 169.823 0.75 169.409 0.75V2.25ZM175.318 0.75C174.904 0.75 174.568 1.08579 174.568 1.5C174.568 1.91421 174.904 2.25 175.318 2.25V0.75ZM181.227 2.25C181.641 2.25 181.977 1.91421 181.977 1.5C181.977 1.08579 181.641 0.75 181.227 0.75V2.25ZM187.136 0.75C186.722 0.75 186.386 1.08579 186.386 1.5C186.386 1.91421 186.722 2.25 187.136 2.25V0.75ZM193.045 2.25C193.46 2.25 193.795 1.91421 193.795 1.5C193.795 1.08579 193.46 0.75 193.045 0.75V2.25ZM198.954 0.75C198.54 0.75 198.204 1.08579 198.204 1.5C198.204 1.91421 198.54 2.25 198.954 2.25V0.75ZM204.864 2.25C205.278 2.25 205.614 1.91421 205.614 1.5C205.614 1.08579 205.278 0.75 204.864 0.75V2.25ZM210.773 0.75C210.358 0.75 210.023 1.08579 210.023 1.5C210.023 1.91421 210.358 2.25 210.773 2.25V0.75ZM216.682 2.25C217.096 2.25 217.432 1.91421 217.432 1.5C217.432 1.08579 217.096 0.75 216.682 0.75V2.25ZM222.591 0.75C222.177 0.75 221.841 1.08579 221.841 1.5C221.841 1.91421 222.177 2.25 222.591 2.25V0.75ZM228.5 2.25C228.914 2.25 229.25 1.91421 229.25 1.5C229.25 1.08579 228.914 0.75 228.5 0.75V2.25ZM234.409 0.75C233.995 0.75 233.659 1.08579 233.659 1.5C233.659 1.91421 233.995 2.25 234.409 2.25V0.75ZM240.318 2.25C240.732 2.25 241.068 1.91421 241.068 1.5C241.068 1.08579 240.732 0.75 240.318 0.75V2.25ZM246.227 0.75C245.813 0.75 245.477 1.08579 245.477 1.5C245.477 1.91421 245.813 2.25 246.227 2.25V0.75ZM252.136 2.25C252.551 2.25 252.886 1.91421 252.886 1.5C252.886 1.08579 252.551 0.75 252.136 0.75V2.25ZM258.045 0.75C257.631 0.75 257.295 1.08579 257.295 1.5C257.295 1.91421 257.631 2.25 258.045 2.25V0.75ZM1 2.25H3.95455V0.75H1V2.25ZM9.86364 2.25H15.7727V0.75H9.86364V2.25ZM21.6818 2.25H27.5909V0.75H21.6818V2.25ZM33.5 2.25H39.4091V0.75H33.5V2.25ZM45.3182 2.25H51.2273V0.75H45.3182V2.25ZM57.1364 2.25H63.0455V0.75H57.1364V2.25ZM68.9546 2.25H74.8636V0.75H68.9546V2.25ZM80.7727 2.25H86.6818V0.75H80.7727V2.25ZM92.5909 2.25H98.5V0.75H92.5909V2.25ZM104.409 2.25H110.318V0.75H104.409V2.25ZM116.227 2.25H122.136V0.75H116.227V2.25ZM128.045 2.25H133.955V0.75H128.045V2.25ZM139.864 2.25H145.773V0.75H139.864V2.25ZM151.682 2.25H157.591V0.75H151.682V2.25ZM163.5 2.25H169.409V0.75H163.5V2.25ZM175.318 2.25H181.227V0.75H175.318V2.25ZM187.136 2.25H193.045V0.75H187.136V2.25ZM198.954 2.25H204.864V0.75H198.954V2.25ZM210.773 2.25H216.682V0.75H210.773V2.25ZM222.591 2.25H228.5V0.75H222.591V2.25ZM234.409 2.25H240.318V0.75H234.409V2.25ZM246.227 2.25H252.136V0.75H246.227V2.25ZM258.045 2.25H261V0.75H258.045V2.25Z" fill="#555555"/>
</svg>
