<svg width="245" height="12" viewBox="0 0 245 12" fill="none" xmlns="http://www.w3.org/2000/svg">
<path d="M1.23511 5C0.682823 5 0.235107 5.44772 0.235107 6C0.235107 6.55228 0.682823 7 1.23511 7V5ZM234.257 6C234.257 8.94552 236.645 11.3333 239.59 11.3333C242.536 11.3333 244.923 8.94552 244.923 6C244.923 3.05448 242.536 0.666667 239.59 0.666667C236.645 0.666667 234.257 3.05448 234.257 6ZM4.21454 7C4.76683 7 5.21454 6.55228 5.21454 6C5.21454 5.44772 4.76683 5 4.21454 5V7ZM10.1734 5C9.62114 5 9.17342 5.44772 9.17342 6C9.17342 6.55228 9.62114 7 10.1734 7V5ZM16.1323 7C16.6846 7 17.1323 6.55228 17.1323 6C17.1323 5.44772 16.6846 5 16.1323 5V7ZM22.0912 5C21.5389 5 21.0912 5.44772 21.0912 6C21.0912 6.55228 21.5389 7 22.0912 7V5ZM28.05 7C28.6023 7 29.05 6.55228 29.05 6C29.05 5.44772 28.6023 5 28.05 5V7ZM34.0089 5C33.4566 5 33.0089 5.44772 33.0089 6C33.0089 6.55228 33.4566 7 34.0089 7V5ZM39.9678 7C40.5201 7 40.9678 6.55228 40.9678 6C40.9678 5.44772 40.5201 5 39.9678 5V7ZM45.9267 5C45.3744 5 44.9267 5.44772 44.9267 6C44.9267 6.55228 45.3744 7 45.9267 7V5ZM51.8855 7C52.4378 7 52.8855 6.55228 52.8855 6C52.8855 5.44772 52.4378 5 51.8855 5V7ZM57.8444 5C57.2921 5 56.8444 5.44772 56.8444 6C56.8444 6.55228 57.2921 7 57.8444 7V5ZM63.8033 7C64.3556 7 64.8033 6.55228 64.8033 6C64.8033 5.44772 64.3556 5 63.8033 5V7ZM69.7622 5C69.2099 5 68.7622 5.44772 68.7622 6C68.7622 6.55228 69.2099 7 69.7622 7V5ZM75.721 7C76.2733 7 76.721 6.55228 76.721 6C76.721 5.44772 76.2733 5 75.721 5V7ZM81.6799 5C81.1276 5 80.6799 5.44772 80.6799 6C80.6799 6.55228 81.1276 7 81.6799 7V5ZM87.6388 7C88.1911 7 88.6388 6.55228 88.6388 6C88.6388 5.44772 88.1911 5 87.6388 5V7ZM93.5977 5C93.0454 5 92.5977 5.44772 92.5977 6C92.5977 6.55228 93.0454 7 93.5977 7V5ZM99.5565 7C100.109 7 100.557 6.55228 100.557 6C100.557 5.44772 100.109 5 99.5565 5V7ZM105.515 5C104.963 5 104.515 5.44772 104.515 6C104.515 6.55228 104.963 7 105.515 7V5ZM111.474 7C112.027 7 112.474 6.55228 112.474 6C112.474 5.44772 112.027 5 111.474 5V7ZM117.433 5C116.881 5 116.433 5.44772 116.433 6C116.433 6.55228 116.881 7 117.433 7V5ZM123.392 7C123.944 7 124.392 6.55228 124.392 6C124.392 5.44772 123.944 5 123.392 5V7ZM129.351 5C128.799 5 128.351 5.44772 128.351 6C128.351 6.55228 128.799 7 129.351 7V5ZM135.31 7C135.862 7 136.31 6.55228 136.31 6C136.31 5.44772 135.862 5 135.31 5V7ZM141.269 5C140.716 5 140.269 5.44772 140.269 6C140.269 6.55228 140.716 7 141.269 7V5ZM147.228 7C147.78 7 148.228 6.55228 148.228 6C148.228 5.44772 147.78 5 147.228 5V7ZM153.186 5C152.634 5 152.186 5.44772 152.186 6C152.186 6.55228 152.634 7 153.186 7V5ZM159.145 7C159.698 7 160.145 6.55228 160.145 6C160.145 5.44772 159.698 5 159.145 5V7ZM165.104 5C164.552 5 164.104 5.44772 164.104 6C164.104 6.55228 164.552 7 165.104 7V5ZM171.063 7C171.615 7 172.063 6.55228 172.063 6C172.063 5.44772 171.615 5 171.063 5V7ZM177.022 5C176.47 5 176.022 5.44772 176.022 6C176.022 6.55228 176.47 7 177.022 7V5ZM182.981 7C183.533 7 183.981 6.55228 183.981 6C183.981 5.44772 183.533 5 182.981 5V7ZM188.94 5C188.387 5 187.94 5.44772 187.94 6C187.94 6.55228 188.387 7 188.94 7V5ZM194.899 7C195.451 7 195.899 6.55228 195.899 6C195.899 5.44772 195.451 5 194.899 5V7ZM200.857 5C200.305 5 199.857 5.44772 199.857 6C199.857 6.55228 200.305 7 200.857 7V5ZM206.816 7C207.369 7 207.816 6.55228 207.816 6C207.816 5.44772 207.369 5 206.816 5V7ZM212.775 5C212.223 5 211.775 5.44772 211.775 6C211.775 6.55228 212.223 7 212.775 7V5ZM218.734 7C219.286 7 219.734 6.55228 219.734 6C219.734 5.44772 219.286 5 218.734 5V7ZM224.693 5C224.141 5 223.693 5.44772 223.693 6C223.693 6.55228 224.141 7 224.693 7V5ZM230.652 7C231.204 7 231.652 6.55228 231.652 6C231.652 5.44772 231.204 5 230.652 5V7ZM236.611 5C236.058 5 235.611 5.44772 235.611 6C235.611 6.55228 236.058 7 236.611 7V5ZM1.23511 7H4.21454V5H1.23511V7ZM10.1734 7H16.1323V5H10.1734V7ZM22.0912 7H28.05V5H22.0912V7ZM34.0089 7H39.9678V5H34.0089V7ZM45.9267 7H51.8855V5H45.9267V7ZM57.8444 7H63.8033V5H57.8444V7ZM69.7622 7H75.721V5H69.7622V7ZM81.6799 7H87.6388V5H81.6799V7ZM93.5977 7H99.5565V5H93.5977V7ZM105.515 7H111.474V5H105.515V7ZM117.433 7H123.392V5H117.433V7ZM129.351 7H135.31V5H129.351V7ZM141.269 7H147.228V5H141.269V7ZM153.186 7H159.145V5H153.186V7ZM165.104 7H171.063V5H165.104V7ZM177.022 7H182.981V5H177.022V7ZM188.94 7H194.899V5H188.94V7ZM200.857 7H206.816V5H200.857V7ZM212.775 7H218.734V5H212.775V7ZM224.693 7H230.652V5H224.693V7ZM236.611 7H239.59V5H236.611V7Z" fill="#7649BB"/>
</svg>
