<svg width="241" height="3" viewBox="0 0 241 3" fill="none" xmlns="http://www.w3.org/2000/svg">
<path d="M1 0.75C0.585786 0.75 0.25 1.08579 0.25 1.5C0.25 1.91421 0.585786 2.25 1 2.25V0.75ZM4 2.25C4.41421 2.25 4.75 1.91421 4.75 1.5C4.75 1.08579 4.41421 0.75 4 0.75V2.25ZM10 0.75C9.58579 0.75 9.25 1.08579 9.25 1.5C9.25 1.91421 9.58579 2.25 10 2.25V0.75ZM16 2.25C16.4142 2.25 16.75 1.91421 16.75 1.5C16.75 1.08579 16.4142 0.75 16 0.75V2.25ZM22 0.75C21.5858 0.75 21.25 1.08579 21.25 1.5C21.25 1.91421 21.5858 2.25 22 2.25V0.75ZM28 2.25C28.4142 2.25 28.75 1.91421 28.75 1.5C28.75 1.08579 28.4142 0.75 28 0.75V2.25ZM34 0.75C33.5858 0.75 33.25 1.08579 33.25 1.5C33.25 1.91421 33.5858 2.25 34 2.25V0.75ZM40 2.25C40.4142 2.25 40.75 1.91421 40.75 1.5C40.75 1.08579 40.4142 0.75 40 0.75V2.25ZM46 0.75C45.5858 0.75 45.25 1.08579 45.25 1.5C45.25 1.91421 45.5858 2.25 46 2.25V0.75ZM52 2.25C52.4142 2.25 52.75 1.91421 52.75 1.5C52.75 1.08579 52.4142 0.75 52 0.75V2.25ZM58 0.75C57.5858 0.75 57.25 1.08579 57.25 1.5C57.25 1.91421 57.5858 2.25 58 2.25V0.75ZM64 2.25C64.4142 2.25 64.75 1.91421 64.75 1.5C64.75 1.08579 64.4142 0.75 64 0.75V2.25ZM70 0.75C69.5858 0.75 69.25 1.08579 69.25 1.5C69.25 1.91421 69.5858 2.25 70 2.25V0.75ZM76 2.25C76.4142 2.25 76.75 1.91421 76.75 1.5C76.75 1.08579 76.4142 0.75 76 0.75V2.25ZM82 0.75C81.5858 0.75 81.25 1.08579 81.25 1.5C81.25 1.91421 81.5858 2.25 82 2.25V0.75ZM88 2.25C88.4142 2.25 88.75 1.91421 88.75 1.5C88.75 1.08579 88.4142 0.75 88 0.75V2.25ZM94 0.75C93.5858 0.75 93.25 1.08579 93.25 1.5C93.25 1.91421 93.5858 2.25 94 2.25V0.75ZM100 2.25C100.414 2.25 100.75 1.91421 100.75 1.5C100.75 1.08579 100.414 0.75 100 0.75V2.25ZM106 0.75C105.586 0.75 105.25 1.08579 105.25 1.5C105.25 1.91421 105.586 2.25 106 2.25V0.75ZM112 2.25C112.414 2.25 112.75 1.91421 112.75 1.5C112.75 1.08579 112.414 0.75 112 0.75V2.25ZM118 0.75C117.586 0.75 117.25 1.08579 117.25 1.5C117.25 1.91421 117.586 2.25 118 2.25V0.75ZM124 2.25C124.414 2.25 124.75 1.91421 124.75 1.5C124.75 1.08579 124.414 0.75 124 0.75V2.25ZM130 0.75C129.586 0.75 129.25 1.08579 129.25 1.5C129.25 1.91421 129.586 2.25 130 2.25V0.75ZM136 2.25C136.414 2.25 136.75 1.91421 136.75 1.5C136.75 1.08579 136.414 0.75 136 0.75V2.25ZM142 0.75C141.586 0.75 141.25 1.08579 141.25 1.5C141.25 1.91421 141.586 2.25 142 2.25V0.75ZM148 2.25C148.414 2.25 148.75 1.91421 148.75 1.5C148.75 1.08579 148.414 0.75 148 0.75V2.25ZM154 0.75C153.586 0.75 153.25 1.08579 153.25 1.5C153.25 1.91421 153.586 2.25 154 2.25V0.75ZM160 2.25C160.414 2.25 160.75 1.91421 160.75 1.5C160.75 1.08579 160.414 0.75 160 0.75V2.25ZM166 0.75C165.586 0.75 165.25 1.08579 165.25 1.5C165.25 1.91421 165.586 2.25 166 2.25V0.75ZM172 2.25C172.414 2.25 172.75 1.91421 172.75 1.5C172.75 1.08579 172.414 0.75 172 0.75V2.25ZM178 0.75C177.586 0.75 177.25 1.08579 177.25 1.5C177.25 1.91421 177.586 2.25 178 2.25V0.75ZM184 2.25C184.414 2.25 184.75 1.91421 184.75 1.5C184.75 1.08579 184.414 0.75 184 0.75V2.25ZM190 0.75C189.586 0.75 189.25 1.08579 189.25 1.5C189.25 1.91421 189.586 2.25 190 2.25V0.75ZM196 2.25C196.414 2.25 196.75 1.91421 196.75 1.5C196.75 1.08579 196.414 0.75 196 0.75V2.25ZM202 0.75C201.586 0.75 201.25 1.08579 201.25 1.5C201.25 1.91421 201.586 2.25 202 2.25V0.75ZM208 2.25C208.414 2.25 208.75 1.91421 208.75 1.5C208.75 1.08579 208.414 0.75 208 0.75V2.25ZM214 0.75C213.586 0.75 213.25 1.08579 213.25 1.5C213.25 1.91421 213.586 2.25 214 2.25V0.75ZM220 2.25C220.414 2.25 220.75 1.91421 220.75 1.5C220.75 1.08579 220.414 0.75 220 0.75V2.25ZM226 0.75C225.586 0.75 225.25 1.08579 225.25 1.5C225.25 1.91421 225.586 2.25 226 2.25V0.75ZM232 2.25C232.414 2.25 232.75 1.91421 232.75 1.5C232.75 1.08579 232.414 0.75 232 0.75V2.25ZM238 0.75C237.586 0.75 237.25 1.08579 237.25 1.5C237.25 1.91421 237.586 2.25 238 2.25V0.75ZM1 2.25H4V0.75H1V2.25ZM10 2.25H16V0.75H10V2.25ZM22 2.25H28V0.75H22V2.25ZM34 2.25H40V0.75H34V2.25ZM46 2.25H52V0.75H46V2.25ZM58 2.25H64V0.75H58V2.25ZM70 2.25H76V0.75H70V2.25ZM82 2.25H88V0.75H82V2.25ZM94 2.25H100V0.75H94V2.25ZM106 2.25H112V0.75H106V2.25ZM118 2.25H124V0.75H118V2.25ZM130 2.25H136V0.75H130V2.25ZM142 2.25H148V0.75H142V2.25ZM154 2.25H160V0.75H154V2.25ZM166 2.25H172V0.75H166V2.25ZM178 2.25H184V0.75H178V2.25ZM190 2.25H196V0.75H190V2.25ZM202 2.25H208V0.75H202V2.25ZM214 2.25H220V0.75H214V2.25ZM226 2.25H232V0.75H226V2.25ZM238 2.25H241V0.75H238V2.25Z" fill="#555555"/>
</svg>
