<svg width="16" height="16" viewBox="0 0 16 16" fill="none" xmlns="http://www.w3.org/2000/svg">
<g id="lock?">
<path id="Vector" d="M3.96158 14.3333C3.6994 14.3333 3.4736 14.2386 3.28416 14.0492C3.09474 13.8597 3.00003 13.6339 3.00003 13.3718V6.70257C3.00003 6.43709 3.09474 6.21046 3.28416 6.02269C3.4736 5.83492 3.6994 5.74104 3.96158 5.74104H5.12183V4.21156C5.12183 3.41278 5.40205 2.73339 5.96248 2.17339C6.52291 1.61338 7.20283 1.33337 8.00221 1.33337C8.80159 1.33337 9.48077 1.61338 10.0397 2.17339C10.5987 2.73339 10.8782 3.41278 10.8782 4.21156V5.74104H12.0384C12.3006 5.74104 12.5264 5.83492 12.7159 6.02269C12.9053 6.21046 13 6.43709 13 6.70257V13.3718C13 13.6339 12.9053 13.8597 12.7159 14.0492C12.5264 14.2386 12.3006 14.3333 12.0384 14.3333H3.96158ZM3.96158 13.5769H12.0384C12.0983 13.5769 12.1474 13.5577 12.1859 13.5192C12.2244 13.4807 12.2436 13.4316 12.2436 13.3718V6.70257C12.2436 6.64274 12.2244 6.59359 12.1859 6.55512C12.1474 6.51666 12.0983 6.49742 12.0384 6.49742H3.96158C3.90175 6.49742 3.8526 6.51666 3.81413 6.55512C3.77566 6.59359 3.75643 6.64274 3.75643 6.70257V13.3718C3.75643 13.4316 3.77566 13.4807 3.81413 13.5192C3.8526 13.5577 3.90175 13.5769 3.96158 13.5769ZM8.00281 11.1666C8.31377 11.1666 8.57929 11.0581 8.79936 10.8411C9.01945 10.6241 9.1295 10.363 9.1295 10.0577C9.1295 9.76281 9.01852 9.49743 8.79656 9.26154C8.57461 9.02564 8.30816 8.90769 7.99721 8.90769C7.68626 8.90769 7.42074 9.02564 7.20066 9.26154C6.98058 9.49743 6.87053 9.76559 6.87053 10.066C6.87053 10.3664 6.98151 10.625 7.20346 10.8416C7.42542 11.0583 7.69187 11.1666 8.00281 11.1666ZM5.87823 5.74104H10.1218V4.21156C10.1218 3.62217 9.91574 3.12119 9.50363 2.70862C9.09152 2.29605 8.59109 2.08976 8.00235 2.08976C7.41361 2.08976 6.91241 2.29605 6.49873 2.70862C6.08506 3.12119 5.87823 3.62217 5.87823 4.21156V5.74104Z" fill="#555555"/>
</g>
</svg>
