<svg width="28" height="28" viewBox="0 0 28 28" fill="none" xmlns="http://www.w3.org/2000/svg">
<g id="lock_FILL0_wght500_GRAD0_opsz48 1">
<path id="Vector" d="M6.47931 25.8271C5.93285 25.8271 5.46504 25.6325 5.0759 25.2434C4.68676 24.8542 4.49219 24.3864 4.49219 23.84V11.3072C4.49219 10.7588 4.68676 10.2893 5.0759 9.89882C5.46504 9.50829 5.93285 9.31303 6.47931 9.31303H8.3815V6.66648C8.3815 5.10381 8.92853 3.77325 10.0226 2.67482C11.1166 1.57638 12.4429 1.02716 14.0013 1.02716C15.5597 1.02716 16.8855 1.57638 17.9786 2.67482C19.0717 3.77325 19.6183 5.10381 19.6183 6.66648V9.31303H21.5204C22.0688 9.31303 22.5383 9.50829 22.9288 9.89882C23.3193 10.2893 23.5146 10.7588 23.5146 11.3072V23.84C23.5146 24.3864 23.3193 24.8542 22.9288 25.2434C22.5383 25.6325 22.0688 25.8271 21.5204 25.8271H6.47931ZM6.47931 23.84H21.5204V11.3072H6.47931V23.84ZM14.0048 19.8194C14.6237 19.8194 15.152 19.6052 15.5895 19.1768C16.027 18.7484 16.2457 18.2334 16.2457 17.6319C16.2457 17.0486 16.0253 16.5187 15.5846 16.0423C15.1438 15.5659 14.6139 15.3277 13.995 15.3277C13.376 15.3277 12.8478 15.5659 12.4103 16.0423C11.9728 16.5187 11.754 17.0534 11.754 17.6465C11.754 18.2395 11.9744 18.7499 12.4152 19.1777C12.856 19.6055 13.3858 19.8194 14.0048 19.8194ZM10.3686 9.31303H17.6311V6.66808C17.6311 5.64943 17.2797 4.78696 16.5767 4.08068C15.8737 3.37442 15.0165 3.02129 14.005 3.02129C12.9934 3.02129 12.1345 3.37442 11.4281 4.08068C10.7218 4.78696 10.3686 5.64943 10.3686 6.66808V9.31303Z" fill="#555555"/>
</g>
</svg>
