<svg width="32" height="32" viewBox="0 0 32 32" fill="none" xmlns="http://www.w3.org/2000/svg">
<g id="lock_clock_FILL0_wght400_GRAD0_opsz48 1">
<path id="Vector" d="M11.6667 10.8666H20.3334V7.76665C20.3334 6.49998 19.9167 5.44442 19.0834 4.59998C18.25 3.75554 17.2223 3.33331 16 3.33331C14.7778 3.33331 13.75 3.75554 12.9167 4.59998C12.0834 5.44442 11.6667 6.49998 11.6667 7.76665V10.8666ZM18.5667 29.3333H7.33337C6.82226 29.3333 6.36115 29.1278 5.95004 28.7166C5.53893 28.3055 5.33337 27.8444 5.33337 27.3333V12.8666C5.33337 12.3555 5.53893 11.8944 5.95004 11.4833C6.36115 11.0722 6.82226 10.8666 7.33337 10.8666H9.66671V7.76665C9.66671 5.96665 10.2778 4.44442 11.5 3.19998C12.7223 1.95554 14.2223 1.33331 16 1.33331C17.7778 1.33331 19.2778 1.95554 20.5 3.19998C21.7223 4.44442 22.3334 5.96665 22.3334 7.76665V10.8666H24.6667C25.1778 10.8666 25.6389 11.0722 26.05 11.4833C26.4612 11.8944 26.6667 12.3555 26.6667 12.8666V15.7666C26.3778 15.7 26.0778 15.6555 25.7667 15.6333C25.4556 15.6111 25.0889 15.6 24.6667 15.6V12.8666H7.33337V27.3333H17.3667C17.5223 27.7111 17.6889 28.05 17.8667 28.35C18.0445 28.65 18.2778 28.9778 18.5667 29.3333ZM25.1 30.4666C23.3445 30.4666 21.8334 29.8333 20.5667 28.5666C19.3 27.3 18.6667 25.7889 18.6667 24.0333C18.6667 22.2778 19.3 20.7666 20.5667 19.5C21.8334 18.2333 23.3445 17.6 25.1 17.6C26.8556 17.6 28.3667 18.2333 29.6334 19.5C30.9 20.7666 31.5334 22.2778 31.5334 24.0333C31.5334 25.7889 30.9 27.3 29.6334 28.5666C28.3667 29.8333 26.8556 30.4666 25.1 30.4666ZM27.5667 27.4L28.4667 26.5L25.6667 23.9666V19.8333H24.2667V24.3592L27.5667 27.4Z" fill="#555555"/>
</g>
</svg>
