<svg width="16" height="16" viewBox="0 0 16 16" fill="none" xmlns="http://www.w3.org/2000/svg">
<g clip-path="url(#clip0_396_3934)">
<path d="M8.00112 14.3333C7.12516 14.3333 6.30181 14.1671 5.53105 13.8347C4.76029 13.5022 4.08983 13.051 3.51969 12.4812C2.94953 11.9113 2.49816 11.2411 2.16557 10.4707C1.83298 9.70026 1.66669 8.87708 1.66669 8.00112C1.66669 7.12516 1.83291 6.30181 2.16535 5.53105C2.4978 4.76029 2.94896 4.08983 3.51885 3.51969C4.08875 2.94953 4.75891 2.49816 5.52934 2.16557C6.29975 1.83298 7.12293 1.66669 7.99889 1.66669C8.87484 1.66669 9.6982 1.83291 10.469 2.16535C11.2397 2.4978 11.9102 2.94896 12.4803 3.51885C13.0505 4.08875 13.5018 4.75892 13.8344 5.52934C14.167 6.29975 14.3333 7.12293 14.3333 7.99889C14.3333 8.87484 14.1671 9.6982 13.8347 10.469C13.5022 11.2397 13.051 11.9102 12.4812 12.4803C11.9113 13.0505 11.2411 13.5018 10.4707 13.8344C9.70026 14.167 8.87708 14.3333 8.00112 14.3333ZM7.29615 13.5538V12.2064C6.9108 12.2064 6.58604 12.0662 6.32189 11.7859C6.05773 11.5056 5.92565 11.1731 5.92565 10.7885V10.0744L2.56667 6.71539C2.51967 6.92907 2.48399 7.14226 2.45962 7.35497C2.43526 7.56768 2.42309 7.78317 2.42309 8.00144C2.42309 9.41928 2.88505 10.6575 3.80899 11.716C4.73292 12.7746 5.89531 13.3872 7.29615 13.5538ZM12.1192 11.7795C12.3551 11.5214 12.5637 11.2448 12.7449 10.9499C12.9261 10.6549 13.0799 10.3463 13.2062 10.024C13.3326 9.70167 13.426 9.37115 13.4864 9.03245C13.5467 8.69377 13.5769 8.34962 13.5769 8C13.5769 6.84465 13.2611 5.79257 12.6295 4.84375C11.9979 3.89493 11.1496 3.20471 10.0846 2.77309V3.08172C10.0846 3.46485 9.95254 3.79659 9.68839 4.07694C9.42423 4.35727 9.09947 4.49744 8.7141 4.49744H7.29615V5.91539C7.29615 6.1061 7.22436 6.26318 7.08077 6.38662C6.93718 6.51008 6.77169 6.5718 6.5843 6.5718H5.21155V8H9.4282C9.61892 8 9.77599 8.07009 9.89944 8.21025C10.0229 8.35043 10.0846 8.51497 10.0846 8.70385V10.7885H10.7857C11.1012 10.7885 11.3803 10.8805 11.623 11.0647C11.8656 11.2489 12.031 11.4871 12.1192 11.7795Z" fill="#555555"/>
</g>
<defs>
<clipPath id="clip0_396_3934">
<rect width="16" height="16" fill="white"/>
</clipPath>
</defs>
</svg>
