<svg width="24" height="24" viewBox="0 0 24 24" fill="none" xmlns="http://www.w3.org/2000/svg">
<g id="logout_FILL0_wght500_GRAD0_opsz48 1">
<path id="Vector" d="M4.55384 21.1495C4.09385 21.1495 3.69498 20.9806 3.35721 20.6429C3.01946 20.3051 2.85059 19.9062 2.85059 19.4463V4.55385C2.85059 4.09224 3.01946 3.69196 3.35721 3.35303C3.69498 3.01408 4.09385 2.8446 4.55384 2.8446H11.1593C11.3997 2.8446 11.6017 2.92804 11.7654 3.09491C11.9291 3.26177 12.0109 3.46585 12.0109 3.70713C12.0109 3.94843 11.9291 4.14988 11.7654 4.31148C11.6017 4.47306 11.3997 4.55385 11.1593 4.55385H4.55384V19.4463H11.1593C11.3997 19.4463 11.6017 19.5285 11.7654 19.693C11.9291 19.8575 12.0109 20.0606 12.0109 20.3023C12.0109 20.5439 11.9291 20.7455 11.7654 20.9071C11.6017 21.0687 11.3997 21.1495 11.1593 21.1495H4.55384ZM17.8919 12.8517H9.81579C9.5754 12.8517 9.37337 12.7694 9.20969 12.6049C9.046 12.4404 8.96416 12.2373 8.96416 11.9957C8.96416 11.754 9.046 11.5524 9.20969 11.3908C9.37337 11.2292 9.5754 11.1484 9.81579 11.1484H17.8419L15.9185 9.22506C15.7486 9.05429 15.6678 8.85417 15.6761 8.62471C15.6844 8.39522 15.7736 8.19651 15.9435 8.02858C16.1134 7.85666 16.3158 7.7717 16.5507 7.77368C16.7855 7.77568 16.9893 7.86165 17.162 8.03158L20.5587 11.4283C20.7247 11.5997 20.8076 11.799 20.8076 12.0261C20.8076 12.2533 20.7247 12.4519 20.5587 12.6218L17.187 15.9935C17.0204 16.1635 16.8223 16.2453 16.5928 16.2389C16.3632 16.2326 16.1602 16.1444 15.9837 15.9745C15.8203 15.8046 15.7375 15.6018 15.7354 15.366C15.7332 15.1303 15.8193 14.927 15.9935 14.756L17.8919 12.8517Z" fill="#555555"/>
</g>
</svg>
