<svg width="20" height="20" viewBox="0 0 20 20" fill="none" xmlns="http://www.w3.org/2000/svg">
<path d="M2.96647 14.2672C2.5972 14.2011 2.2675 14.0396 1.97734 13.7828C1.68719 13.5259 1.54211 13.2143 1.54211 12.8478V5.87138C1.54211 5.65821 1.58698 5.4615 1.6767 5.28125C1.76645 5.10099 1.92977 4.95017 2.16666 4.82879L8.14628 1.85281C8.35009 1.75619 8.56498 1.70871 8.79097 1.71038C9.01697 1.71203 9.23187 1.76645 9.43568 1.87365L15.1445 4.81883C15.3226 4.94595 15.4825 5.12152 15.6241 5.34556C15.7657 5.56959 15.8557 5.77958 15.894 5.97554H14.2876L8.79845 3.12727L2.96647 6.03986V14.2672ZM5.01086 17.6245C4.62754 17.6245 4.29515 17.4803 4.01368 17.1919C3.7322 16.9035 3.59147 16.5746 3.59147 16.2052V8.02492C3.59147 7.65411 3.7322 7.32401 4.01368 7.03463C4.29515 6.74524 4.62754 6.60054 5.01086 6.60054H17.0385C17.4093 6.60054 17.7394 6.74524 18.0288 7.03463C18.3182 7.32401 18.4629 7.65411 18.4629 8.02492V16.2052C18.4629 16.5746 18.3182 16.9035 18.0288 17.1919C17.7394 17.4803 17.4093 17.6245 17.0385 17.6245H5.01086ZM10.4058 11.9837L5.01086 9.34829V16.25H17.0385V9.34829L11.6436 11.9837C11.4398 12.0803 11.2335 12.1286 11.0247 12.1286C10.8159 12.1286 10.6096 12.0803 10.4058 11.9837ZM11.0272 10.8637L16.9135 7.98008H5.13586L11.0272 10.8637Z" fill="#555555"/>
</svg>
