<svg width="20" height="20" viewBox="0 0 20 20" fill="none" xmlns="http://www.w3.org/2000/svg">
<g id="mark_as_unread_FILL0_wght500_GRAD0_opsz48 1">
<path id="Vector" d="M2.96635 14.2672C2.59708 14.2011 2.26737 14.0396 1.97722 13.7828C1.68707 13.5259 1.54199 13.2143 1.54199 12.8478V5.87137C1.54199 5.6582 1.58685 5.46149 1.67658 5.28124C1.76633 5.10098 1.92964 4.95016 2.16653 4.82879L8.14616 1.85281C8.34996 1.75618 8.56486 1.7087 8.79085 1.71037C9.01685 1.71202 9.23175 1.76645 9.43555 1.87364L15.1443 4.81883C15.3225 4.94594 15.4824 5.12151 15.624 5.34556C15.7656 5.56958 15.8555 5.77958 15.8939 5.97554H14.2875L8.79833 3.12727L2.96635 6.03985V14.2672ZM5.01074 17.6245C4.62742 17.6245 4.29503 17.4803 4.01355 17.1919C3.73208 16.9035 3.59135 16.5746 3.59135 16.2052V8.02491C3.59135 7.65411 3.73208 7.32401 4.01355 7.03462C4.29503 6.74523 4.62742 6.60054 5.01074 6.60054H17.0384C17.4092 6.60054 17.7393 6.74523 18.0286 7.03462C18.318 7.32401 18.4627 7.65411 18.4627 8.02491V16.2052C18.4627 16.5746 18.318 16.9035 18.0286 17.1919C17.7393 17.4803 17.4092 17.6245 17.0384 17.6245H5.01074ZM10.4057 11.9837L5.01074 9.34829V16.25H17.0384V9.34829L11.6434 11.9837C11.4396 12.0803 11.2333 12.1286 11.0246 12.1286C10.8158 12.1286 10.6095 12.0803 10.4057 11.9837ZM11.027 10.8637L16.9134 7.98008H5.13574L11.027 10.8637Z" fill="#555555"/>
</g>
</svg>
