<svg width="32" height="32" viewBox="0 0 32 32" fill="none" xmlns="http://www.w3.org/2000/svg">
<g id="no_sound_FILL0_wght500_GRAD0_opsz48 1">
<path id="Vector" d="M24.3406 17.6246L21.3695 20.629C21.1377 20.8556 20.8711 20.9688 20.5699 20.9688C20.2687 20.9688 20.0048 20.8556 19.7782 20.629C19.5464 20.4024 19.4304 20.1316 19.4304 19.8167C19.4304 19.5017 19.5464 19.2309 19.7782 19.0043L22.7492 16.0333L19.7449 13.0623C19.513 12.8358 19.3971 12.5705 19.3971 12.2667C19.3971 11.9628 19.513 11.6976 19.7449 11.471C19.9715 11.2444 20.2409 11.1312 20.5532 11.1312C20.8656 11.1312 21.1377 11.2444 21.3695 11.471L24.3406 14.442L27.3116 11.4377C27.5382 11.2111 27.802 11.0978 28.1032 11.0978C28.4044 11.0978 28.671 11.2111 28.9029 11.4377C29.1295 11.6642 29.2427 11.935 29.2427 12.25C29.2427 12.565 29.1295 12.8358 28.9029 13.0623L25.9319 16.0333L28.9362 19.0043C29.1628 19.2309 29.2761 19.4961 29.2761 19.8C29.2761 20.1039 29.1628 20.3691 28.9362 20.5957C28.7043 20.8222 28.4322 20.9355 28.1199 20.9355C27.8076 20.9355 27.5382 20.8222 27.3116 20.5957L24.3406 17.6246ZM9.06227 20.1993H4.74491C4.41882 20.1993 4.14804 20.0915 3.93257 19.8761C3.71711 19.6606 3.60938 19.3899 3.60938 19.0638V12.9362C3.60938 12.6101 3.71711 12.338 3.93257 12.1199C4.14804 11.9018 4.41882 11.7927 4.74491 11.7927H9.06227L14.0768 6.77827C14.4357 6.42465 14.8486 6.34313 15.3155 6.5337C15.7825 6.72428 16.0159 7.07101 16.0159 7.5739V24.4181C16.0159 24.9263 15.7825 25.2757 15.3155 25.4663C14.8486 25.6569 14.4357 25.5727 14.0768 25.2138L9.06227 20.1993ZM13.7369 10.5754L10.0659 14.0717H5.88041V17.9283H10.0659L13.7369 21.458V10.5754Z" fill="#555555"/>
</g>
</svg>
