<svg width="177" height="12" viewBox="0 0 177 12" fill="none" xmlns="http://www.w3.org/2000/svg">
<path id="Line 9" d="M1 5C0.447715 5 0 5.44772 0 6C0 6.55228 0.447715 7 1 7V5ZM165.667 6C165.667 8.94552 168.054 11.3333 171 11.3333C173.946 11.3333 176.333 8.94552 176.333 6C176.333 3.05448 173.946 0.666667 171 0.666667C168.054 0.666667 165.667 3.05448 165.667 6ZM4.03571 7C4.588 7 5.03571 6.55228 5.03571 6C5.03571 5.44772 4.588 5 4.03571 5V7ZM10.1071 5C9.55486 5 9.10714 5.44772 9.10714 6C9.10714 6.55228 9.55486 7 10.1071 7V5ZM16.1786 7C16.7309 7 17.1786 6.55228 17.1786 6C17.1786 5.44772 16.7309 5 16.1786 5V7ZM22.25 5C21.6977 5 21.25 5.44772 21.25 6C21.25 6.55228 21.6977 7 22.25 7V5ZM28.3214 7C28.8737 7 29.3214 6.55228 29.3214 6C29.3214 5.44772 28.8737 5 28.3214 5V7ZM34.3929 5C33.8406 5 33.3929 5.44772 33.3929 6C33.3929 6.55228 33.8406 7 34.3929 7V5ZM40.4643 7C41.0166 7 41.4643 6.55228 41.4643 6C41.4643 5.44772 41.0166 5 40.4643 5V7ZM46.5357 5C45.9834 5 45.5357 5.44772 45.5357 6C45.5357 6.55228 45.9834 7 46.5357 7V5ZM52.6072 7C53.1594 7 53.6072 6.55228 53.6072 6C53.6072 5.44772 53.1594 5 52.6072 5V7ZM58.6786 5C58.1263 5 57.6786 5.44772 57.6786 6C57.6786 6.55228 58.1263 7 58.6786 7V5ZM64.75 7C65.3023 7 65.75 6.55228 65.75 6C65.75 5.44772 65.3023 5 64.75 5V7ZM70.8214 5C70.2691 5 69.8214 5.44772 69.8214 6C69.8214 6.55228 70.2691 7 70.8214 7V5ZM76.8929 7C77.4451 7 77.8929 6.55228 77.8929 6C77.8929 5.44772 77.4451 5 76.8929 5V7ZM82.9643 5C82.412 5 81.9643 5.44772 81.9643 6C81.9643 6.55228 82.412 7 82.9643 7V5ZM89.0357 7C89.588 7 90.0357 6.55228 90.0357 6C90.0357 5.44772 89.588 5 89.0357 5V7ZM95.1071 5C94.5549 5 94.1071 5.44772 94.1071 6C94.1071 6.55228 94.5549 7 95.1071 7V5ZM101.179 7C101.731 7 102.179 6.55228 102.179 6C102.179 5.44772 101.731 5 101.179 5V7ZM107.25 5C106.698 5 106.25 5.44772 106.25 6C106.25 6.55228 106.698 7 107.25 7V5ZM113.321 7C113.874 7 114.321 6.55228 114.321 6C114.321 5.44772 113.874 5 113.321 5V7ZM119.393 5C118.841 5 118.393 5.44772 118.393 6C118.393 6.55228 118.841 7 119.393 7V5ZM125.464 7C126.017 7 126.464 6.55228 126.464 6C126.464 5.44772 126.017 5 125.464 5V7ZM131.536 5C130.983 5 130.536 5.44772 130.536 6C130.536 6.55228 130.983 7 131.536 7V5ZM137.607 7C138.159 7 138.607 6.55228 138.607 6C138.607 5.44772 138.159 5 137.607 5V7ZM143.679 5C143.126 5 142.679 5.44772 142.679 6C142.679 6.55228 143.126 7 143.679 7V5ZM149.75 7C150.302 7 150.75 6.55228 150.75 6C150.75 5.44772 150.302 5 149.75 5V7ZM155.821 5C155.269 5 154.821 5.44772 154.821 6C154.821 6.55228 155.269 7 155.821 7V5ZM161.893 7C162.445 7 162.893 6.55228 162.893 6C162.893 5.44772 162.445 5 161.893 5V7ZM167.964 5C167.412 5 166.964 5.44772 166.964 6C166.964 6.55228 167.412 7 167.964 7V5ZM1 7H4.03571V5H1V7ZM10.1071 7H16.1786V5H10.1071V7ZM22.25 7H28.3214V5H22.25V7ZM34.3929 7H40.4643V5H34.3929V7ZM46.5357 7H52.6072V5H46.5357V7ZM58.6786 7H64.75V5H58.6786V7ZM70.8214 7H76.8929V5H70.8214V7ZM82.9643 7H89.0357V5H82.9643V7ZM95.1071 7H101.179V5H95.1071V7ZM107.25 7H113.321V5H107.25V7ZM119.393 7H125.464V5H119.393V7ZM131.536 7H137.607V5H131.536V7ZM143.679 7H149.75V5H143.679V7ZM155.821 7H161.893V5H155.821V7ZM167.964 7H171V5H167.964V7Z" fill="#7649BB"/>
</svg>
