<svg width="28" height="28" viewBox="0 0 28 28" fill="none" xmlns="http://www.w3.org/2000/svg">
<g id="person_add_FILL0_wght400_GRAD0_opsz48 1" clip-path="url(#clip0_140_3239)">
<path id="Vector" d="M14.097 13.9459C14.6305 13.2958 15.0245 12.6239 15.2792 11.9303C15.5339 11.2366 15.6612 10.4407 15.6612 9.54242C15.6612 8.64416 15.5305 7.84625 15.269 7.14868C15.0075 6.45109 14.6122 5.78581 14.0831 5.15283C15.6166 4.85016 16.9436 5.10515 18.064 5.91782C19.1844 6.73046 19.7446 7.94098 19.7446 9.54939C19.7446 11.1652 19.1821 12.3799 18.057 13.1935C16.932 14.0071 15.612 14.2579 14.097 13.9459ZM19.7763 23.817C19.9849 23.7642 20.1533 23.6452 20.2815 23.4598C20.4097 23.2743 20.4737 23.0428 20.4737 22.7651V20.9219C20.4737 19.8837 20.2221 18.9275 19.7189 18.0534C19.2157 17.1792 18.3325 16.4389 17.0695 15.8323C20.4985 16.2415 22.8315 16.8765 24.0685 17.7373C25.3056 18.5981 25.9241 19.6597 25.9241 20.9219V22.809C25.9241 23.1039 25.8286 23.3456 25.6377 23.5342C25.4467 23.7227 25.211 23.817 24.9305 23.817H19.7763ZM24.6217 14.9902C24.3723 14.9902 24.165 14.9066 23.9997 14.7393C23.8345 14.5721 23.7518 14.3648 23.7518 14.1176V12.0573H21.6892C21.4413 12.0573 21.2335 11.9732 21.0658 11.8049C20.8981 11.6367 20.8142 11.4282 20.8142 11.1795C20.8142 10.9308 20.8981 10.724 21.0658 10.5592C21.2335 10.3944 21.4413 10.3119 21.6892 10.3119H23.7518V8.25167C23.7518 8.00442 23.8362 7.79716 24.0048 7.6299C24.1735 7.46264 24.3826 7.37901 24.6319 7.37901C24.8766 7.37901 25.0828 7.46253 25.2504 7.62958C25.418 7.79661 25.5018 8.00358 25.5018 8.25051V10.3096H27.5574C27.8053 10.3096 28.0132 10.394 28.1809 10.5627C28.3486 10.7313 28.4324 10.9404 28.4324 11.1898C28.4324 11.4391 28.3486 11.6464 28.1809 11.8117C28.0132 11.977 27.8053 12.0596 27.5574 12.0596H25.5018V14.1173C25.5018 14.3638 25.4163 14.571 25.2453 14.7387C25.0743 14.9064 24.8664 14.9902 24.6217 14.9902ZM9.36046 14.0987C8.02501 14.0987 6.93316 13.6746 6.0849 12.8264C5.23663 11.9781 4.8125 10.8862 4.8125 9.55079C4.8125 8.21536 5.23663 7.12304 6.0849 6.27382C6.93316 5.42461 8.02501 5 9.36046 5C10.6959 5 11.7882 5.42461 12.6374 6.27382C13.4866 7.12304 13.9112 8.21536 13.9112 9.55079C13.9112 10.8862 13.4866 11.9781 12.6374 12.8264C11.7882 13.6746 10.6959 14.0987 9.36046 14.0987ZM0.993563 23.817C0.713096 23.817 0.477381 23.7215 0.286417 23.5305C0.0954722 23.3396 0 23.1039 0 22.8234V20.8897C0 20.1732 0.187143 19.5243 0.561429 18.9429C0.935735 18.3615 1.43993 17.9279 2.07401 17.6419C3.48795 17.0197 4.7512 16.5701 5.86375 16.2932C6.97633 16.0163 8.14236 15.8779 9.36186 15.8779C10.586 15.8779 11.7495 16.0152 12.8524 16.2897C13.9552 16.5643 15.2089 17.015 16.6136 17.6419C17.2489 17.9234 17.7594 18.3552 18.1452 18.9373C18.5309 19.5193 18.7237 20.1692 18.7237 20.887V22.8234C18.7237 23.1039 18.6283 23.3396 18.4373 23.5305C18.2463 23.7215 18.0106 23.817 17.7302 23.817H0.993563ZM9.36046 12.1116C10.1011 12.1116 10.7124 11.8699 11.1943 11.3864C11.6762 10.9029 11.9171 10.2906 11.9171 9.54962C11.9171 8.80671 11.6761 8.19391 11.1942 7.71122C10.7122 7.22851 10.1019 6.98715 9.36303 6.98715C8.62229 6.98715 8.00988 7.22862 7.52579 7.71154C7.04168 8.19444 6.79962 8.80599 6.79962 9.54618C6.79962 10.2883 7.04126 10.9014 7.52453 11.3855C8.00779 11.8696 8.61976 12.1116 9.36046 12.1116ZM1.98712 21.8298H16.7296V20.9149C16.7296 20.6068 16.6518 20.3178 16.4963 20.0481C16.3407 19.7783 16.0977 19.5663 15.7671 19.4122C14.444 18.8039 13.3228 18.3951 12.4034 18.1859C11.4841 17.9767 10.4708 17.872 9.3637 17.872C8.25657 17.872 7.24408 17.9767 6.32622 18.1859C5.40838 18.3951 4.2738 18.8035 2.92247 19.4111C2.62946 19.5459 2.40032 19.7531 2.23504 20.0328C2.06976 20.3125 1.98712 20.6065 1.98712 20.9149V21.8298Z" fill="#555555"/>
</g>
<defs>
<clipPath id="clip0_140_3239">
<rect width="28" height="28" fill="white"/>
</clipPath>
</defs>
</svg>
