<svg width="32" height="32" viewBox="0 0 32 32" fill="none" xmlns="http://www.w3.org/2000/svg">
<g id="person_add_FILL0_wght500_GRAD0_opsz48 1">
<path id="Vector" d="M25.4869 18.4116C25.1839 18.4116 24.9345 18.3112 24.7387 18.1103C24.5429 17.9095 24.445 17.6607 24.445 17.3638V14.1261H21.2073C20.9059 14.1261 20.6559 14.0251 20.4573 13.8232C20.2588 13.6212 20.1595 13.371 20.1595 13.0724C20.1595 12.7694 20.2588 12.5199 20.4573 12.3241C20.6559 12.1283 20.9059 12.0304 21.2073 12.0304H24.445V8.79274C24.445 8.49134 24.5448 8.24137 24.7445 8.04281C24.9442 7.84423 25.1943 7.74494 25.4947 7.74494C25.7951 7.74494 26.0445 7.84423 26.2429 8.04281C26.4414 8.24137 26.5406 8.49134 26.5406 8.79274V12.0304H29.7783C30.0752 12.0304 30.3241 12.1303 30.5249 12.33C30.7257 12.5297 30.8261 12.7797 30.8261 13.0801C30.8261 13.3805 30.7257 13.63 30.5249 13.8284C30.3241 14.0269 30.0752 14.1261 29.7783 14.1261H26.5406V17.3638C26.5406 17.6607 26.4397 17.9095 26.2377 18.1103C26.0358 18.3112 25.7855 18.4116 25.4869 18.4116ZM12.0399 15.863C10.5111 15.863 9.26098 15.3783 8.28965 14.4089C7.31832 13.4394 6.83265 12.1916 6.83265 10.6654C6.83265 9.13918 7.31793 7.89081 8.28848 6.92028C9.25904 5.94974 10.5082 5.46448 12.0359 5.46448C13.5637 5.46448 14.8128 5.94974 15.7834 6.92028C16.7539 7.89081 17.2392 9.13918 17.2392 10.6654C17.2392 12.1916 16.7543 13.4394 15.7845 14.4089C14.8148 15.3783 13.5666 15.863 12.0399 15.863ZM2.30148 26.9696C1.98095 26.9696 1.71157 26.8605 1.49335 26.6422C1.27513 26.424 1.16602 26.1546 1.16602 25.8341V23.6242C1.16602 22.8055 1.37715 22.0654 1.79942 21.4039C2.22173 20.7425 2.80334 20.2453 3.54425 19.9123C5.22154 19.1737 6.71625 18.653 8.02838 18.3504C9.34052 18.0477 10.6759 17.8964 12.0345 17.8964C13.3927 17.8964 14.7298 18.0477 16.0457 18.3504C17.3616 18.653 18.8445 19.1737 20.4942 19.9123C21.2391 20.2607 21.8272 20.7602 22.2587 21.411C22.6901 22.0618 22.9058 22.7984 22.9058 23.621V25.8341C22.9058 26.1546 22.7967 26.424 22.5785 26.6422C22.3603 26.8605 22.0909 26.9696 21.7703 26.9696H2.30148ZM3.44498 24.6986H20.6348V23.6529C20.6348 23.3005 20.5446 22.9645 20.3642 22.6448C20.1837 22.3252 19.9073 22.0887 19.5348 21.9355C18.0005 21.1959 16.69 20.7177 15.6033 20.5007C14.5167 20.2838 13.3275 20.1754 12.0359 20.1754C10.755 20.1754 9.5672 20.2894 8.47252 20.5174C7.37783 20.7454 6.05754 21.2181 4.51165 21.9355C4.173 22.0887 3.91056 22.3252 3.72432 22.6448C3.53809 22.9645 3.44498 23.3005 3.44498 23.6529V24.6986ZM12.0356 13.592C12.8839 13.592 13.5847 13.3158 14.1381 12.7632C14.6915 12.2106 14.9681 11.5109 14.9681 10.664C14.9681 9.815 14.6919 9.11465 14.1393 8.56301C13.5868 8.01134 12.887 7.73551 12.0402 7.73551C11.1893 7.73551 10.4884 8.01147 9.93772 8.56338C9.387 9.11527 9.11165 9.81418 9.11165 10.6601C9.11165 11.5082 9.38692 12.2089 9.93745 12.7621C10.488 13.3154 11.1874 13.592 12.0356 13.592Z" fill="#555555"/>
</g>
</svg>
