<svg width="16" height="16" viewBox="0 0 16 16" fill="none" xmlns="http://www.w3.org/2000/svg">
<g id="person_FILL0_wght300_GRAD0_opsz48 1">
<path id="Vector" d="M7.99998 7.7846C7.35833 7.7846 6.82933 7.57643 6.41298 7.16008C5.99664 6.74374 5.78847 6.21367 5.78847 5.56988C5.78847 4.92608 5.99664 4.39708 6.41298 3.98286C6.82933 3.56866 7.35833 3.36156 7.99998 3.36156C8.64164 3.36156 9.17064 3.56866 9.58698 3.98286C10.0033 4.39708 10.2115 4.92608 10.2115 5.56988C10.2115 6.21367 10.0033 6.74374 9.58698 7.16008C9.17064 7.57643 8.64164 7.7846 7.99998 7.7846ZM12.2308 12.8718H3.76922C3.55833 12.8718 3.37741 12.7963 3.22645 12.6453C3.07548 12.4944 3 12.3134 3 12.1025V11.6064C3 11.2483 3.09487 10.9363 3.28462 10.6705C3.47436 10.4047 3.72094 10.2004 4.02437 10.0577C4.72607 9.74573 5.40249 9.51069 6.05363 9.35257C6.70479 9.19445 7.35351 9.1154 7.99978 9.1154C8.64607 9.1154 9.29314 9.19617 9.941 9.3577C10.5889 9.51923 11.2623 9.75408 11.9612 10.0622C12.2765 10.2046 12.5284 10.408 12.717 10.6725C12.9057 10.937 13 11.2483 13 11.6064V12.1025C13 12.3134 12.9245 12.4944 12.7735 12.6453C12.6226 12.7963 12.4416 12.8718 12.2308 12.8718ZM3.7564 12.1154H12.2436V11.6064C12.2436 11.4329 12.1887 11.2667 12.0788 11.1077C11.969 10.9487 11.8256 10.8239 11.6487 10.7333C10.9931 10.4145 10.3748 10.1912 9.79365 10.0634C9.21252 9.93567 8.61463 9.87178 7.99998 9.87178C7.38534 9.87178 6.78296 9.93567 6.19285 10.0634C5.60274 10.1912 4.98546 10.4145 4.34102 10.7333C4.16409 10.8239 4.02243 10.9487 3.91602 11.1077C3.80961 11.2667 3.7564 11.4329 3.7564 11.6064V12.1154ZM7.99998 7.02822C8.41622 7.02822 8.76279 6.88975 9.03972 6.61281C9.31664 6.33589 9.4551 5.98932 9.4551 5.57308C9.4551 5.15685 9.31664 4.81027 9.03972 4.53335C8.76279 4.25643 8.41622 4.11797 7.99998 4.11797C7.58375 4.11797 7.23717 4.25643 6.96025 4.53335C6.68333 4.81027 6.54487 5.15685 6.54487 5.57308C6.54487 5.98932 6.68333 6.33589 6.96025 6.61281C7.23717 6.88975 7.58375 7.02822 7.99998 7.02822Z" fill="#555555"/>
</g>
</svg>
