<svg width="28" height="28" viewBox="0 0 28 28" fill="none" xmlns="http://www.w3.org/2000/svg">
<g id="public_FILL0_wght500_GRAD0_opsz48 1">
<path id="Vector" d="M14.0062 25.841C12.369 25.841 10.8304 25.5301 9.39035 24.9083C7.95036 24.2865 6.69594 23.442 5.6271 22.3747C4.55825 21.3075 3.71305 20.054 3.09149 18.6143C2.46995 17.1747 2.15918 15.6364 2.15918 13.9996C2.15918 12.3627 2.46995 10.8246 3.09149 9.38531C3.71305 7.94597 4.55825 6.69266 5.6271 5.62535C6.69594 4.55802 7.95063 3.7123 9.39117 3.08817C10.8317 2.46404 12.3709 2.15198 14.0088 2.15198C15.6466 2.15198 17.1845 2.46404 18.6223 3.08817C20.0601 3.7123 21.313 4.5575 22.3809 5.62377C23.4489 6.69005 24.2937 7.94324 24.9155 9.38336C25.5373 10.8235 25.8482 12.3622 25.8482 13.9996C25.8482 15.637 25.5375 17.1756 24.9162 18.6155C24.2948 20.0553 23.4499 21.3091 22.3814 22.3768C21.3129 23.4445 20.0588 24.2888 18.6191 24.9097C17.1794 25.5306 15.6418 25.841 14.0062 25.841ZM12.76 23.8247V21.44C12.0794 21.44 11.5081 21.1886 11.046 20.6858C10.5839 20.183 10.3529 19.5932 10.3529 18.9165V17.6401L4.41578 11.7028C4.31855 12.0917 4.2505 12.4734 4.21161 12.8479C4.17272 13.2224 4.15328 13.6028 4.15328 13.9891C4.15328 16.4994 4.969 18.6944 6.60045 20.5743C8.23187 22.4543 10.2851 23.5377 12.76 23.8247ZM21.2792 20.6956C21.7023 20.2336 22.0731 19.7413 22.3916 19.2186C22.7101 18.6959 22.98 18.149 23.2013 17.5777C23.4226 17.0064 23.5867 16.4209 23.6937 15.8212C23.8006 15.2215 23.8541 14.6098 23.8541 13.9861C23.8541 11.9442 23.2949 10.088 22.1764 8.41733C21.0579 6.74666 19.5626 5.52476 17.6904 4.75163V5.26966C17.6904 5.94446 17.4568 6.53259 16.9894 7.03404C16.522 7.53551 15.951 7.78625 15.2763 7.78625H12.76V10.3077C12.76 10.6396 12.6287 10.9114 12.3662 11.123C12.1037 11.3345 11.8065 11.4403 11.4746 11.4403H9.07676V13.9861H16.5543C16.8829 13.9861 17.1544 14.1128 17.3688 14.3662C17.5832 14.6197 17.6904 14.9104 17.6904 15.2385V18.9165H18.9306C19.4899 18.9165 19.9824 19.0818 20.4082 19.4123C20.8341 19.7429 21.1244 20.1706 21.2792 20.6956Z" fill="#555555"/>
</g>
</svg>
