<svg width="24" height="24" viewBox="0 0 24 24" fill="none" xmlns="http://www.w3.org/2000/svg">
<g id="search_FILL0_wght500_GRAD0_opsz48 1">
<path id="Vector" d="M9.41393 15.8766C7.58335 15.8766 6.03376 15.2416 4.76518 13.9717C3.4966 12.7018 2.8623 11.1695 2.8623 9.37498C2.8623 7.58041 3.49727 6.04816 4.7672 4.77823C6.03712 3.50831 7.57353 2.87335 9.37643 2.87335C11.1793 2.87335 12.7116 3.50831 13.9732 4.77823C15.2348 6.04816 15.8656 7.58166 15.8656 9.37873C15.8656 10.1009 15.7519 10.7923 15.5245 11.453C15.2972 12.1137 14.9561 12.7337 14.5014 13.313L20.5156 19.2771C20.6855 19.4436 20.7705 19.65 20.7705 19.8963C20.7705 20.1426 20.6855 20.3507 20.5156 20.5206C20.3435 20.6945 20.1339 20.7815 19.8867 20.7815C19.6395 20.7815 19.4346 20.6945 19.2721 20.5206L13.283 14.5375C12.7869 14.9585 12.2069 15.287 11.543 15.5229C10.879 15.7587 10.1693 15.8766 9.41393 15.8766ZM9.39105 14.1734C10.7199 14.1734 11.8473 13.7046 12.7733 12.7672C13.6993 11.8298 14.1623 10.6991 14.1623 9.37498C14.1623 8.05088 13.699 6.92013 12.7724 5.98273C11.8458 5.04531 10.7187 4.5766 9.39105 4.5766C8.04949 4.5766 6.90985 5.04531 5.97213 5.98273C5.03441 6.92013 4.56555 8.05088 4.56555 9.37498C4.56555 10.6991 5.03412 11.8298 5.97125 12.7672C6.90837 13.7046 8.0483 14.1734 9.39105 14.1734Z" fill="#555555"/>
</g>
</svg>
