<svg width="70" height="70" viewBox="0 0 70 70" fill="none" xmlns="http://www.w3.org/2000/svg">
<path d="M1.5 10C1.5 5.30558 5.30558 1.5 10 1.5H68.5V68.5H10C5.30558 68.5 1.5 64.6944 1.5 60V10Z" stroke="#555555" stroke-width="3" stroke-linejoin="bevel"/>
<path d="M44.9902 50.5C44.666 50.5 44.3974 50.3912 44.1846 50.1738C43.9718 49.9563 43.8654 49.6869 43.8654 49.3654V42.1346H36.6346C36.3131 42.1346 36.0437 42.0249 35.8262 41.8056C35.6088 41.5862 35.5 41.3144 35.5 40.9902C35.5 40.666 35.6088 40.3975 35.8262 40.1847C36.0437 39.9718 36.3131 39.8654 36.6346 39.8654H43.8654V32.6347C43.8654 32.3132 43.9751 32.0437 44.1944 31.8263C44.4138 31.6088 44.6856 31.5001 45.0098 31.5001C45.334 31.5001 45.6026 31.6088 45.8153 31.8263C46.0282 32.0437 46.1346 32.3132 46.1346 32.6347V39.8654H53.3653C53.6868 39.8654 53.9563 39.9751 54.1737 40.1944C54.3912 40.4138 54.5 40.6856 54.5 41.0098C54.5 41.334 54.3912 41.6026 54.1737 41.8154C53.9563 42.0282 53.6868 42.1346 53.3653 42.1346H46.1346V49.3654C46.1346 49.6869 46.0249 49.9563 45.8056 50.1738C45.5862 50.3912 45.3144 50.5 44.9902 50.5ZM18.6346 42.1346C18.3131 42.1346 18.0437 42.0249 17.8262 41.8056C17.6088 41.5862 17.5 41.3144 17.5 40.9902C17.5 40.666 17.6088 40.3975 17.8262 40.1847C18.0437 39.9718 18.3131 39.8654 18.6346 39.8654H31.0962C31.4177 39.8654 31.6871 39.9751 31.9046 40.1944C32.1221 40.4138 32.2308 40.6856 32.2308 41.0098C32.2308 41.334 32.1221 41.6026 31.9046 41.8154C31.6871 42.0282 31.4177 42.1346 31.0962 42.1346H18.6346ZM18.6346 33.9423C18.3131 33.9423 18.0437 33.8327 17.8262 33.6134C17.6088 33.3941 17.5 33.1224 17.5 32.7983C17.5 32.4866 17.6088 32.2212 17.8262 32.002C18.0437 31.7827 18.3131 31.6731 18.6346 31.6731H39.4615C39.783 31.6731 40.0525 31.7859 40.2699 32.0114C40.4874 32.2369 40.5961 32.5087 40.5961 32.8268C40.5961 33.1448 40.4874 33.4103 40.2699 33.6231C40.0525 33.8359 39.783 33.9423 39.4615 33.9423H18.6346ZM18.6346 25.7692C18.3131 25.7692 18.0437 25.6595 17.8262 25.4402C17.6088 25.2209 17.5 24.9491 17.5 24.6249C17.5 24.3006 17.6088 24.0321 17.8262 23.8193C18.0437 23.6065 18.3131 23.5001 18.6346 23.5001H39.4615C39.783 23.5001 40.0525 23.6097 40.2699 23.8291C40.4874 24.0484 40.5961 24.3202 40.5961 24.6444C40.5961 24.9686 40.4874 25.2372 40.2699 25.45C40.0525 25.6628 39.783 25.7692 39.4615 25.7692H18.6346Z" fill="#555555"/>
</svg>
