<svg width="70" height="70" viewBox="0 0 70 70" fill="none" xmlns="http://www.w3.org/2000/svg">
<path d="M0 10C0 4.47715 4.47715 0 10 0H70V70H10C4.47715 70 0 65.5229 0 60V10Z" fill="#E1CAFE"/>
<path d="M1.5 10C1.5 5.30558 5.30558 1.5 10 1.5H68.5V68.5H10C5.30558 68.5 1.5 64.6944 1.5 60V10Z" stroke="#555555" stroke-width="3" stroke-linejoin="bevel"/>
<path d="M18.7923 48C17.7436 48 16.9251 47.6423 16.3366 46.9269C15.7482 46.2115 15.5347 45.2769 15.6962 44.1231L18.0577 27.7193C18.2859 26.1449 19.0116 24.7981 20.2346 23.6789C21.4577 22.5597 22.8628 22.0001 24.45 22.0001H45.6C47.1743 22.0001 48.573 22.5597 49.7961 23.6789C51.0192 24.7981 51.7512 26.1449 51.9922 27.7193L54.3038 44.1231C54.4653 45.2769 54.2518 46.2115 53.6634 46.9269C53.0749 47.6423 52.2628 48 51.2269 48C50.6013 48 50.0731 47.9038 49.6423 47.7115C49.2115 47.5192 48.8385 47.2653 48.5231 46.95L43.2077 41.6346H26.7923L21.4769 46.95C21.1615 47.2653 20.7885 47.5192 20.3577 47.7115C19.9269 47.9038 19.4051 48 18.7923 48ZM19.6539 45.5115L25.8 39.3654H44.2L50.3461 45.5115C50.4871 45.6397 50.7679 45.7705 51.1884 45.9038C51.5012 45.9038 51.7391 45.7666 51.9019 45.4923C52.0647 45.2179 52.1192 44.9243 52.0653 44.6115L49.723 28.0654C49.5564 26.9628 49.0711 26.0545 48.2673 25.3404C47.4634 24.6263 46.5743 24.2693 45.6 24.2693H24.4C23.4257 24.2693 22.5366 24.6263 21.7327 25.3404C20.9289 26.0545 20.45 26.9628 20.2962 28.0654L17.9346 44.6115C17.8808 44.9243 17.9353 45.2179 18.0981 45.4923C18.2609 45.7666 18.5052 45.9038 18.8308 45.9038C19.0385 45.9038 19.3129 45.773 19.6539 45.5115ZM45.7307 36.8077C46.2128 36.8077 46.6346 36.6269 46.9961 36.2654C47.3577 35.9038 47.5384 35.482 47.5384 35C47.5384 34.518 47.3577 34.0962 46.9961 33.7347C46.6346 33.3731 46.2128 33.1923 45.7307 33.1923C45.2487 33.1923 44.8269 33.3731 44.4653 33.7347C44.1038 34.0962 43.923 34.518 43.923 35C43.923 35.482 44.1038 35.9038 44.4653 36.2654C44.8269 36.6269 45.2487 36.8077 45.7307 36.8077ZM41.5577 30.4423C42.0269 30.4423 42.4455 30.2615 42.8134 29.9C43.1814 29.5385 43.3653 29.1167 43.3653 28.6347C43.3653 28.1526 43.1814 27.7308 42.8134 27.3693C42.4455 27.0077 42.0269 26.827 41.5577 26.827C41.0756 26.827 40.6538 27.0077 40.2923 27.3693C39.9308 27.7308 39.75 28.1526 39.75 28.6347C39.75 29.1167 39.9308 29.5385 40.2923 29.9C40.6538 30.2615 41.0756 30.4423 41.5577 30.4423ZM22.7692 32.8269H24.6115C25.1321 32.8269 25.5673 33.0083 25.9173 33.3712C26.2673 33.734 26.4423 34.2077 26.4423 34.7923C26.4423 35.2615 26.6096 35.6635 26.9442 35.9981C27.2789 36.3327 27.6872 36.5 28.1692 36.5H28.4615V34.6577C28.4615 34.1372 28.6481 33.7019 29.0211 33.3519C29.3942 33.0019 29.8731 32.8269 30.4577 32.8269C30.9397 32.8269 31.3429 32.6596 31.6673 32.325C31.9917 31.9904 32.1538 31.582 32.1538 31.1V30.8077H30.2923C29.7718 30.8077 29.3365 30.6212 28.9865 30.2481C28.6365 29.875 28.4615 29.3962 28.4615 28.8116C28.4615 28.3295 28.2994 27.9263 27.975 27.602C27.6506 27.2776 27.2474 27.1154 26.7654 27.1154H26.4423V28.977C26.4423 29.4975 26.2609 29.9327 25.8981 30.2827C25.5353 30.6327 25.0616 30.8077 24.4769 30.8077C24.0077 30.8077 23.6058 30.9699 23.2712 31.2943C22.9366 31.6186 22.7692 32.0218 22.7692 32.5039V32.8269Z" fill="#555555"/>
</svg>
