<svg width="12" height="12" viewBox="0 0 12 12" fill="none" xmlns="http://www.w3.org/2000/svg">
<path d="M2.36243 11.2688C1.84051 11.2688 1.39619 11.083 1.02945 10.7115C0.662718 10.3401 0.471627 9.89028 0.456177 9.36222C0.456177 9.28542 0.460343 9.20802 0.468677 9.13003C0.47701 9.05204 0.490506 8.97455 0.509164 8.89756L1.55916 4.69457C1.67981 4.23062 1.92552 3.85408 2.29628 3.56496C2.66704 3.27582 3.08909 3.13126 3.56243 3.13126H8.43743C8.91077 3.13126 9.33282 3.27582 9.70358 3.56496C10.0743 3.85408 10.321 4.23062 10.4437 4.69457L11.4937 8.89457C11.5103 8.97355 11.5249 9.05364 11.5374 9.13484C11.5499 9.21604 11.5562 9.29605 11.5562 9.37487C11.5562 9.90307 11.3685 10.3508 10.9931 10.718C10.6176 11.0852 10.1657 11.2688 9.63738 11.2688C9.27346 11.2688 8.93602 11.1736 8.62506 10.9833C8.31411 10.793 8.08064 10.5335 7.92465 10.2049L7.57465 9.47989C7.53897 9.40852 7.48568 9.35548 7.41478 9.32079C7.34388 9.2861 7.2681 9.26876 7.18743 9.26876H4.81243C4.73175 9.26876 4.65597 9.2861 4.58508 9.32079C4.51418 9.35548 4.46089 9.40852 4.4252 9.47989L4.0752 10.2049C3.91922 10.5335 3.68567 10.793 3.37455 10.9833C3.06344 11.1736 2.72606 11.2688 2.36243 11.2688ZM2.39571 10.4171C2.59266 10.4171 2.77373 10.3646 2.93891 10.2594C3.10411 10.1543 3.23115 10.0129 3.32004 9.83506L3.67004 9.12256C3.7783 8.9004 3.93363 8.72728 4.13603 8.60322C4.33842 8.47916 4.56389 8.41713 4.81243 8.41713H7.18743C7.43589 8.41713 7.66078 8.48131 7.86211 8.60966C8.06345 8.73801 8.22451 8.90897 8.3453 9.12256L8.6953 9.83506C8.7822 10.0129 8.90825 10.1543 9.07344 10.2594C9.23862 10.3646 9.41935 10.4171 9.61561 10.4171C9.90516 10.4171 10.1549 10.318 10.3647 10.1198C10.5746 9.92165 10.6837 9.67754 10.6921 9.38751C10.6921 9.34421 10.6796 9.24719 10.6546 9.09647L9.60455 4.90897C9.53988 4.64194 9.40043 4.42084 9.1862 4.24566C8.97198 4.07047 8.72239 3.98288 8.43743 3.98288H3.56243C3.2821 3.98288 3.03359 4.06833 2.81688 4.23922C2.60017 4.4101 2.45964 4.63335 2.3953 4.90897L1.3453 9.09647C1.34096 9.11984 1.32846 9.21269 1.3078 9.37501C1.3078 9.67035 1.41433 9.91787 1.62739 10.1176C1.84045 10.3173 2.09656 10.4171 2.39571 10.4171ZM6.75211 6.57501C6.85899 6.57501 6.94784 6.53886 7.01868 6.46657C7.08951 6.39427 7.12493 6.30469 7.12493 6.19782C7.12493 6.09094 7.08878 6.00209 7.01649 5.93126C6.94419 5.86042 6.85461 5.82501 6.74774 5.82501C6.64086 5.82501 6.55201 5.86115 6.48118 5.93344C6.41034 6.00574 6.37493 6.09533 6.37493 6.20219C6.37493 6.30907 6.41107 6.39792 6.48336 6.46876C6.55566 6.53959 6.64525 6.57501 6.75211 6.57501ZM7.75211 5.57501C7.85899 5.57501 7.94784 5.53886 8.01868 5.46657C8.08951 5.39427 8.12493 5.30469 8.12493 5.19782C8.12493 5.09094 8.08878 5.00209 8.01649 4.93126C7.94419 4.86042 7.85461 4.82501 7.74774 4.82501C7.64086 4.82501 7.55201 4.86115 7.48118 4.93344C7.41034 5.00574 7.37493 5.09533 7.37493 5.20219C7.37493 5.30907 7.41107 5.39792 7.48336 5.46876C7.55566 5.53959 7.64525 5.57501 7.75211 5.57501ZM7.75211 7.57501C7.85899 7.57501 7.94784 7.53886 8.01868 7.46657C8.08951 7.39427 8.12493 7.30469 8.12493 7.19782C8.12493 7.09094 8.08878 7.00209 8.01649 6.93126C7.94419 6.86042 7.85461 6.82501 7.74774 6.82501C7.64086 6.82501 7.55201 6.86115 7.48118 6.93344C7.41034 7.00574 7.37493 7.09533 7.37493 7.20219C7.37493 7.30907 7.41107 7.39792 7.48336 7.46876C7.55566 7.53959 7.64525 7.57501 7.75211 7.57501ZM8.75211 6.57501C8.85899 6.57501 8.94784 6.53886 9.01868 6.46657C9.08951 6.39427 9.12493 6.30469 9.12493 6.19782C9.12493 6.09094 9.08878 6.00209 9.01649 5.93126C8.94419 5.86042 8.85461 5.82501 8.74774 5.82501C8.64086 5.82501 8.55201 5.86115 8.48118 5.93344C8.41034 6.00574 8.37493 6.09533 8.37493 6.20219C8.37493 6.30907 8.41107 6.39792 8.48336 6.46876C8.55566 6.53959 8.64525 6.57501 8.75211 6.57501ZM4.25138 7.38751C4.34208 7.38751 4.41659 7.35799 4.47493 7.29897C4.53326 7.23993 4.56243 7.16528 4.56243 7.07501V6.51251H5.12493C5.2152 6.51251 5.28986 6.48286 5.34889 6.42356C5.40791 6.36425 5.43743 6.28925 5.43743 6.19856C5.43743 6.10786 5.40791 6.03334 5.34889 5.97501C5.28986 5.91667 5.2152 5.88751 5.12493 5.88751H4.56243V5.32501C4.56243 5.23473 4.53278 5.16008 4.47348 5.10104C4.41417 5.04202 4.33917 5.01251 4.24848 5.01251C4.15778 5.01251 4.08326 5.04202 4.02493 5.10104C3.96659 5.16008 3.93743 5.23473 3.93743 5.32501V5.88751H3.37493C3.28465 5.88751 3.21 5.91716 3.15096 5.97646C3.09194 6.03576 3.06243 6.11076 3.06243 6.20146C3.06243 6.29216 3.09194 6.36667 3.15096 6.42501C3.21 6.48334 3.28465 6.51251 3.37493 6.51251H3.93743V7.07501C3.93743 7.16528 3.96708 7.23993 4.02638 7.29897C4.08569 7.35799 4.16069 7.38751 4.25138 7.38751Z" fill="#555555"/>
</svg>
