<svg width="12" height="12" viewBox="0 0 12 12" fill="none" xmlns="http://www.w3.org/2000/svg">
<path d="M2.36243 11.2687C1.84051 11.2687 1.39619 11.083 1.02945 10.7115C0.662718 10.3401 0.471627 9.89028 0.456177 9.36221C0.456177 9.28541 0.460343 9.20801 0.468677 9.13002C0.47701 9.05203 0.490506 8.97454 0.509164 8.89755L1.55916 4.69456C1.67981 4.23061 1.92552 3.85407 2.29628 3.56495C2.66704 3.27581 3.08909 3.13125 3.56243 3.13125H8.43743C8.91077 3.13125 9.33282 3.27581 9.70358 3.56495C10.0743 3.85407 10.321 4.23061 10.4437 4.69456L11.4937 8.89456C11.5103 8.97354 11.5249 9.05364 11.5374 9.13484C11.5499 9.21604 11.5562 9.29604 11.5562 9.37486C11.5562 9.90306 11.3685 10.3508 10.9931 10.718C10.6176 11.0852 10.1657 11.2687 9.63738 11.2687C9.27346 11.2687 8.93602 11.1736 8.62506 10.9833C8.31411 10.793 8.08064 10.5335 7.92465 10.2049L7.57465 9.47989C7.53897 9.40851 7.48568 9.35548 7.41478 9.32079C7.34388 9.28609 7.2681 9.26875 7.18743 9.26875H4.81243C4.73175 9.26875 4.65597 9.28609 4.58508 9.32079C4.51418 9.35548 4.46089 9.40851 4.4252 9.47989L4.0752 10.2049C3.91922 10.5335 3.68567 10.793 3.37455 10.9833C3.06344 11.1736 2.72606 11.2687 2.36243 11.2687ZM2.39571 10.4171C2.59266 10.4171 2.77373 10.3646 2.93891 10.2594C3.10411 10.1543 3.23115 10.0129 3.32004 9.83505L3.67004 9.12255C3.7783 8.90039 3.93363 8.72728 4.13603 8.60321C4.33842 8.47915 4.56389 8.41712 4.81243 8.41712H7.18743C7.43589 8.41712 7.66078 8.4813 7.86211 8.60965C8.06345 8.738 8.22451 8.90896 8.3453 9.12255L8.6953 9.83505C8.7822 10.0129 8.90825 10.1543 9.07344 10.2594C9.23862 10.3646 9.41935 10.4171 9.61561 10.4171C9.90516 10.4171 10.1549 10.318 10.3647 10.1198C10.5746 9.92164 10.6837 9.67753 10.6921 9.3875C10.6921 9.3442 10.6796 9.24719 10.6546 9.09646L9.60455 4.90896C9.53988 4.64194 9.40043 4.42083 9.1862 4.24565C8.97198 4.07046 8.72239 3.98287 8.43743 3.98287H3.56243C3.2821 3.98287 3.03359 4.06832 2.81688 4.23921C2.60017 4.41009 2.45964 4.63334 2.3953 4.90896L1.3453 9.09646C1.34096 9.11984 1.32846 9.21268 1.3078 9.375C1.3078 9.67034 1.41433 9.91786 1.62739 10.1176C1.84045 10.3173 2.09656 10.4171 2.39571 10.4171ZM6.75211 6.575C6.85899 6.575 6.94784 6.53885 7.01868 6.46656C7.08951 6.39426 7.12493 6.30468 7.12493 6.19781C7.12493 6.09094 7.08878 6.00208 7.01649 5.93125C6.94419 5.86041 6.85461 5.825 6.74774 5.825C6.64086 5.825 6.55201 5.86114 6.48118 5.93344C6.41034 6.00574 6.37493 6.09532 6.37493 6.20219C6.37493 6.30906 6.41107 6.39791 6.48336 6.46875C6.55566 6.53958 6.64525 6.575 6.75211 6.575ZM7.75211 5.575C7.85899 5.575 7.94784 5.53885 8.01868 5.46656C8.08951 5.39426 8.12493 5.30468 8.12493 5.19781C8.12493 5.09094 8.08878 5.00208 8.01649 4.93125C7.94419 4.86041 7.85461 4.825 7.74774 4.825C7.64086 4.825 7.55201 4.86114 7.48118 4.93344C7.41034 5.00574 7.37493 5.09532 7.37493 5.20219C7.37493 5.30906 7.41107 5.39792 7.48336 5.46875C7.55566 5.53958 7.64525 5.575 7.75211 5.575ZM7.75211 7.575C7.85899 7.575 7.94784 7.53885 8.01868 7.46656C8.08951 7.39426 8.12493 7.30468 8.12493 7.19781C8.12493 7.09094 8.08878 7.00208 8.01649 6.93125C7.94419 6.86041 7.85461 6.825 7.74774 6.825C7.64086 6.825 7.55201 6.86114 7.48118 6.93344C7.41034 7.00574 7.37493 7.09532 7.37493 7.20219C7.37493 7.30906 7.41107 7.39791 7.48336 7.46875C7.55566 7.53958 7.64525 7.575 7.75211 7.575ZM8.75211 6.575C8.85899 6.575 8.94784 6.53885 9.01868 6.46656C9.08951 6.39426 9.12493 6.30468 9.12493 6.19781C9.12493 6.09094 9.08878 6.00208 9.01649 5.93125C8.94419 5.86041 8.85461 5.825 8.74774 5.825C8.64086 5.825 8.55201 5.86114 8.48118 5.93344C8.41034 6.00574 8.37493 6.09532 8.37493 6.20219C8.37493 6.30906 8.41107 6.39791 8.48336 6.46875C8.55566 6.53958 8.64525 6.575 8.75211 6.575ZM4.25138 7.3875C4.34208 7.3875 4.41659 7.35799 4.47493 7.29896C4.53326 7.23993 4.56243 7.16527 4.56243 7.075V6.5125H5.12493C5.2152 6.5125 5.28986 6.48285 5.34889 6.42355C5.40791 6.36424 5.43743 6.28924 5.43743 6.19855C5.43743 6.10785 5.40791 6.03333 5.34889 5.975C5.28986 5.91667 5.2152 5.8875 5.12493 5.8875H4.56243V5.325C4.56243 5.23472 4.53278 5.16007 4.47348 5.10104C4.41417 5.04201 4.33917 5.0125 4.24848 5.0125C4.15778 5.0125 4.08326 5.04201 4.02493 5.10104C3.96659 5.16007 3.93743 5.23472 3.93743 5.325V5.8875H3.37493C3.28465 5.8875 3.21 5.91715 3.15096 5.97645C3.09194 6.03576 3.06243 6.11076 3.06243 6.20145C3.06243 6.29215 3.09194 6.36666 3.15096 6.425C3.21 6.48333 3.28465 6.5125 3.37493 6.5125H3.93743V7.075C3.93743 7.16527 3.96708 7.23993 4.02638 7.29896C4.08569 7.35799 4.16069 7.3875 4.25138 7.3875Z" fill="#555555"/>
</svg>
