<svg width="12" height="12" viewBox="0 0 12 12" fill="none" xmlns="http://www.w3.org/2000/svg">
<path d="M2.36243 11.2687C1.84051 11.2687 1.39619 11.083 1.02945 10.7115C0.662718 10.34 0.471627 9.89025 0.456177 9.36219C0.456177 9.28539 0.460343 9.20799 0.468677 9.13C0.47701 9.05201 0.490506 8.97452 0.509164 8.89752L1.55916 4.69454C1.67981 4.23059 1.92552 3.85405 2.29628 3.56493C2.66704 3.27579 3.08909 3.13123 3.56243 3.13123H8.43743C8.91077 3.13123 9.33282 3.27579 9.70358 3.56493C10.0743 3.85405 10.321 4.23059 10.4437 4.69454L11.4937 8.89454C11.5103 8.97352 11.5249 9.05361 11.5374 9.13481C11.5499 9.21601 11.5562 9.29602 11.5562 9.37484C11.5562 9.90304 11.3685 10.3507 10.9931 10.7179C10.6176 11.0851 10.1657 11.2687 9.63738 11.2687C9.27346 11.2687 8.93602 11.1736 8.62506 10.9833C8.31411 10.793 8.08064 10.5335 7.92465 10.2049L7.57465 9.47986C7.53897 9.40849 7.48568 9.35545 7.41478 9.32076C7.34388 9.28607 7.2681 9.26873 7.18743 9.26873H4.81243C4.73175 9.26873 4.65597 9.28607 4.58508 9.32076C4.51418 9.35545 4.46089 9.40849 4.4252 9.47986L4.0752 10.2049C3.91922 10.5335 3.68567 10.793 3.37455 10.9833C3.06344 11.1736 2.72606 11.2687 2.36243 11.2687ZM2.39571 10.4171C2.59266 10.4171 2.77373 10.3645 2.93891 10.2594C3.10411 10.1543 3.23115 10.0128 3.32004 9.83502L3.67004 9.12253C3.7783 8.90037 3.93363 8.72725 4.13603 8.60319C4.33842 8.47913 4.56389 8.4171 4.81243 8.4171H7.18743C7.43589 8.4171 7.66078 8.48128 7.86211 8.60963C8.06345 8.73798 8.22451 8.90894 8.3453 9.12253L8.6953 9.83502C8.7822 10.0128 8.90825 10.1543 9.07344 10.2594C9.23862 10.3645 9.41935 10.4171 9.61561 10.4171C9.90516 10.4171 10.1549 10.318 10.3647 10.1198C10.5746 9.92162 10.6837 9.67751 10.6921 9.38748C10.6921 9.34418 10.6796 9.24716 10.6546 9.09644L9.60455 4.90894C9.53988 4.64191 9.40043 4.42081 9.1862 4.24563C8.97198 4.07044 8.72239 3.98285 8.43743 3.98285H3.56243C3.2821 3.98285 3.03359 4.0683 2.81688 4.23919C2.60017 4.41007 2.45964 4.63332 2.3953 4.90894L1.3453 9.09644C1.34096 9.11981 1.32846 9.21266 1.3078 9.37498C1.3078 9.67032 1.41433 9.91784 1.62739 10.1175C1.84045 10.3172 2.09656 10.4171 2.39571 10.4171ZM6.75211 6.57498C6.85899 6.57498 6.94784 6.53883 7.01868 6.46654C7.08951 6.39424 7.12493 6.30465 7.12493 6.19779C7.12493 6.09091 7.08878 6.00206 7.01649 5.93123C6.94419 5.86039 6.85461 5.82498 6.74774 5.82498C6.64086 5.82498 6.55201 5.86112 6.48118 5.93341C6.41034 6.00571 6.37493 6.0953 6.37493 6.20216C6.37493 6.30904 6.41107 6.39789 6.48336 6.46873C6.55566 6.53956 6.64525 6.57498 6.75211 6.57498ZM7.75211 5.57498C7.85899 5.57498 7.94784 5.53883 8.01868 5.46654C8.08951 5.39424 8.12493 5.30465 8.12493 5.19779C8.12493 5.09091 8.08878 5.00206 8.01649 4.93123C7.94419 4.86039 7.85461 4.82498 7.74774 4.82498C7.64086 4.82498 7.55201 4.86112 7.48118 4.93341C7.41034 5.00571 7.37493 5.0953 7.37493 5.20216C7.37493 5.30904 7.41107 5.39789 7.48336 5.46873C7.55566 5.53956 7.64525 5.57498 7.75211 5.57498ZM7.75211 7.57498C7.85899 7.57498 7.94784 7.53883 8.01868 7.46654C8.08951 7.39424 8.12493 7.30465 8.12493 7.19779C8.12493 7.09091 8.08878 7.00206 8.01649 6.93123C7.94419 6.86039 7.85461 6.82498 7.74774 6.82498C7.64086 6.82498 7.55201 6.86112 7.48118 6.93341C7.41034 7.00571 7.37493 7.0953 7.37493 7.20216C7.37493 7.30904 7.41107 7.39789 7.48336 7.46873C7.55566 7.53956 7.64525 7.57498 7.75211 7.57498ZM8.75211 6.57498C8.85899 6.57498 8.94784 6.53883 9.01868 6.46654C9.08951 6.39424 9.12493 6.30465 9.12493 6.19779C9.12493 6.09091 9.08878 6.00206 9.01649 5.93123C8.94419 5.86039 8.85461 5.82498 8.74774 5.82498C8.64086 5.82498 8.55201 5.86112 8.48118 5.93341C8.41034 6.00571 8.37493 6.0953 8.37493 6.20216C8.37493 6.30904 8.41107 6.39789 8.48336 6.46873C8.55566 6.53956 8.64525 6.57498 8.75211 6.57498ZM4.25138 7.38748C4.34208 7.38748 4.41659 7.35796 4.47493 7.29894C4.53326 7.2399 4.56243 7.16525 4.56243 7.07498V6.51248H5.12493C5.2152 6.51248 5.28986 6.48283 5.34889 6.42353C5.40791 6.36422 5.43743 6.28922 5.43743 6.19852C5.43743 6.10783 5.40791 6.03331 5.34889 5.97498C5.28986 5.91664 5.2152 5.88748 5.12493 5.88748H4.56243V5.32498C4.56243 5.2347 4.53278 5.16005 4.47348 5.10101C4.41417 5.04199 4.33917 5.01248 4.24848 5.01248C4.15778 5.01248 4.08326 5.04199 4.02493 5.10101C3.96659 5.16005 3.93743 5.2347 3.93743 5.32498V5.88748H3.37493C3.28465 5.88748 3.21 5.91713 3.15096 5.97643C3.09194 6.03573 3.06243 6.11073 3.06243 6.20143C3.06243 6.29213 3.09194 6.36664 3.15096 6.42498C3.21 6.48331 3.28465 6.51248 3.37493 6.51248H3.93743V7.07498C3.93743 7.16525 3.96708 7.2399 4.02638 7.29894C4.08569 7.35796 4.16069 7.38748 4.25138 7.38748Z" fill="#555555"/>
</svg>
