<svg width="32" height="32" viewBox="0 0 32 32" fill="none" xmlns="http://www.w3.org/2000/svg">
<g id="sweep_FILL0_wght300_GRAD0_opsz48 1">
<path id="Vector" d="M14.3987 23.6666C14.1844 23.6666 14.0048 23.5935 13.8598 23.4473C13.7148 23.301 13.6424 23.1199 13.6424 22.9037C13.6424 22.6875 13.7148 22.5085 13.8598 22.3666C14.0048 22.2248 14.1844 22.1538 14.3987 22.1538H19.7859C20.0002 22.1538 20.1799 22.2269 20.3249 22.3732C20.4698 22.5194 20.5423 22.7006 20.5423 22.9167C20.5423 23.1329 20.4698 23.3119 20.3249 23.4538C20.1799 23.5957 20.0002 23.6666 19.7859 23.6666H14.3987ZM7.75773 21.3974L20.1346 9.0205C20.2748 8.87179 20.4483 8.80086 20.6551 8.8077C20.862 8.81452 21.0398 8.89055 21.1885 9.03577C21.3457 9.19292 21.4244 9.37155 21.4244 9.57164C21.4244 9.77173 21.3457 9.9504 21.1885 10.1077L8.43207 22.864C8.23207 23.0555 8.00496 23.1512 7.75073 23.1512C7.49649 23.1512 7.27403 23.0555 7.08337 22.864L1.21927 17C1.07055 16.8523 0.997488 16.6769 1.00007 16.4738C1.00262 16.2707 1.08078 16.0927 1.23453 15.9397C1.38829 15.7867 1.56607 15.7102 1.76787 15.7102C1.96964 15.7102 2.14489 15.7889 2.2936 15.9461L7.75773 21.3974ZM19.7859 17.9615C19.5716 17.9615 19.392 17.8884 19.247 17.7422C19.102 17.596 19.0295 17.4149 19.0295 17.1988C19.0295 16.991 19.102 16.8141 19.247 16.6679C19.392 16.5218 19.5716 16.4487 19.7859 16.4487H25.2346C25.4489 16.4487 25.6286 16.5239 25.7736 16.6742C25.9185 16.8246 25.991 17.0058 25.991 17.2178C25.991 17.4298 25.9185 17.6068 25.7736 17.7487C25.6286 17.8906 25.4489 17.9615 25.2346 17.9615H19.7859ZM25.2346 12.2692C25.0203 12.2692 24.8407 12.1961 24.6957 12.0499C24.5507 11.9036 24.4782 11.7224 24.4782 11.5063C24.4782 11.2901 24.5507 11.1111 24.6957 10.9692C24.8407 10.8273 25.0203 10.7564 25.2346 10.7564H30.6218C30.8361 10.7564 31.0158 10.8295 31.1607 10.9757C31.3057 11.122 31.3782 11.3032 31.3782 11.5193C31.3782 11.7355 31.3057 11.9145 31.1607 12.0564C31.0158 12.1983 30.8361 12.2692 30.6218 12.2692H25.2346Z" fill="#555555"/>
</g>
</svg>
