<svg width="18" height="16" viewBox="0 0 18 16" fill="none" xmlns="http://www.w3.org/2000/svg">
<path d="M4.19673 8.05625C4.19673 8.83178 4.34136 9.50495 4.63063 10.0757C4.9199 10.6465 5.31155 11.1414 5.80556 11.5605L6.34117 11.9273V10.2724C6.34117 10.1039 6.39653 9.96433 6.50726 9.8536C6.618 9.74286 6.7591 9.6875 6.93056 9.6875C7.09905 9.6875 7.23865 9.74286 7.34938 9.8536C7.46011 9.96433 7.51548 10.1039 7.51548 10.2724V13.4285C7.51548 13.612 7.45488 13.7643 7.33368 13.8855C7.2125 14.0067 7.06019 14.0673 6.87676 14.0673H3.72513C3.55666 14.0673 3.41705 14.0111 3.30631 13.8989C3.19558 13.7867 3.14021 13.6463 3.14021 13.4778C3.14021 13.3094 3.19558 13.1698 3.30631 13.059C3.41705 12.9483 3.55815 12.8929 3.72961 12.8929H5.46562L5.2292 12.6993C4.42621 12.0469 3.83973 11.3434 3.46976 10.5889C3.09978 9.83443 2.91479 8.99021 2.91479 8.05625C2.91479 6.85733 3.23389 5.76453 3.87208 4.77784C4.51025 3.79116 5.36154 3.04632 6.42594 2.54333C6.57839 2.47486 6.7231 2.47934 6.86006 2.55679C6.99701 2.63423 7.09198 2.75216 7.14496 2.91059C7.20746 3.06901 7.20223 3.22832 7.12927 3.38851C7.05631 3.54871 6.94361 3.67079 6.79117 3.75475C6.00312 4.17378 5.3737 4.76793 4.90291 5.53722C4.43213 6.30652 4.19673 7.1462 4.19673 8.05625ZM13.8033 7.94375C13.8033 7.35571 13.6579 6.75755 13.3671 6.14926C13.0764 5.54096 12.6995 5.0023 12.2364 4.53329L11.7196 4.0727V5.72757C11.7196 5.89606 11.6634 6.03566 11.5512 6.14639C11.439 6.25713 11.2986 6.3125 11.1302 6.3125C10.9617 6.3125 10.8213 6.25638 10.7091 6.14416C10.5969 6.03192 10.5408 5.89156 10.5408 5.72309V2.57146C10.5408 2.38803 10.6014 2.23573 10.7226 2.11454C10.8437 1.99334 10.9975 1.93274 11.184 1.93274H14.3311C14.4996 1.93274 14.6399 1.98811 14.7522 2.09884C14.8644 2.20957 14.9205 2.34918 14.9205 2.51766C14.9205 2.68614 14.8644 2.82649 14.7522 2.93871C14.6399 3.05094 14.4996 3.10705 14.3311 3.10705H12.5719L12.8128 3.33818C13.5687 4.04416 14.1365 4.80163 14.516 5.61059C14.8955 6.41956 15.0852 7.19728 15.0852 7.94375C15.0852 9.13016 14.7762 10.2105 14.1583 11.1846C13.5404 12.1588 12.7102 12.9099 11.6678 13.4379C11.5154 13.5189 11.3613 13.5238 11.2056 13.4526C11.0499 13.3814 10.9408 13.2603 10.8783 13.0894C10.8128 12.931 10.8165 12.7717 10.8895 12.6115C10.9624 12.4513 11.0766 12.3292 11.2321 12.2452C12.0266 11.8387 12.6538 11.2477 13.1136 10.4721C13.5734 9.6966 13.8033 8.8538 13.8033 7.94375Z" fill="#555555"/>
</svg>
