<svg width="28" height="28" viewBox="0 0 28 28" fill="none" xmlns="http://www.w3.org/2000/svg">
<g id="toUserInfo">
<path id="Vector" d="M4.375 23.3333C4.12708 23.3333 3.91927 23.249 3.75156 23.0803C3.58385 22.9116 3.5 22.7026 3.5 22.4532C3.5 22.2038 3.58385 21.9965 3.75156 21.8312C3.91927 21.666 4.12708 21.5833 4.375 21.5833H16.625C16.8729 21.5833 17.0807 21.6677 17.2484 21.8363C17.4161 22.005 17.5 22.2141 17.5 22.4634C17.5 22.7128 17.4161 22.9201 17.2484 23.0854C17.0807 23.2507 16.8729 23.3333 16.625 23.3333H4.375ZM18.6636 14.875C17.1295 14.875 15.8229 14.3344 14.7437 13.2531C13.6646 12.1719 13.125 10.8643 13.125 9.33023C13.125 7.79618 13.6656 6.48957 14.7468 5.41041C15.8281 4.33124 17.1357 3.79166 18.6698 3.79166C20.2038 3.79166 21.5104 4.33227 22.5896 5.4135C23.6688 6.49473 24.2083 7.80237 24.2083 9.33641C24.2083 10.8705 23.6677 12.1771 22.5865 13.2562C21.5053 14.3354 20.1976 14.875 18.6636 14.875ZM4.375 13.4167C4.12708 13.4167 3.91927 13.3323 3.75156 13.1636C3.58385 12.9949 3.5 12.7859 3.5 12.5366C3.5 12.2872 3.58385 12.0799 3.75156 11.9146C3.91927 11.7493 4.12708 11.6667 4.375 11.6667H11.1417C11.2451 11.984 11.3633 12.287 11.4963 12.5755C11.6293 12.8641 11.7736 13.1444 11.9292 13.4167H4.375ZM4.375 18.375C4.12708 18.375 3.91927 18.2906 3.75156 18.122C3.58385 17.9533 3.5 17.7442 3.5 17.4949C3.5 17.2455 3.58385 17.0382 3.75156 16.8729C3.91927 16.7076 4.12708 16.625 4.375 16.625H15.7208C15.9892 16.7487 16.275 16.8526 16.5783 16.9365C16.8817 17.0205 17.1889 17.0819 17.5 17.1208V17.5C17.5 17.7479 17.4161 17.9557 17.2484 18.1234C17.0807 18.2911 16.8729 18.375 16.625 18.375H4.375ZM18.6667 12.8333C18.8222 12.8333 18.9583 12.775 19.075 12.6583C19.1917 12.5417 19.25 12.4055 19.25 12.25V8.74999C19.25 8.59443 19.1917 8.45832 19.075 8.34166C18.9583 8.22499 18.8222 8.16666 18.6667 8.16666C18.5111 8.16666 18.375 8.22499 18.2583 8.34166C18.1417 8.45832 18.0833 8.59443 18.0833 8.74999V12.25C18.0833 12.4055 18.1417 12.5417 18.2583 12.6583C18.375 12.775 18.5111 12.8333 18.6667 12.8333ZM18.6667 6.99999C18.8222 6.99999 18.9583 6.94166 19.075 6.82499C19.1917 6.70832 19.25 6.57221 19.25 6.41666C19.25 6.2611 19.1917 6.12499 19.075 6.00832C18.9583 5.89166 18.8222 5.83332 18.6667 5.83332C18.5111 5.83332 18.375 5.89166 18.2583 6.00832C18.1417 6.12499 18.0833 6.2611 18.0833 6.41666C18.0833 6.57221 18.1417 6.70832 18.2583 6.82499C18.375 6.94166 18.5111 6.99999 18.6667 6.99999Z" fill="#555555"/>
</g>
</svg>
