<svg width="24" height="24" viewBox="0 0 24 24" fill="none" xmlns="http://www.w3.org/2000/svg">
<g id="delete_forever_FILL0_wght500_GRAD0_opsz48 1">
<path id="Vector" d="M6.47748 23.1494C6.00334 23.1494 5.59993 22.9837 5.26725 22.6522C4.93457 22.3207 4.76823 21.9187 4.76823 21.4462V7.29781H4.49323C4.25283 7.29781 4.05079 7.21555 3.88713 7.05104C3.72344 6.88652 3.6416 6.68344 3.6416 6.44179C3.6416 6.20015 3.72344 5.99854 3.88713 5.83694C4.05079 5.67534 4.25283 5.59454 4.49323 5.59454H8.59868C8.59868 5.34999 8.68051 5.14591 8.84418 4.98231C9.00786 4.81873 9.2099 4.73694 9.4503 4.73694H14.5443C14.7847 4.73694 14.9868 4.8199 15.1504 4.98581C15.3141 5.15173 15.396 5.35464 15.396 5.59454H19.5074C19.7478 5.59454 19.9498 5.6768 20.1135 5.84134C20.2772 6.00585 20.359 6.20893 20.359 6.45056C20.359 6.69221 20.2772 6.89383 20.1135 7.05541C19.9498 7.21701 19.7478 7.29781 19.5074 7.29781H19.2324V21.4462C19.2324 21.9187 19.066 22.3207 18.7334 22.6522C18.4007 22.9837 17.9973 23.1494 17.5231 23.1494H6.47748ZM17.5231 7.29781H6.47748V21.4462H17.5231V7.29781ZM12.0003 15.5777L14.3525 17.9489C14.5271 18.1275 14.7391 18.22 14.9884 18.2263C15.2376 18.2327 15.4516 18.1444 15.6302 17.9614C15.8048 17.7734 15.8922 17.5602 15.8922 17.3217C15.8922 17.0833 15.8048 16.8748 15.6302 16.6962L13.278 14.3L15.6302 11.8978C15.8048 11.7232 15.8922 11.5154 15.8922 11.2744C15.8922 11.0335 15.8048 10.8237 15.6302 10.6451C15.4516 10.4705 15.2376 10.3831 14.9884 10.3831C14.7391 10.3831 14.5271 10.4705 14.3525 10.6451L12.0003 13.0223L9.67313 10.6451C9.49849 10.4705 9.28754 10.3831 9.04025 10.3831C8.79297 10.3831 8.58001 10.4705 8.40138 10.6451C8.22674 10.8237 8.13943 11.0377 8.13943 11.2869C8.13943 11.5362 8.22674 11.7482 8.40138 11.9228L10.7476 14.3L8.40138 16.6772C8.22276 16.8518 8.13445 17.0628 8.13645 17.31C8.13844 17.5573 8.22674 17.7703 8.40138 17.9489C8.58108 18.1235 8.7943 18.2109 9.04105 18.2109C9.2878 18.2109 9.50049 18.1235 9.6791 17.9489L12.0003 15.5777Z" fill="#555555"/>
</g>
</svg>
