<svg width="20" height="27" viewBox="0 0 20 27" fill="none" xmlns="http://www.w3.org/2000/svg">
<path d="M1.9231 26.6666C1.39874 26.6666 0.947133 26.4772 0.568266 26.0983C0.189422 25.7195 0 25.2679 0 24.7435V11.4051C0 10.8742 0.189422 10.4209 0.568266 10.0454C0.947133 9.66985 1.39874 9.48208 1.9231 9.48208H14.2435V6.42311C14.2435 5.24434 13.831 4.24238 13.0058 3.41725C12.1807 2.59209 11.1787 2.17951 9.99997 2.17951C8.94219 2.17951 8.01877 2.51926 7.2297 3.19875C6.44066 3.87824 5.96322 4.7308 5.7974 5.75645C5.77153 5.94796 5.68388 6.10695 5.53443 6.23342C5.38497 6.35988 5.20848 6.42311 5.00497 6.42311C4.78114 6.42311 4.60171 6.33765 4.46667 6.16672C4.33162 5.99578 4.28206 5.79578 4.31797 5.56672C4.51112 4.17185 5.14188 3.00647 6.21023 2.07058C7.27861 1.13469 8.54186 0.666748 9.99997 0.666748C11.5975 0.666748 12.9563 1.22676 14.0763 2.34678C15.1963 3.46678 15.7563 4.82556 15.7563 6.42311V9.48208H18.0768C18.6012 9.48208 19.0528 9.66985 19.4317 10.0454C19.8105 10.4209 19.9999 10.8742 19.9999 11.4051V24.7435C19.9999 25.2679 19.8105 25.7195 19.4317 26.0983C19.0528 26.4772 18.6012 26.6666 18.0768 26.6666H1.9231ZM1.9231 25.1538H18.0768C18.1965 25.1538 18.2948 25.1154 18.3717 25.0384C18.4487 24.9615 18.4871 24.8632 18.4871 24.7435V11.4051C18.4871 11.2855 18.4487 11.1872 18.3717 11.1102C18.2948 11.0333 18.1965 10.9948 18.0768 10.9948H1.9231C1.80343 10.9948 1.70513 11.0333 1.6282 11.1102C1.55127 11.1872 1.5128 11.2855 1.5128 11.4051V24.7435C1.5128 24.8632 1.55127 24.9615 1.6282 25.0384C1.70513 25.1154 1.80343 25.1538 1.9231 25.1538ZM10.0056 20.3333C10.6275 20.3333 11.1585 20.1163 11.5987 19.6822C12.0388 19.2482 12.2589 18.7259 12.2589 18.1153C12.2589 17.5256 12.037 16.9949 11.5931 16.5231C11.1492 16.0513 10.6163 15.8154 9.99437 15.8154C9.37246 15.8154 8.84142 16.0513 8.40127 16.5231C7.96109 16.9949 7.741 17.5312 7.741 18.132C7.741 18.7329 7.96296 19.25 8.40687 19.6833C8.85078 20.1166 9.38368 20.3333 10.0056 20.3333Z" fill="#555555"/>
</svg>
