<svg width="245" height="12" viewBox="0 0 245 12" fill="none" xmlns="http://www.w3.org/2000/svg">
<path id="Line 11" d="M1.23535 5C0.683067 5 0.235352 5.44772 0.235352 6C0.235352 6.55228 0.683067 7 1.23535 7V5ZM234.257 6C234.257 8.94552 236.645 11.3333 239.59 11.3333C242.536 11.3333 244.924 8.94552 244.924 6C244.924 3.05448 242.536 0.666667 239.59 0.666667C236.645 0.666667 234.257 3.05448 234.257 6ZM4.21479 7C4.76707 7 5.21479 6.55228 5.21479 6C5.21479 5.44772 4.76707 5 4.21479 5V7ZM10.1737 5C9.62138 5 9.17366 5.44772 9.17366 6C9.17366 6.55228 9.62138 7 10.1737 7V5ZM16.1325 7C16.6848 7 17.1325 6.55228 17.1325 6C17.1325 5.44772 16.6848 5 16.1325 5V7ZM22.0914 5C21.5391 5 21.0914 5.44772 21.0914 6C21.0914 6.55228 21.5391 7 22.0914 7V5ZM28.0503 7C28.6026 7 29.0503 6.55228 29.0503 6C29.0503 5.44772 28.6026 5 28.0503 5V7ZM34.0092 5C33.4569 5 33.0092 5.44772 33.0092 6C33.0092 6.55228 33.4569 7 34.0092 7V5ZM39.968 7C40.5203 7 40.968 6.55228 40.968 6C40.968 5.44772 40.5203 5 39.968 5V7ZM45.9269 5C45.3746 5 44.9269 5.44772 44.9269 6C44.9269 6.55228 45.3746 7 45.9269 7V5ZM51.8858 7C52.4381 7 52.8858 6.55228 52.8858 6C52.8858 5.44772 52.4381 5 51.8858 5V7ZM57.8447 5C57.2924 5 56.8447 5.44772 56.8447 6C56.8447 6.55228 57.2924 7 57.8447 7V5ZM63.8035 7C64.3558 7 64.8035 6.55228 64.8035 6C64.8035 5.44772 64.3558 5 63.8035 5V7ZM69.7624 5C69.2101 5 68.7624 5.44772 68.7624 6C68.7624 6.55228 69.2101 7 69.7624 7V5ZM75.7213 7C76.2736 7 76.7213 6.55228 76.7213 6C76.7213 5.44772 76.2736 5 75.7213 5V7ZM81.6802 5C81.1279 5 80.6802 5.44772 80.6802 6C80.6802 6.55228 81.1279 7 81.6802 7V5ZM87.639 7C88.1913 7 88.639 6.55228 88.639 6C88.639 5.44772 88.1913 5 87.639 5V7ZM93.5979 5C93.0456 5 92.5979 5.44772 92.5979 6C92.5979 6.55228 93.0456 7 93.5979 7V5ZM99.5568 7C100.109 7 100.557 6.55228 100.557 6C100.557 5.44772 100.109 5 99.5568 5V7ZM105.516 5C104.963 5 104.516 5.44772 104.516 6C104.516 6.55228 104.963 7 105.516 7V5ZM111.475 7C112.027 7 112.475 6.55228 112.475 6C112.475 5.44772 112.027 5 111.475 5V7ZM117.433 5C116.881 5 116.433 5.44772 116.433 6C116.433 6.55228 116.881 7 117.433 7V5ZM123.392 7C123.945 7 124.392 6.55228 124.392 6C124.392 5.44772 123.945 5 123.392 5V7ZM129.351 5C128.799 5 128.351 5.44772 128.351 6C128.351 6.55228 128.799 7 129.351 7V5ZM135.31 7C135.862 7 136.31 6.55228 136.31 6C136.31 5.44772 135.862 5 135.31 5V7ZM141.269 5C140.717 5 140.269 5.44772 140.269 6C140.269 6.55228 140.717 7 141.269 7V5ZM147.228 7C147.78 7 148.228 6.55228 148.228 6C148.228 5.44772 147.78 5 147.228 5V7ZM153.187 5C152.634 5 152.187 5.44772 152.187 6C152.187 6.55228 152.634 7 153.187 7V5ZM159.146 7C159.698 7 160.146 6.55228 160.146 6C160.146 5.44772 159.698 5 159.146 5V7ZM165.104 5C164.552 5 164.104 5.44772 164.104 6C164.104 6.55228 164.552 7 165.104 7V5ZM171.063 7C171.616 7 172.063 6.55228 172.063 6C172.063 5.44772 171.616 5 171.063 5V7ZM177.022 5C176.47 5 176.022 5.44772 176.022 6C176.022 6.55228 176.47 7 177.022 7V5ZM182.981 7C183.533 7 183.981 6.55228 183.981 6C183.981 5.44772 183.533 5 182.981 5V7ZM188.94 5C188.388 5 187.94 5.44772 187.94 6C187.94 6.55228 188.388 7 188.94 7V5ZM194.899 7C195.451 7 195.899 6.55228 195.899 6C195.899 5.44772 195.451 5 194.899 5V7ZM200.858 5C200.305 5 199.858 5.44772 199.858 6C199.858 6.55228 200.305 7 200.858 7V5ZM206.817 7C207.369 7 207.817 6.55228 207.817 6C207.817 5.44772 207.369 5 206.817 5V7ZM212.775 5C212.223 5 211.775 5.44772 211.775 6C211.775 6.55228 212.223 7 212.775 7V5ZM218.734 7C219.287 7 219.734 6.55228 219.734 6C219.734 5.44772 219.287 5 218.734 5V7ZM224.693 5C224.141 5 223.693 5.44772 223.693 6C223.693 6.55228 224.141 7 224.693 7V5ZM230.652 7C231.204 7 231.652 6.55228 231.652 6C231.652 5.44772 231.204 5 230.652 5V7ZM236.611 5C236.059 5 235.611 5.44772 235.611 6C235.611 6.55228 236.059 7 236.611 7V5ZM1.23535 7H4.21479V5H1.23535V7ZM10.1737 7H16.1325V5H10.1737V7ZM22.0914 7H28.0503V5H22.0914V7ZM34.0092 7H39.968V5H34.0092V7ZM45.9269 7H51.8858V5H45.9269V7ZM57.8447 7H63.8035V5H57.8447V7ZM69.7624 7H75.7213V5H69.7624V7ZM81.6802 7H87.639V5H81.6802V7ZM93.5979 7H99.5568V5H93.5979V7ZM105.516 7H111.475V5H105.516V7ZM117.433 7H123.392V5H117.433V7ZM129.351 7H135.31V5H129.351V7ZM141.269 7H147.228V5H141.269V7ZM153.187 7H159.146V5H153.187V7ZM165.104 7H171.063V5H165.104V7ZM177.022 7H182.981V5H177.022V7ZM188.94 7H194.899V5H188.94V7ZM200.858 7H206.817V5H200.858V7ZM212.775 7H218.734V5H212.775V7ZM224.693 7H230.652V5H224.693V7ZM236.611 7H239.59V5H236.611V7Z" fill="#7649BB"/>
</svg>
