<svg width="23" height="24" viewBox="0 0 23 24" fill="none" xmlns="http://www.w3.org/2000/svg">
<path d="M16.1093 23.8264C15.6142 23.8264 15.1878 23.6265 14.8301 23.2267C14.4724 22.8269 14.2936 22.3503 14.2936 21.797V16.125C14.2936 15.5717 14.4724 15.0952 14.8301 14.6954C15.1878 14.2956 15.6142 14.0957 16.1093 14.0957H21.1842C21.6793 14.0957 22.1057 14.2956 22.4634 14.6954C22.8211 15.0952 23 15.5717 23 16.125V21.797C23 22.3503 22.8211 22.8269 22.4634 23.2267C22.1057 23.6265 21.6793 23.8264 21.1842 23.8264H16.1093ZM15.667 19.3116C15.667 20.9573 17.0011 22.2914 18.6468 22.2914C20.2924 22.2914 21.6265 20.9573 21.6265 19.3116V18.6105C21.6265 16.9648 20.2924 15.6307 18.6468 15.6307C17.0011 15.6307 15.667 16.9648 15.667 18.6105V19.3116ZM0.686733 19.7285C0.492161 19.7285 0.329062 19.6544 0.197437 19.506C0.0658125 19.3576 0 19.1738 0 18.9544C0 18.7351 0.0658125 18.5534 0.197437 18.4095C0.329062 18.2655 0.492161 18.1935 0.686733 18.1935H9.74243C9.937 18.1935 10.1001 18.2677 10.2317 18.4161C10.3634 18.5645 10.4292 18.7483 10.4292 18.9676C10.4292 19.187 10.3634 19.3686 10.2317 19.5126C10.1001 19.6566 9.937 19.7285 9.74243 19.7285H0.686733ZM16.1093 10.5571C15.6142 10.5571 15.1878 10.3572 14.8301 9.95744C14.4724 9.55765 14.2936 9.08109 14.2936 8.52779V2.8558C14.2936 2.30249 14.4724 1.82594 14.8301 1.42614C15.1878 1.02633 15.6142 0.826416 16.1093 0.826416H21.1842C21.6793 0.826416 22.1057 1.02633 22.4634 1.42614C22.8211 1.82594 23 2.30249 23 2.8558V8.52779C23 9.08109 22.8211 9.55765 22.4634 9.95744C22.1057 10.3572 21.6793 10.5571 21.1842 10.5571H16.1093ZM15.667 6.04235C15.667 7.68803 17.0011 9.02212 18.6468 9.02212C20.2924 9.02212 21.6265 7.68803 21.6265 6.04235V5.34123C21.6265 3.69556 20.2924 2.36147 18.6468 2.36147C17.0011 2.36147 15.667 3.69555 15.667 5.34123V6.04235ZM0.686733 6.4593C0.492161 6.4593 0.329062 6.38512 0.197437 6.23674C0.0658125 6.08837 0 5.90452 0 5.68518C0 5.46585 0.0658125 5.28419 0.197437 5.14021C0.329062 4.99626 0.492161 4.92429 0.686733 4.92429H9.74243C9.937 4.92429 10.1001 4.99847 10.2317 5.14684C10.3634 5.29522 10.4292 5.47907 10.4292 5.69841C10.4292 5.91774 10.3634 6.0994 10.2317 6.24337C10.1001 6.38733 9.937 6.4593 9.74243 6.4593H0.686733Z" fill="#555555"/>
</svg>
