<svg width="23" height="23" viewBox="0 0 23 23" fill="none" xmlns="http://www.w3.org/2000/svg">
<path d="M16.1093 22.621C15.6142 22.621 15.1878 22.4266 14.8301 22.0379C14.4724 21.6492 14.2936 21.1859 14.2936 20.6479V15.1334C14.2936 14.5954 14.4724 14.1321 14.8301 13.7434C15.1878 13.3547 15.6142 13.1604 16.1093 13.1604H21.1842C21.6793 13.1604 22.1057 13.3547 22.4634 13.7434C22.8211 14.1321 23 14.5954 23 15.1334V20.6479C23 21.1859 22.8211 21.6492 22.4634 22.0379C22.1057 22.4266 21.6793 22.621 21.1842 22.621H16.1093ZM15.667 21.1286H21.6265V14.6528H15.667V21.1286ZM0.686733 18.6369C0.492161 18.6369 0.329062 18.5647 0.197437 18.4205C0.0658125 18.2762 0 18.0975 0 17.8842C0 17.671 0.0658125 17.4944 0.197437 17.3544C0.329062 17.2144 0.492161 17.1445 0.686733 17.1445H9.74243C9.937 17.1445 10.1001 17.2166 10.2317 17.3608C10.3634 17.5051 10.4292 17.6838 10.4292 17.8971C10.4292 18.1103 10.3634 18.287 10.2317 18.4269C10.1001 18.5669 9.937 18.6369 9.74243 18.6369H0.686733ZM16.1093 9.72003C15.6142 9.72003 15.1878 9.52568 14.8301 9.13698C14.4724 8.74828 14.2936 8.28496 14.2936 7.747V2.23246C14.2936 1.6945 14.4724 1.23118 14.8301 0.84248C15.1878 0.45376 15.6142 0.259399 16.1093 0.259399H21.1842C21.6793 0.259399 22.1057 0.45376 22.4634 0.84248C22.8211 1.23118 23 1.6945 23 2.23246V7.747C23 8.28496 22.8211 8.74828 22.4634 9.13698C22.1057 9.52568 21.6793 9.72003 21.1842 9.72003H16.1093ZM15.667 8.22762H21.6265V1.75184H15.667V8.22762ZM0.686733 5.73594C0.492161 5.73594 0.329062 5.66381 0.197437 5.51955C0.0658125 5.3753 0 5.19655 0 4.9833C0 4.77005 0.0658125 4.59344 0.197437 4.45346C0.329062 4.3135 0.492161 4.24353 0.686733 4.24353H9.74243C9.937 4.24353 10.1001 4.31565 10.2317 4.45991C10.3634 4.60416 10.4292 4.78291 10.4292 4.99616C10.4292 5.20941 10.3634 5.38602 10.2317 5.526C10.1001 5.66596 9.937 5.73594 9.74243 5.73594H0.686733Z" fill="#555555"/>
</svg>
