<svg width="23" height="21" viewBox="0 0 23 21" fill="none" xmlns="http://www.w3.org/2000/svg">
<path d="M1.3638 9.12121V19.2323C1.3638 19.3423 1.39848 19.4327 1.46784 19.5034C1.53717 19.5741 1.62578 19.6094 1.73366 19.6094H7.21207V8.7441H1.73366C1.62578 8.7441 1.53717 8.77945 1.46784 8.85017C1.39848 8.92087 1.3638 9.01121 1.3638 9.12121ZM8.57587 1.76767V19.6094H14.4241V1.76767C14.4241 1.65767 14.3895 1.56733 14.3201 1.49663C14.2508 1.42591 14.1622 1.39056 14.0543 1.39056H8.94573C8.83785 1.39056 8.74924 1.42591 8.6799 1.49663C8.61055 1.56733 8.57587 1.65767 8.57587 1.76767ZM15.7879 11.1953V19.6094H21.2663C21.3742 19.6094 21.4628 19.5741 21.5322 19.5034C21.6015 19.4327 21.6362 19.3423 21.6362 19.2323V11.5724C21.6362 11.4624 21.6015 11.372 21.5322 11.3014C21.4628 11.2306 21.3742 11.1953 21.2663 11.1953H15.7879ZM21.2663 21H1.73366C1.26287 21 0.856233 20.8254 0.51374 20.4762C0.171247 20.127 0 19.7124 0 19.2323V9.12121C0 8.64119 0.171247 8.22657 0.51374 7.87736C0.856233 7.52815 1.26287 7.35354 1.73366 7.35354H7.21207V1.76767C7.21207 1.28765 7.38331 0.873029 7.72581 0.523818C8.0683 0.174606 8.47494 0 8.94573 0H14.0543C14.5251 0 14.9317 0.174606 15.2742 0.523818C15.6167 0.873029 15.7879 1.28765 15.7879 1.76767V9.80472H21.2663C21.7371 9.80472 22.1438 9.97933 22.4863 10.3285C22.8288 10.6778 23 11.0924 23 11.5724V19.2323C23 19.7124 22.8288 20.127 22.4863 20.4762C22.1438 20.8254 21.7371 21 21.2663 21Z" fill="#555555"/>
</svg>
