<svg width="32" height="32" viewBox="0 0 32 32" fill="none" xmlns="http://www.w3.org/2000/svg">
<path d="M5.25647 23.3333C4.73361 23.3333 4.28237 23.1435 3.90277 22.7639C3.52317 22.3843 3.33337 21.9316 3.33337 21.406V10.594C3.33337 10.0683 3.52317 9.61569 3.90277 9.23609C4.28237 8.85649 4.73361 8.66669 5.25647 8.66669H26.7435C27.2664 8.66669 27.7176 8.85649 28.0972 9.23609C28.4768 9.61569 28.6666 10.0683 28.6666 10.594V21.406C28.6666 21.9316 28.4768 22.3843 28.0972 22.7639C27.7176 23.1435 27.2664 23.3333 26.7435 23.3333H5.25647ZM5.25647 21.8205H26.7435C26.8461 21.8205 26.9402 21.7778 27.0256 21.6923C27.1111 21.6068 27.1538 21.5128 27.1538 21.4102V10.5898C27.1538 10.4872 27.1111 10.3932 27.0256 10.3077C26.9402 10.2222 26.8461 10.1795 26.7435 10.1795H5.25647C5.1539 10.1795 5.05986 10.2222 4.97437 10.3077C4.88891 10.3932 4.84617 10.4872 4.84617 10.5898V21.4102C4.84617 21.5128 4.88891 21.6068 4.97437 21.6923C5.05986 21.7778 5.1539 21.8205 5.25647 21.8205ZM9.91028 16.7564V19.2487C9.91028 19.463 9.98339 19.6426 10.1296 19.7876C10.2759 19.9326 10.4571 20.0051 10.6732 20.0051C10.8894 20.0051 11.0684 19.9326 11.2102 19.7876C11.3521 19.6426 11.4231 19.463 11.4231 19.2487V16.7564H13.9154C14.1297 16.7564 14.3093 16.6833 14.4543 16.5371C14.5993 16.3908 14.6718 16.2096 14.6718 15.9935C14.6718 15.7773 14.5993 15.5983 14.4543 15.4564C14.3093 15.3145 14.1297 15.2436 13.9154 15.2436H11.4231V12.7513C11.4231 12.537 11.35 12.3573 11.2037 12.2124C11.0575 12.0674 10.8763 11.9949 10.6601 11.9949C10.444 11.9949 10.265 12.0674 10.1231 12.2124C9.98122 12.3573 9.91028 12.537 9.91028 12.7513V15.2436H7.41797C7.20366 15.2436 7.02402 15.3167 6.87904 15.4629C6.73406 15.6092 6.66157 15.7904 6.66157 16.0065C6.66157 16.2227 6.73406 16.4017 6.87904 16.5436C7.02402 16.6854 7.20366 16.7564 7.41797 16.7564H9.91028ZM19.6498 19.5718C19.9995 19.5718 20.303 19.4436 20.5602 19.1874C20.8175 18.9311 20.9461 18.626 20.9461 18.272C20.9461 17.918 20.818 17.6124 20.5617 17.3551C20.3055 17.0979 20.0025 16.9692 19.6528 16.9692C19.3031 16.9692 18.9974 17.0974 18.7359 17.3536C18.4744 17.6099 18.3436 17.915 18.3436 18.269C18.3436 18.623 18.4748 18.9286 18.7371 19.1859C18.9994 19.4431 19.3036 19.5718 19.6498 19.5718ZM22.919 15.0102C23.2687 15.0102 23.5722 14.8821 23.8295 14.6259C24.0868 14.3696 24.2154 14.0645 24.2154 13.7105C24.2154 13.3565 24.0873 13.0509 23.831 12.7936C23.5747 12.5363 23.2718 12.4077 22.922 12.4077C22.5723 12.4077 22.2667 12.5358 22.0051 12.7921C21.7436 13.0483 21.6128 13.3535 21.6128 13.7075C21.6128 14.0615 21.744 14.3671 22.0063 14.6244C22.2686 14.8816 22.5729 15.0102 22.919 15.0102Z" fill="#555555"/>
</svg>
