<svg width="12" height="12" viewBox="0 0 12 12" fill="none" xmlns="http://www.w3.org/2000/svg">
<path d="M2.53946 8.37692C2.42515 8.26262 2.36541 8.1239 2.36024 7.96076C2.35509 7.79763 2.41482 7.66407 2.53946 7.56007C3.06247 7.10573 3.60848 6.76547 4.17751 6.53929C4.74652 6.31311 5.35404 6.20002 6.00006 6.20002C6.64607 6.20002 7.25359 6.31262 7.82261 6.5378C8.39163 6.76297 8.93765 7.10174 9.46066 7.5541C9.58529 7.66007 9.64761 7.79255 9.64761 7.95152C9.64761 8.11049 9.58629 8.2513 9.46364 8.37394C9.34934 8.48825 9.2122 8.5464 9.05223 8.5484C8.89227 8.55039 8.74897 8.49939 8.62233 8.3954C8.1823 8.03236 7.74634 7.77466 7.31446 7.62231C6.88257 7.46995 6.44444 7.39377 6.00006 7.39377C5.55567 7.39377 5.11754 7.46995 4.68566 7.62231C4.25377 7.77466 3.81782 8.03236 3.37778 8.3954C3.25115 8.4974 3.10835 8.5484 2.94938 8.5484C2.79042 8.5484 2.65377 8.49124 2.53946 8.37692ZM0.426957 6.26144C0.312649 6.14713 0.252912 6.00582 0.247745 5.83752C0.242578 5.66922 0.302316 5.53209 0.426957 5.42611C1.18131 4.74875 2.03357 4.2084 2.98376 3.80505C3.93393 3.4017 4.93937 3.20002 6.00006 3.20002C7.06075 3.20002 8.06618 3.4017 9.01636 3.80505C9.96654 4.2084 10.8198 4.74875 11.5761 5.42611C11.6988 5.53209 11.7596 5.66714 11.7586 5.83127C11.7576 5.99541 11.6958 6.1388 11.5732 6.26144C11.4588 6.37575 11.3201 6.4339 11.157 6.4359C10.9938 6.43789 10.85 6.3859 10.7253 6.27991C10.0396 5.69821 9.30427 5.23843 8.51922 4.90057C7.73416 4.56271 6.89444 4.39377 6.00006 4.39377C5.10567 4.39377 4.26595 4.56271 3.4809 4.90057C2.69585 5.23843 1.96147 5.69821 1.27778 6.27991C1.15115 6.3859 1.00627 6.43789 0.843132 6.4359C0.679999 6.4339 0.541274 6.37575 0.426957 6.26144ZM6.00006 11.6813C5.69009 11.6813 5.41962 11.5653 5.18865 11.3333C4.95767 11.1013 4.84218 10.8304 4.84218 10.5204C4.84218 10.2124 4.95767 9.94246 5.18865 9.71049C5.41962 9.47851 5.69009 9.36252 6.00006 9.36252C6.31002 9.36252 6.58049 9.47851 6.81147 9.71049C7.04245 9.94246 7.15793 10.2124 7.15793 10.5204C7.15793 10.8304 7.04245 11.1013 6.81147 11.3333C6.58049 11.5653 6.31002 11.6813 6.00006 11.6813Z" fill="#555555"/>
</svg>
