<svg width="12" height="12" viewBox="0 0 12 12" fill="none" xmlns="http://www.w3.org/2000/svg">
<g id="wifi_off_FILL0_wght500_GRAD0_opsz48 1" clip-path="url(#clip0_162_16468)">
<path id="Vector" d="M5.99984 11.6125C5.69984 11.6125 5.43734 11.5 5.21234 11.275C4.98734 11.05 4.87484 10.7875 4.87484 10.4875C4.87484 10.1875 4.98734 9.92502 5.21234 9.70002C5.43734 9.47502 5.69984 9.36252 5.99984 9.36252C6.29984 9.36252 6.56234 9.47502 6.78734 9.70002C7.01234 9.92502 7.12484 10.1875 7.12484 10.4875C7.12484 10.7875 7.01234 11.05 6.78734 11.275C6.56234 11.5 6.29984 11.6125 5.99984 11.6125ZM10.7251 6.28289C10.0414 5.70119 9.30654 5.24091 8.52049 4.90206C7.73444 4.5632 6.89423 4.39377 5.99984 4.39377C5.71144 4.39377 5.43454 4.41202 5.16914 4.44853C4.90374 4.48503 4.68318 4.53363 4.50746 4.59432L3.52621 3.61306C3.89287 3.47972 4.28431 3.37755 4.70052 3.30654C5.11674 3.23553 5.54984 3.20002 5.99984 3.20002C7.06253 3.20002 8.06846 3.40219 9.01764 3.80654C9.96683 4.21088 10.8206 4.75373 11.5789 5.43507C11.6996 5.53906 11.7599 5.67262 11.7599 5.83576C11.7599 5.99889 11.6976 6.14277 11.5729 6.26741C11.4586 6.37973 11.3204 6.43689 11.1583 6.43888C10.9961 6.44087 10.8517 6.38888 10.7251 6.28289ZM8.73517 8.35953C8.54187 8.19322 8.35604 8.05581 8.17769 7.94731C7.99934 7.83879 7.78019 7.72221 7.52022 7.59757L6.13463 6.21198C6.81036 6.23064 7.41525 6.35623 7.94931 6.58874C8.48336 6.82126 8.98806 7.14304 9.46343 7.55409C9.58408 7.65608 9.6454 7.78706 9.6474 7.94703C9.64939 8.107 9.58906 8.2473 9.46642 8.36796C9.36805 8.46632 9.24776 8.51401 9.10556 8.51102C8.96334 8.50803 8.83988 8.45754 8.73517 8.35953ZM9.76697 12.0745L5.15528 7.47829C4.81325 7.55963 4.49355 7.68115 4.19618 7.84283C3.89881 8.00451 3.62594 8.18871 3.37757 8.39541C3.25094 8.49741 3.10555 8.54532 2.94142 8.53916C2.77729 8.533 2.63707 8.47177 2.52077 8.35547C2.40646 8.24115 2.3498 8.10551 2.35079 7.94853C2.35179 7.79156 2.41361 7.66108 2.53626 7.55709C2.76796 7.3484 3.01891 7.15905 3.28911 6.98903C3.55931 6.81901 3.86859 6.66416 4.21697 6.52449L2.88028 5.19078C2.58825 5.3368 2.30763 5.50315 2.03843 5.68983C1.76923 5.87651 1.51362 6.07321 1.27158 6.27991C1.14695 6.38589 1.00307 6.43788 0.839932 6.43589C0.676798 6.43389 0.532911 6.37058 0.408269 6.24594C0.293953 6.13163 0.237294 5.99391 0.238294 5.83277C0.239294 5.67163 0.301115 5.53806 0.423757 5.43208C0.66579 5.20473 0.917736 4.99613 1.17959 4.80627C1.44146 4.61641 1.70908 4.44947 1.98246 4.30546L1.11288 3.43589C1.04223 3.36523 1.00691 3.27375 1.00691 3.16143C1.00691 3.04911 1.0464 2.95346 1.12538 2.87448C1.19604 2.80382 1.28753 2.76849 1.39984 2.76849C1.51216 2.76849 1.60782 2.80382 1.68681 2.87448L10.3254 11.5256C10.396 11.5962 10.4314 11.6877 10.4314 11.8C10.4314 11.9123 10.396 12.0038 10.3254 12.0745C10.2484 12.1515 10.1537 12.1905 10.0414 12.1915C9.9291 12.1925 9.83762 12.1535 9.76697 12.0745V12.0745Z" fill="#555555"/>
</g>
<defs>
<clipPath id="clip0_162_16468">
<rect width="12" height="12" fill="white"/>
</clipPath>
</defs>
</svg>
