<svg width="12" height="12" viewBox="0 0 12 12" fill="none" xmlns="http://www.w3.org/2000/svg">
<g clip-path="url(#clip0_396_4285)">
<path d="M5.99997 11.6125C5.69997 11.6125 5.43747 11.5 5.21247 11.275C4.98747 11.05 4.87497 10.7875 4.87497 10.4875C4.87497 10.1875 4.98747 9.92502 5.21247 9.70002C5.43747 9.47502 5.69997 9.36252 5.99997 9.36252C6.29997 9.36252 6.56247 9.47502 6.78747 9.70002C7.01247 9.92502 7.12497 10.1875 7.12497 10.4875C7.12497 10.7875 7.01247 11.05 6.78747 11.275C6.56247 11.5 6.29997 11.6125 5.99997 11.6125ZM10.7252 6.28289C10.0415 5.70119 9.30667 5.24091 8.52062 4.90206C7.73457 4.5632 6.89435 4.39377 5.99997 4.39377C5.71156 4.39377 5.43466 4.41202 5.16927 4.44853C4.90387 4.48503 4.6833 4.53363 4.50758 4.59432L3.52633 3.61306C3.893 3.47972 4.28443 3.37755 4.70064 3.30654C5.11686 3.23553 5.54997 3.20002 5.99997 3.20002C7.06265 3.20002 8.06858 3.40219 9.01777 3.80654C9.96695 4.21088 10.8207 4.75373 11.579 5.43507C11.6997 5.53906 11.76 5.67262 11.76 5.83576C11.76 5.99889 11.6977 6.14277 11.5731 6.26741C11.4587 6.37973 11.3205 6.43689 11.1584 6.43888C10.9963 6.44087 10.8519 6.38888 10.7252 6.28289ZM8.73529 8.35953C8.54199 8.19322 8.35617 8.05581 8.17782 7.94731C7.99947 7.83879 7.78031 7.72221 7.52034 7.59757L6.13475 6.21198C6.81048 6.23064 7.41537 6.35623 7.94943 6.58874C8.48348 6.82126 8.98819 7.14304 9.46355 7.55409C9.5842 7.65608 9.64552 7.78706 9.64752 7.94703C9.64951 8.107 9.58918 8.2473 9.46654 8.36796C9.36817 8.46632 9.24789 8.51401 9.10568 8.51102C8.96346 8.50803 8.84 8.45754 8.73529 8.35953ZM9.76709 12.0745L5.1554 7.47829C4.81337 7.55963 4.49367 7.68115 4.1963 7.84283C3.89893 8.00451 3.62606 8.18871 3.37769 8.39541C3.25106 8.49741 3.10567 8.54532 2.94154 8.53916C2.77741 8.533 2.63719 8.47177 2.52089 8.35547C2.40658 8.24115 2.34992 8.10551 2.35092 7.94853C2.35192 7.79156 2.41374 7.66108 2.53638 7.55709C2.76808 7.3484 3.01903 7.15905 3.28923 6.98903C3.55943 6.81901 3.86872 6.66416 4.21709 6.52449L2.8804 5.19078C2.58837 5.3368 2.30775 5.50315 2.03855 5.68983C1.76935 5.87651 1.51374 6.07321 1.2717 6.27991C1.14707 6.38589 1.00319 6.43788 0.840054 6.43589C0.676921 6.43389 0.533033 6.37058 0.408391 6.24594C0.294075 6.13163 0.237416 5.99391 0.238416 5.83277C0.239416 5.67163 0.301237 5.53806 0.423879 5.43208C0.665912 5.20473 0.917858 4.99613 1.17972 4.80627C1.44158 4.61641 1.7092 4.44947 1.98258 4.30546L1.113 3.43589C1.04235 3.36523 1.00703 3.27375 1.00703 3.16143C1.00703 3.04911 1.04652 2.95346 1.1255 2.87448C1.19616 2.80382 1.28765 2.76849 1.39997 2.76849C1.51228 2.76849 1.60794 2.80382 1.68693 2.87448L10.3255 11.5256C10.3962 11.5962 10.4315 11.6877 10.4315 11.8C10.4315 11.9123 10.3962 12.0038 10.3255 12.0745C10.2485 12.1515 10.1539 12.1905 10.0415 12.1915C9.92922 12.1925 9.83774 12.1535 9.76709 12.0745V12.0745Z" fill="#555555"/>
</g>
<defs>
<clipPath id="clip0_396_4285">
<rect width="12" height="12" fill="white"/>
</clipPath>
</defs>
</svg>
