<svg width="12" height="12" viewBox="0 0 12 12" fill="none" xmlns="http://www.w3.org/2000/svg">
<g clip-path="url(#clip0_396_4276)">
<path d="M5.99997 11.6125C5.69997 11.6125 5.43747 11.5 5.21247 11.275C4.98747 11.05 4.87497 10.7875 4.87497 10.4875C4.87497 10.1875 4.98747 9.925 5.21247 9.7C5.43747 9.475 5.69997 9.3625 5.99997 9.3625C6.29997 9.3625 6.56247 9.475 6.78747 9.7C7.01247 9.925 7.12497 10.1875 7.12497 10.4875C7.12497 10.7875 7.01247 11.05 6.78747 11.275C6.56247 11.5 6.29997 11.6125 5.99997 11.6125ZM10.7252 6.28288C10.0415 5.70118 9.30667 5.2409 8.52062 4.90204C7.73457 4.56318 6.89435 4.39375 5.99997 4.39375C5.71156 4.39375 5.43466 4.41201 5.16927 4.44852C4.90387 4.48502 4.6833 4.53361 4.50758 4.5943L3.52633 3.61304C3.893 3.47971 4.28443 3.37754 4.70064 3.30653C5.11686 3.23551 5.54997 3.2 5.99997 3.2C7.06265 3.2 8.06858 3.40218 9.01777 3.80653C9.96695 4.21087 10.8207 4.75371 11.579 5.43505C11.6997 5.53904 11.76 5.67261 11.76 5.83574C11.76 5.99887 11.6977 6.14276 11.5731 6.26739C11.4587 6.37971 11.3205 6.43687 11.1584 6.43887C10.9963 6.44086 10.8519 6.38886 10.7252 6.28288ZM8.73529 8.35951C8.54199 8.19321 8.35617 8.0558 8.17782 7.94729C7.99947 7.83877 7.78031 7.72219 7.52034 7.59755L6.13475 6.21196C6.81048 6.23062 7.41537 6.35621 7.94943 6.58873C8.48348 6.82124 8.98819 7.14303 9.46355 7.55408C9.5842 7.65607 9.64552 7.78705 9.64752 7.94701C9.64951 8.10698 9.58918 8.24729 9.46654 8.36794C9.36817 8.46631 9.24789 8.51399 9.10568 8.511C8.96346 8.50802 8.84 8.45752 8.73529 8.35951ZM9.76709 12.0745L5.1554 7.47828C4.81337 7.55962 4.49367 7.68113 4.1963 7.84281C3.89893 8.0045 3.62606 8.18869 3.37769 8.39539C3.25106 8.49739 3.10567 8.54531 2.94154 8.53914C2.77741 8.53298 2.63719 8.47175 2.52089 8.35545C2.40658 8.24114 2.34992 8.10549 2.35092 7.94851C2.35192 7.79154 2.41374 7.66106 2.53638 7.55708C2.76808 7.34839 3.01903 7.15903 3.28923 6.98902C3.55943 6.81899 3.86872 6.66414 4.21709 6.52448L2.8804 5.19077C2.58837 5.33678 2.30775 5.50313 2.03855 5.68982C1.76935 5.8765 1.51374 6.07319 1.2717 6.27989C1.14707 6.38587 1.00319 6.43787 0.840054 6.43588C0.676921 6.43388 0.533033 6.37056 0.408391 6.24593C0.294075 6.13162 0.237416 5.99389 0.238416 5.83275C0.239416 5.67161 0.301237 5.53805 0.423879 5.43207C0.665912 5.20472 0.917858 4.99611 1.17972 4.80625C1.44158 4.61639 1.7092 4.44946 1.98258 4.30544L1.113 3.43588C1.04235 3.36522 1.00703 3.27373 1.00703 3.16142C1.00703 3.0491 1.04652 2.95345 1.1255 2.87447C1.19616 2.80381 1.28765 2.76848 1.39997 2.76848C1.51228 2.76848 1.60794 2.80381 1.68693 2.87447L10.3255 11.5255C10.3962 11.5962 10.4315 11.6877 10.4315 11.8C10.4315 11.9123 10.3962 12.0038 10.3255 12.0745C10.2485 12.1515 10.1539 12.1904 10.0415 12.1914C9.92922 12.1924 9.83774 12.1534 9.76709 12.0745V12.0745Z" fill="#555555"/>
</g>
<defs>
<clipPath id="clip0_396_4276">
<rect width="12" height="12" fill="white"/>
</clipPath>
</defs>
</svg>
