<svg width="12" height="12" viewBox="0 0 12 12" fill="none" xmlns="http://www.w3.org/2000/svg">
<g id="wifi_FILL0_wght500_GRAD0_opsz48 1">
<path id="Vector" d="M2.53909 8.37693C2.42478 8.26262 2.36505 8.1239 2.35988 7.96076C2.35472 7.79763 2.41446 7.66407 2.53909 7.56008C3.0621 7.10574 3.60812 6.76547 4.17714 6.53929C4.74616 6.31311 5.35367 6.20003 5.99969 6.20003C6.64571 6.20003 7.25322 6.31262 7.82224 6.5378C8.39127 6.76298 8.93728 7.10174 9.46029 7.5541C9.58492 7.66008 9.64724 7.79255 9.64724 7.95153C9.64724 8.11049 9.58592 8.2513 9.46328 8.37394C9.34897 8.48825 9.21183 8.5464 9.05187 8.5484C8.8919 8.55039 8.7486 8.49939 8.62197 8.3954C8.18193 8.03236 7.74597 7.77466 7.31409 7.62231C6.88221 7.46996 6.44407 7.39378 5.99969 7.39378C5.55531 7.39378 5.11717 7.46996 4.68529 7.62231C4.25341 7.77466 3.81745 8.03236 3.37742 8.3954C3.25078 8.4974 3.10798 8.5484 2.94902 8.5484C2.79005 8.5484 2.65341 8.49124 2.53909 8.37693ZM0.426591 6.26144C0.312283 6.14713 0.252545 6.00583 0.247379 5.83753C0.242212 5.66923 0.30195 5.53209 0.426591 5.42611C1.18094 4.74876 2.03321 4.2084 2.98339 3.80505C3.93357 3.4017 4.939 3.20003 5.99969 3.20003C7.06038 3.20003 8.06582 3.4017 9.01599 3.80505C9.96618 4.2084 10.8194 4.74876 11.5758 5.42611C11.6984 5.53209 11.7592 5.66714 11.7583 5.83128C11.7573 5.99541 11.6954 6.1388 11.5728 6.26144C11.4585 6.37575 11.3197 6.4339 11.1566 6.4359C10.9935 6.43789 10.8496 6.3859 10.725 6.27991C10.0393 5.69821 9.3039 5.23844 8.51885 4.90058C7.7338 4.56271 6.89407 4.39378 5.99969 4.39378C5.10531 4.39378 4.26559 4.56271 3.48053 4.90058C2.69548 5.23844 1.96111 5.69821 1.27742 6.27991C1.15078 6.3859 1.0059 6.43789 0.842766 6.4359C0.679633 6.4339 0.540908 6.37575 0.426591 6.26144ZM5.99969 11.6813C5.68972 11.6813 5.41925 11.5653 5.18828 11.3333C4.9573 11.1013 4.84182 10.8304 4.84182 10.5204C4.84182 10.2124 4.9573 9.94246 5.18828 9.71049C5.41925 9.47852 5.68972 9.36253 5.99969 9.36253C6.30966 9.36253 6.58013 9.47852 6.8111 9.71049C7.04208 9.94246 7.15757 10.2124 7.15757 10.5204C7.15757 10.8304 7.04208 11.1013 6.8111 11.3333C6.58013 11.5653 6.30966 11.6813 5.99969 11.6813Z" fill="#555555"/>
</g>
</svg>
