<svg width="12" height="12" viewBox="0 0 12 12" fill="none" xmlns="http://www.w3.org/2000/svg">
<path d="M2.53946 8.37691C2.42515 8.2626 2.36541 8.12388 2.36024 7.96075C2.35509 7.79762 2.41482 7.66405 2.53946 7.56006C3.06247 7.10572 3.60848 6.76546 4.17751 6.53927C4.74652 6.3131 5.35404 6.20001 6.00006 6.20001C6.64607 6.20001 7.25359 6.3126 7.82261 6.53779C8.39163 6.76296 8.93765 7.10173 9.46066 7.55409C9.58529 7.66006 9.64761 7.79254 9.64761 7.95151C9.64761 8.11048 9.58629 8.25128 9.46364 8.37392C9.34934 8.48823 9.2122 8.54639 9.05223 8.54839C8.89227 8.55038 8.74897 8.49938 8.62233 8.39539C8.1823 8.03235 7.74634 7.77465 7.31446 7.6223C6.88257 7.46994 6.44444 7.39376 6.00006 7.39376C5.55567 7.39376 5.11754 7.46994 4.68566 7.6223C4.25377 7.77465 3.81782 8.03235 3.37778 8.39539C3.25115 8.49739 3.10835 8.54839 2.94938 8.54839C2.79042 8.54839 2.65377 8.49123 2.53946 8.37691ZM0.426957 6.26142C0.312649 6.14712 0.252912 6.00581 0.247745 5.83751C0.242578 5.66921 0.302316 5.53207 0.426957 5.4261C1.18131 4.74874 2.03357 4.20839 2.98376 3.80504C3.93393 3.40169 4.93937 3.20001 6.00006 3.20001C7.06075 3.20001 8.06618 3.40169 9.01636 3.80504C9.96654 4.20839 10.8198 4.74874 11.5761 5.4261C11.6988 5.53207 11.7596 5.66713 11.7586 5.83126C11.7576 5.9954 11.6958 6.13878 11.5732 6.26142C11.4588 6.37573 11.3201 6.43389 11.157 6.43589C10.9938 6.43788 10.85 6.38588 10.7253 6.2799C10.0396 5.6982 9.30427 5.23842 8.51922 4.90056C7.73416 4.5627 6.89444 4.39376 6.00006 4.39376C5.10567 4.39376 4.26595 4.5627 3.4809 4.90056C2.69585 5.23842 1.96147 5.6982 1.27778 6.2799C1.15115 6.38588 1.00627 6.43788 0.843132 6.43589C0.679999 6.43389 0.541274 6.37573 0.426957 6.26142ZM6.00006 11.6813C5.69009 11.6813 5.41962 11.5653 5.18865 11.3333C4.95767 11.1013 4.84218 10.8304 4.84218 10.5204C4.84218 10.2124 4.95767 9.94245 5.18865 9.71047C5.41962 9.4785 5.69009 9.36251 6.00006 9.36251C6.31002 9.36251 6.58049 9.4785 6.81147 9.71047C7.04245 9.94245 7.15793 10.2124 7.15793 10.5204C7.15793 10.8304 7.04245 11.1013 6.81147 11.3333C6.58049 11.5653 6.31002 11.6813 6.00006 11.6813Z" fill="#555555"/>
</svg>
