<svg width="12" height="12" viewBox="0 0 12 12" fill="none" xmlns="http://www.w3.org/2000/svg">
<g clip-path="url(#clip0_396_4462)">
<path d="M5.99997 11.6125C5.69997 11.6125 5.43747 11.5 5.21247 11.275C4.98747 11.05 4.87497 10.7875 4.87497 10.4875C4.87497 10.1875 4.98747 9.92496 5.21247 9.69996C5.43747 9.47496 5.69997 9.36246 5.99997 9.36246C6.29997 9.36246 6.56247 9.47496 6.78747 9.69996C7.01247 9.92496 7.12497 10.1875 7.12497 10.4875C7.12497 10.7875 7.01247 11.05 6.78747 11.275C6.56247 11.5 6.29997 11.6125 5.99997 11.6125ZM10.7252 6.28283C10.0415 5.70113 9.30667 5.24085 8.52062 4.90199C7.73457 4.56314 6.89435 4.39371 5.99997 4.39371C5.71156 4.39371 5.43466 4.41196 5.16927 4.44847C4.90387 4.48497 4.6833 4.53357 4.50758 4.59426L3.52633 3.613C3.893 3.47966 4.28443 3.37749 4.70064 3.30648C5.11686 3.23547 5.54997 3.19996 5.99997 3.19996C7.06265 3.19996 8.06858 3.40213 9.01777 3.80648C9.96695 4.21082 10.8207 4.75367 11.579 5.43501C11.6997 5.539 11.76 5.67256 11.76 5.83569C11.76 5.99883 11.6977 6.14271 11.5731 6.26734C11.4587 6.37967 11.3205 6.43683 11.1584 6.43882C10.9963 6.44081 10.8519 6.38882 10.7252 6.28283ZM8.73529 8.35947C8.54199 8.19316 8.35617 8.05575 8.17782 7.94724C7.99947 7.83873 7.78031 7.72215 7.52034 7.59751L6.13475 6.21192C6.81048 6.23058 7.41537 6.35617 7.94943 6.58868C8.48348 6.8212 8.98819 7.14298 9.46355 7.55403C9.5842 7.65602 9.64552 7.787 9.64752 7.94697C9.64951 8.10694 9.58918 8.24724 9.46654 8.36789C9.36817 8.46626 9.24789 8.51395 9.10568 8.51096C8.96346 8.50797 8.84 8.45748 8.73529 8.35947ZM9.76709 12.0744L5.1554 7.47823C4.81337 7.55957 4.49367 7.68109 4.1963 7.84277C3.89893 8.00445 3.62606 8.18864 3.37769 8.39534C3.25106 8.49734 3.10567 8.54526 2.94154 8.53909C2.77741 8.53294 2.63719 8.47171 2.52089 8.35541C2.40658 8.24109 2.34992 8.10544 2.35092 7.94847C2.35192 7.79149 2.41374 7.66102 2.53638 7.55703C2.76808 7.34834 3.01903 7.15899 3.28923 6.98897C3.55943 6.81894 3.86872 6.6641 4.21709 6.52443L2.8804 5.19072C2.58837 5.33674 2.30775 5.50309 2.03855 5.68977C1.76935 5.87645 1.51374 6.07314 1.2717 6.27984C1.14707 6.38583 1.00319 6.43782 0.840054 6.43583C0.676921 6.43383 0.533033 6.37052 0.408391 6.24588C0.294075 6.13157 0.237416 5.99385 0.238416 5.83271C0.239416 5.67157 0.301237 5.538 0.423879 5.43202C0.665912 5.20467 0.917858 4.99607 1.17972 4.80621C1.44158 4.61635 1.7092 4.44941 1.98258 4.30539L1.113 3.43583C1.04235 3.36517 1.00703 3.27369 1.00703 3.16137C1.00703 3.04905 1.04652 2.9534 1.1255 2.87442C1.19616 2.80376 1.28765 2.76843 1.39997 2.76843C1.51228 2.76843 1.60794 2.80376 1.68693 2.87442L10.3255 11.5255C10.3962 11.5962 10.4315 11.6876 10.4315 11.8C10.4315 11.9123 10.3962 12.0038 10.3255 12.0744C10.2485 12.1514 10.1539 12.1904 10.0415 12.1914C9.92922 12.1924 9.83774 12.1534 9.76709 12.0744V12.0744Z" fill="#555555"/>
</g>
<defs>
<clipPath id="clip0_396_4462">
<rect width="12" height="12" fill="white"/>
</clipPath>
</defs>
</svg>
