<svg width="36" height="30" viewBox="0 0 36 30" fill="none" xmlns="http://www.w3.org/2000/svg">
<g opacity="0.65" clip-path="url(#clip0_396_4528)">
<path d="M33.4604 6.49934C32.4602 6.09165 31.2518 6.25046 30.4607 6.89311L25.3729 11.0271L20.3725 1.87803C19.956 1.11611 19.0261 0.625 18 0.625C16.9739 0.625 16.044 1.11611 15.6277 1.87814L10.6271 11.0272L5.53928 6.89322C4.74833 6.25067 3.53983 6.09175 2.53965 6.49955C1.53986 6.90693 0.973704 7.78918 1.13504 8.68851L3.45559 21.637C3.64133 22.6735 4.73509 23.4422 6.02432 23.4422H29.9757C31.2649 23.4422 32.3587 22.6735 32.5444 21.637L34.8651 8.6884C35.0263 7.78907 34.4601 6.90682 33.4604 6.49934Z" fill="#F4CD00"/>
<path d="M29.9757 25.6567H6.02431C4.59063 25.6567 3.42847 26.601 3.42847 27.7659C3.42847 28.9307 4.59063 29.875 6.02431 29.875H29.9757C31.4094 29.875 32.5715 28.9307 32.5715 27.7659C32.5715 26.601 31.4094 25.6567 29.9757 25.6567Z" fill="#F4CD00"/>
</g>
<defs>
<clipPath id="clip0_396_4528">
<rect width="36" height="29.25" fill="white" transform="translate(0 0.625)"/>
</clipPath>
</defs>
</svg>
